FiraMath.glyphspackage
{
color = 4;
glyphname = exclam;
layers = (
{
layerId = "B26C53A4-97D1-457B-8232-65310EC64496";
shapes = (
{
closed = 1;
nodes = (
(16,696,l),
(42,270,l),
(198,270,l),
(224,696,l)
);
},
{
closed = 1;
nodes = (
(63,186,o),
(17,139,o),
(17,83,cs),
(17,27,o),
(63,-20,o),
(120,-20,cs),
(177,-20,o),
(223,27,o),
(223,83,cs),
(223,139,o),
(177,186,o),
(120,186,cs)
);
}
);
width = 240;
},
{
background = {
shapes = (
{
closed = 1;
nodes = (
(113,11,o),
(110,8,o),
(110,4,cs),
(110,0,o),
(113,-3,o),
(117,-3,cs),
(121,-3,o),
(124,0,o),
(124,4,cs),
(124,8,o),
(121,11,o),
(117,11,cs)
);
}
);
};
layerId = "D42A05F0-DBDC-4569-915A-03C7188507B6";
shapes = (
{
closed = 1;
nodes = (
(116,680,l),
(116,188,l),
(118,188,l),
(118,680,l)
);
},
{
closed = 1;
nodes = (
(113,10,o),
(110,7,o),
(110,3,cs),
(110,-1,o),
(113,-4,o),
(117,-4,cs),
(121,-4,o),
(124,-1,o),
(124,3,c),
(124,7,o),
(121,10,o),
(117,10,cs)
);
}
);
width = 234;
},
{
layerId = "B2FE45D6-EF48-417F-ACCD-B60D15D1CAF3";
shapes = (
{
closed = 1;
nodes = (
(105,682,l),
(105,208,l),
(134,208,l),
(134,682,l)
);
},
{
closed = 1;
nodes = (
(102,49,o),
(90,36,o),
(90,19,cs),
(90,3,o),
(102,-10,o),
(120,-10,cs),
(139,-10,o),
(150,3,o),
(150,19,cs),
(150,36,o),
(139,49,o),
(120,49,cs)
);
}
);
width = 240;
},
{
layerId = "D92A4C0B-EB2A-4209-AFE3-2959A8B274DD";
shapes = (
{
closed = 1;
nodes = (
(68,689,l),
(79,230,l),
(160,230,l),
(170,689,l)
);
},
{
closed = 1;
nodes = (
(81,127,o),
(51,96,o),
(51,58,cs),
(51,19,o),
(81,-12,o),
(120,-12,cs),
(160,-12,o),
(190,19,o),
(190,58,cs),
(190,96,o),
(160,127,o),
(120,127,cs)
);
}
);
width = 241;
}
);
unicode = 33;
}
{
color = 4;
glyphname = numbersign;
layers = (
{
layerId = "B26C53A4-97D1-457B-8232-65310EC64496";
shapes = (
{
closed = 1;
nodes = (
(369,680,l),
(279,0,l),
(442,0,l),
(532,680,l)
);
},
{
closed = 1;
nodes = (
(15,257,l),
(15,131,l),
(528,131,l),
(528,257,l)
);
},
{
closed = 1;
nodes = (
(138,680,l),
(48,0,l),
(211,0,l),
(301,680,l)
);
},
{
closed = 1;
nodes = (
(52,562,l),
(52,436,l),
(565,436,l),
(565,562,l)
);
}
);
width = 580;
},
{
layerId = "D42A05F0-DBDC-4569-915A-03C7188507B6";
shapes = (
{
closed = 1;
nodes = (
(401,662,l),
(314,0,l),
(316,0,l),
(403,662,l)
);
},
{
closed = 1;
nodes = (
(15,216,l),
(15,214,l),
(427,214,l),
(427,216,l)
);
},
{
closed = 1;
nodes = (
(167,662,l),
(80,0,l),
(82,0,l),
(169,662,l)
);
},
{
closed = 1;
nodes = (
(52,468,l),
(52,466,l),
(464,466,l),
(464,468,l)
);
}
);
width = 479;
},
{
layerId = "B2FE45D6-EF48-417F-ACCD-B60D15D1CAF3";
shapes = (
{
closed = 1;
nodes = (
(389,662,l),
(301,0,l),
(335,0,l),
(423,662,l)
);
},
{
closed = 1;
nodes = (
(15,222,l),
(15,194,l),
(439,194,l),
(439,222,l)
);
},
{
closed = 1;
nodes = (
(156,662,l),
(68,0,l),
(101,0,l),
(189,662,l)
);
},
{
closed = 1;
nodes = (
(52,484,l),
(52,456,l),
(476,456,l),
(476,484,l)
);
}
);
width = 491;
},
{
layerId = "D92A4C0B-EB2A-4209-AFE3-2959A8B274DD";
shapes = (
{
closed = 1;
nodes = (
(378,669,l),
(290,0,l),
(368,0,l),
(456,669,l)
);
},
{
closed = 1;
nodes = (
(15,232,l),
(15,163,l),
(466,163,l),
(466,232,l)
);
},
{
closed = 1;
nodes = (
(146,669,l),
(58,0,l),
(136,0,l),
(224,669,l)
);
},
{
closed = 1;
nodes = (
(52,517,l),
(52,447,l),
(503,447,l),
(503,517,l)
);
}
);
width = 518;
}
);
unicode = 35;
}
{
color = 4;
glyphname = dollar;
layers = (
{
layerId = "B26C53A4-97D1-457B-8232-65310EC64496";
shapes = (
{
closed = 1;
nodes = (
(223,-1,l),
(223,-165,l),
(358,-165,l),
(358,5,l)
);
},
{
closed = 1;
nodes = (
(223,834,l),
(223,673,l),
(358,678,l),
(358,834,l)
);
},
{
closed = 1;
nodes = (
(138,690,o),
(28,613,o),
(28,488,cs),
(28,392,o),
(74,324,o),
(234,274,cs),
(320,247,o),
(341,230,o),
(341,191,cs),
(341,157,o),
(316,132,o),
(259,132,cs),
(197,132,o),
(144,155,o),
(96,196,c),
(0,91,l),
(54,38,o),
(140,-9,o),
(266,-9,cs),
(440,-9,o),
(545,80,o),
(545,208,cs),
(545,326,o),
(484,385,o),
(348,429,cs),
(254,459,o),
(229,470,o),
(229,504,cs),
(229,533,o),
(253,551,o),
(300,551,cs),
(353,551,o),
(398,533,o),
(442,498,c),
(528,600,l),
(469,658,o),
(391,690,o),
(284,690,cs)
);
}
);
width = 560;
},
{
layerId = "D42A05F0-DBDC-4569-915A-03C7188507B6";
shapes = (
{
closed = 1;
nodes = (
(254,-8,l),
(254,-144,l),
(256,-144,l),
(256,-8,l)
);
},
{
closed = 1;
nodes = (
(259,805,l),
(259,669,l),
(261,669,l),
(261,805,l)
);
},
{
closed = 1;
nodes = (
(153,669,o),
(87,605,o),
(87,521,cs),
(87,434,o),
(130,400,o),
(263,357,cs),
(387,317,o),
(446,278,o),
(446,173,cs),
(446,67,o),
(369,-7,o),
(254,-7,cs),
(165,-7,o),
(114,23,o),
(66,69,c),
(65,67,l),
(113,21,o),
(165,-9,o),
(254,-9,cs),
(371,-9,o),
(448,66,o),
(448,173,cs),
(448,279,o),
(389,319,o),
(264,359,cs),
(130,402,o),
(89,436,o),
(89,521,cs),
(89,603,o),
(154,667,o),
(256,667,cs),
(335,667,o),
(382,642,o),
(423,605,c),
(424,607,l),
(383,643,o),
(337,669,o),
(256,669,cs)
);
}
);
width = 528;
},
{
layerId = "B2FE45D6-EF48-417F-ACCD-B60D15D1CAF3";
shapes = (
{
closed = 1;
nodes = (
(245,0,l),
(245,-147,l),
(272,-147,l),
(272,1,l)
);
},
{
closed = 1;
nodes = (
(245,814,l),
(245,664,l),
(272,664,l),
(272,814,l)
);
},
{
closed = 1;
nodes = (
(147,671,o),
(76,604,o),
(76,516,cs),
(76,429,o),
(123,386,o),
(258,343,cs),
(380,305,o),
(426,270,o),
(426,177,cs),
(426,80,o),
(355,18,o),
(249,18,cs),
(168,18,o),
(115,48,o),
(69,89,c),
(50,69,l),
(102,22,o),
(164,-10,o),
(250,-10,cs),
(371,-10,o),
(456,66,o),
(456,178,cs),
(456,286,o),
(399,329,o),
(268,370,cs),
(150,406,o),
(106,438,o),
(106,516,cs),
(106,591,o),
(165,643,o),
(256,643,cs),
(323,643,o),
(368,625,o),
(416,580,c),
(436,601,l),
(387,644,o),
(339,671,o),
(256,671,cs)
);
}
);
width = 521;
},
{
layerId = "D92A4C0B-EB2A-4209-AFE3-2959A8B274DD";
shapes = (
{
closed = 1;
nodes = (
(230,-7,l),
(230,-155,l),
(310,-155,l),
(310,2,l)
);
},
{
closed = 1;
nodes = (
(230,824,l),
(230,662,l),
(310,664,l),
(310,824,l)
);
},
{
closed = 1;
nodes = (
(140,680,o),
(52,608,o),
(52,505,cs),
(52,402,o),
(120,352,o),
(250,312,cs),
(364,277,o),
(395,248,o),
(395,183,cs),
(395,103,o),
(330,64,o),
(251,64,cs),
(179,64,o),
(124,90,o),
(79,134,c),
(25,75,l),
(81,20,o),
(156,-12,o),
(252,-12,cs),
(403,-12,o),
(491,70,o),
(491,186,cs),
(491,314,o),
(400,356,o),
(293,389,cs),
(173,426,o),
(147,453,o),
(147,509,cs),
(147,573,o),
(200,604,o),
(267,604,cs),
(323,604,o),
(371,587,o),
(417,544,c),
(470,602,l),
(415,653,o),
(356,680,o),
(263,680,cs)
);
}
);
width = 531;
}
);
metricLeft = S;
metricRight = S;
unicode = 36;
}
{
color = 4;
glyphname = percent;
layers = (
{
layerId = "B26C53A4-97D1-457B-8232-65310EC64496";
shapes = (
{
closed = 1;
nodes = (
(151,28,l),
(268,-45,l),
(732,652,l),
(614,725,l)
);
},
{
closed = 1;
nodes = (
(251,582,o),
(261,546,o),
(261,510,cs),
(261,474,o),
(251,438,o),
(207,438,cs),
(163,438,o),
(152,474,o),
(152,510,cs),
(152,546,o),
(163,582,o),
(207,582,cs)
);
},
{
closed = 1;
nodes = (
(104,696,o),
(20,624,o),
(20,510,cs),
(20,396,o),
(104,324,o),
(207,324,cs),
(311,324,o),
(394,396,o),
(394,510,cs),
(394,624,o),
(311,696,o),
(207,696,cs)
);
},
{
closed = 1;
nodes = (
(716,238,o),
(726,202,o),
(726,166,cs),
(726,130,o),
(716,94,o),
(672,94,cs),
(628,94,o),
(617,130,o),
(617,166,cs),
(617,202,o),
(628,238,o),
(672,238,cs)
);
},
{
closed = 1;
nodes = (
(569,352,o),
(484,280,o),
(484,166,cs),
(484,52,o),
(569,-20,o),
(672,-20,cs),
(776,-20,o),
(859,52,o),
(859,166,cs),
(859,280,o),
(776,352,o),
(672,352,cs)
);
}
);
width = 879;
},
{
layerId = "D42A05F0-DBDC-4569-915A-03C7188507B6";
shapes = (
{
closed = 1;
nodes = (
(145,-9,l),
(147,-9,l),
(603,690,l),
(601,690,l)
);
},
{
closed = 1;
nodes = (
(269,668,o),
(316,615,o),
(316,520,cs),
(316,428,o),
(271,368,o),
(194,368,cs),
(118,368,o),
(72,426,o),
(72,517,cs),
(72,613,o),
(117,668,o),
(194,668,cs)
);
},
{
closed = 1;
nodes = (
(115,670,o),
(70,613,o),
(70,517,cs),
(70,426,o),
(116,366,o),
(194,366,cs),
(273,366,o),
(318,428,o),
(318,520,cs),
(318,615,o),
(271,670,o),
(194,670,cs)
);
},
{
closed = 1;
nodes = (
(626,293,o),
(673,240,o),
(673,145,cs),
(673,53,o),
(628,-7,o),
(551,-7,cs),
(475,-7,o),
(429,51,o),
(429,142,cs),
(429,238,o),
(474,293,o),
(551,293,cs)
);
},
{
closed = 1;
nodes = (
(472,295,o),
(427,238,o),
(427,142,cs),
(427,51,o),
(473,-9,o),
(551,-9,cs),
(630,-9,o),
(675,53,o),
(675,145,cs),
(675,240,o),
(628,295,o),
(551,295,cs)
);
}
);
width = 745;
},
{
layerId = "B2FE45D6-EF48-417F-ACCD-B60D15D1CAF3";
shapes = (
{
closed = 1;
nodes = (
(144,-2,l),
(169,-18,l),
(633,681,l),
(608,697,l)
);
},
{
closed = 1;
nodes = (
(275,648,o),
(307,588,o),
(307,518,cs),
(307,445,o),
(275,385,o),
(199,385,c),
(123,385,o),
(91,445,o),
(91,515,cs),
(91,588,o),
(123,648,o),
(199,648,c)
);
},
{
closed = 1;
nodes = (
(112,674,o),
(60,611,o),
(60,515,cs),
(60,420,o),
(116,359,o),
(199,359,c),
(286,359,o),
(338,422,o),
(338,518,cs),
(338,613,o),
(282,674,o),
(199,674,c)
);
},
{
closed = 1;
nodes = (
(643,279,o),
(675,219,o),
(675,149,cs),
(675,76,o),
(643,16,o),
(567,16,c),
(491,16,o),
(459,76,o),
(459,146,cs),
(459,219,o),
(491,279,o),
(567,279,c)
);
},
{
closed = 1;
nodes = (
(480,305,o),
(428,242,o),
(428,146,cs),
(428,51,o),
(484,-10,o),
(567,-10,c),
(654,-10,o),
(706,53,o),
(706,149,cs),
(706,244,o),
(650,305,o),
(567,305,c)
);
}
);
width = 766;
},
{
layerId = "D92A4C0B-EB2A-4209-AFE3-2959A8B274DD";
shapes = (
{
closed = 1;
nodes = (
(150,11,l),
(214,-31,l),
(677,669,l),
(613,711,l)
);
},
{
closed = 1;
nodes = (
(272,617,o),
(288,562,o),
(288,510,cs),
(288,456,o),
(272,403,o),
(207,403,cs),
(143,403,o),
(126,458,o),
(126,510,cs),
(126,564,o),
(143,617,o),
(207,617,cs)
);
},
{
closed = 1;
nodes = (
(114,679,o),
(45,614,o),
(45,510,cs),
(45,406,o),
(114,341,o),
(207,341,cs),
(301,341,o),
(370,406,o),
(370,510,cs),
(370,614,o),
(301,679,o),
(207,679,cs)
);
},
{
closed = 1;
nodes = (
(684,263,o),
(700,209,o),
(700,157,cs),
(700,103,o),
(684,50,o),
(619,50,cs),
(555,50,o),
(538,105,o),
(538,157,cs),
(538,211,o),
(555,263,o),
(619,263,cs)
);
},
{
closed = 1;
nodes = (
(525,326,o),
(456,261,o),
(456,157,cs),
(456,53,o),
(525,-12,o),
(619,-12,cs),
(713,-12,o),
(781,53,o),
(781,157,cs),
(781,261,o),
(713,326,o),
(619,326,cs)
);
}
);
width = 826;
}
);
unicode = 37;
}
{
color = 4;
glyphname = ampersand;
layers = (
{
background = {
shapes = (
{
closed = 1;
nodes = (
(157,716,o),
(85,634,o),
(85,546,cs),
(85,481,o),
(108,440,o),
(199,354,c),
(235,320,l),
(441,124,l),
(486,82,l),
(593,-20,l),
(787,10,l),
(614,181,l),
(575,218,l),
(382,399,l),
(340,439,l),
(281,496,o),
(274,513,o),
(274,543,cs),
(274,577,o),
(292,593,o),
(321,593,cs),
(349,593,o),
(365,574,o),
(365,547,cs),
(365,506,o),
(349,480,o),
(300,448,c),
(198,384,l),
(97,318,o),
(50,264,o),
(50,183,cs),
(50,59,o),
(151,-20,o),
(309,-20,cs),
(391,-20,o),
(469,3,o),
(540,54,c),
(633,144,l),
(673,195,o),
(708,258,o),
(736,336,c),
(576,383,l),
(564,327,o),
(549,280,o),
(530,243,c),
(444,141,l),
(416,124,o),
(384,116,o),
(346,116,cs),
(289,116,o),
(259,148,o),
(259,196,cs),
(259,226,o),
(276,253,o),
(307,279,c),
(410,348,l),
(497,406,o),
(553,459,o),
(553,547,cs),
(553,640,o),
(470,716,o),
(319,716,cs)
);
}
);
};
layerId = "B26C53A4-97D1-457B-8232-65310EC64496";
shapes = (
{
closed = 1;
nodes = (
(157,716,o),
(85,628,o),
(85,542,cs),
(85,482.667,o),
(104.769,445.68,o),
(180.161,372.076,c),
(87,311,o),
(47,259,o),
(47,179,cs),
(47,59,o),
(151,-20,o),
(309,-20,cs),
(385.609,-20,o),
(458.726,-1.67,o),
(525.906,43.959,c),
(593,-20,l),
(769,49,l),
(642.618,156.628,l),
(678.623,205.303,o),
(710.267,264.317,o),
(736,336,c),
(576,383,l),
(565.241,332.789,o),
(552.069,289.814,o),
(535.765,254.795,c),
(425.281,358.41,l),
(503.502,412.934,o),
(553,468.267,o),
(553,551,cs),
(553,644,o),
(470,716,o),
(319,716,cs)
);
},
{
closed = 1;
nodes = (
(430.736,133.766,l),
(405.975,121.721,o),
(378.133,116,o),
(346,116,cs),
(289,116,o),
(256,147,o),
(256,191,cs),
(256,220,o),
(266,244,o),
(292.279,265.502,c)
);
},
{
closed = 1;
nodes = (
(350,593,o),
(365,574,o),
(365,547,cs),
(365,511.558,o),
(353.044,487.325,o),
(318.15,460.735,c),
(279.177,500.996,o),
(274,517.061,o),
(274,542,cs),
(274,574,o),
(293,593,o),
(322,593,cs)
);
}
);
width = 807;
},
{
background = {
shapes = (
{
closed = 1;
nodes = (
(225,691,o),
(162,631,o),
(163,549,cs),
(163,473,o),
(190,436,o),
(270,361,c),
(272,360,l),
(531,115,l),
(532,114,l),
(651,0,l),
(654,0,l),
(533,115,l),
(532,116,l),
(274,361,l),
(272,362,l),
(191,438,o),
(166,473,o),
(165,549,c),
(165,631,o),
(225,689,o),
(306,689,c),
(388,689,o),
(442,630,o),
(442,550,c),
(442,463,o),
(377,422,o),
(272,362,c),
(270,361,l),
(170,308,o),
(130,251,o),
(130,158,c),
(130,62,o),
(196,-9,o),
(310,-9,c),
(410,-9,o),
(483,34,o),
(532,114,c),
(533,115,l),
(571,187,o),
(590,258,o),
(606,347,c),
(604,347,l),
(588,258,o),
(570,189,o),
(532,116,c),
(531,115,l),
(480,35,o),
(410,-7,o),
(310,-7,c),
(197,-7,o),
(132,64,o),
(132,158,c),
(132,251,o),
(172,306,o),
(272,360,c),
(274,361,l),
(378,420,o),
(444,461,o),
(444,550,c),
(444,631,o),
(388,691,o),
(306,691,c)
);
}
);
};
layerId = "D42A05F0-DBDC-4569-915A-03C7188507B6";
shapes = (
{
closed = 1;
nodes = (
(224,691,o),
(163,632,o),
(163,549,cs),
(163,473,o),
(190,436,o),
(270,361,c),
(170,307,o),
(119,252,o),
(119,158,cs),
(119,63,o),
(196,-9,o),
(310,-9,cs),
(410,-9,o),
(483,34,o),
(532,114,c),
(652,-1,l),
(654,0,l),
(533,115,l),
(571,187,o),
(590,258,o),
(606,347,c),
(604,347,l),
(588,258,o),
(570,189,o),
(532,116,c),
(274,361,l),
(378,420,o),
(444,461,o),
(444,550,cs),
(444,631,o),
(389,691,o),
(306,691,cs)
);
},
{
closed = 1;
nodes = (
(531,115,l),
(480,35,o),
(410,-7,o),
(310,-7,cs),
(197,-7,o),
(121,64,o),
(121,158,cs),
(121,251,o),
(172,306,o),
(272,360,c)
);
},
{
closed = 1;
nodes = (
(388,689,o),
(442,630,o),
(442,550,cs),
(442,463,o),
(377,422,o),
(272,362,c),
(191,438,o),
(165,473,o),
(165,549,cs),
(165,631,o),
(225,689,o),
(306,689,cs)
);
}
);
width = 734;
},
{
layerId = "B2FE45D6-EF48-417F-ACCD-B60D15D1CAF3";
shapes = (
{
closed = 1;
nodes = (
(208,692,o),
(142,627,o),
(142,542,cs),
(142,472,o),
(176,433,o),
(245,367,c),
(154,316,o),
(98,261,o),
(98,168,cs),
(98,61,o),
(187,-10,o),
(296,-10,cs),
(408,-10,o),
(472,39,o),
(522,104,c),
(646,-10,l),
(671,7,l),
(537,130,l),
(574,194,o),
(600,263,o),
(618,348,c),
(589,357,l),
(572,276,o),
(550,214,o),
(518,149,c),
(290,362,l),
(400,422,o),
(453,470,o),
(453,547,cs),
(453,633,o),
(390,692,o),
(300,692,cs)
);
},
{
closed = 1;
nodes = (
(501,123,l),
(453,59,o),
(395,18,o),
(296,18,cs),
(200,18,o),
(129,81,o),
(129,168,cs),
(129,247,o),
(178,300,o),
(265,349,c)
);
},
{
closed = 1;
nodes = (
(367,665,o),
(422,624,o),
(422,547,cs),
(422,481,o),
(375,435,o),
(270,381,c),
(181,466,o),
(173,494,o),
(173,543,cs),
(173,609,o),
(222,665,o),
(300,665,cs)
);
}
);
width = 727;
},
{
background = {
shapes = (
{
closed = 1;
nodes = (
(186,701,o),
(123,633,o),
(123,546,cs),
(123,471,o),
(167,424,o),
(235,360,cs),
(247,349,l),
(486,120,l),
(514,94,l),
(612,0,l),
(733,0,l),
(566,157,l),
(534,187,l),
(328,381,l),
(307,401,ls),
(251,453,o),
(213,490,o),
(213,547,cs),
(213,596,o),
(245,633,o),
(303,633,cs),
(359,633,o),
(395,600,o),
(395,544,cs),
(395,486,o),
(346,446,o),
(273,404,c),
(237,384,l),
(141,327,o),
(90,267,o),
(90,175,cs),
(90,61,o),
(173,-12,o),
(305,-12,cs),
(405,-12,o),
(478,25,o),
(535,93,c),
(567,131,l),
(603,184,o),
(638,253,o),
(666,344,c),
(580,369,l),
(563,296,o),
(538,233,o),
(512,183,c),
(481,142,l),
(434,90,o),
(383,61,o),
(315,61,cs),
(233,61,o),
(184,104,o),
(184,178,cs),
(184,243,o),
(212,289,o),
(294,337,c),
(331,358,l),
(411,404,o),
(485,458,o),
(485,549,cs),
(485,636,o),
(411,701,o),
(302,701,cs)
);
}
);
};
layerId = "D92A4C0B-EB2A-4209-AFE3-2959A8B274DD";
shapes = (
{
closed = 1;
nodes = (
(186,701,o),
(123,633,o),
(123,546,cs),
(123,476.506,o),
(160.778,431.051,o),
(220.421,373.837,c),
(135.139,319.782,o),
(81,262,o),
(81,175,cs),
(81,61,o),
(173,-12,o),
(305,-12,cs),
(399.72,-12,o),
(470.216,21.197,o),
(525.836,82.49,c),
(623,-12,l),
(689,42,l),
(577.211,146.518,l),
(609.576,197.287,o),
(640.656,261.631,o),
(666,344,c),
(580,369,l),
(564.849,303.939,o),
(543.343,246.822,o),
(520.439,199.772,c),
(344.224,365.721,l),
(418.969,410.095,o),
(485,463.04,o),
(485,549,cs),
(485,636,o),
(411,701,o),
(302,701,cs)
);
},
{
closed = 1;
nodes = (
(472.519,132.917,l),
(427.837,86.635,o),
(378.932,61,o),
(315,61,cs),
(233,61,o),
(175,104,o),
(175,178,cs),
(175,237,o),
(207.168,280.53,o),
(273.071,324.019,c)
);
},
{
closed = 1;
nodes = (
(359,633,o),
(395,600,o),
(395,544,cs),
(395,491.149,o),
(354.313,453.243,o),
(291.855,415.151,c),
(244.259,460.057,o),
(213,495.303,o),
(213,547,cs),
(213,596,o),
(245,633,o),
(303,633,cs)
);
}
);
width = 763;
}
);
unicode = 38;
}
{
color = 4;
glyphname = quotesingle;
layers = (
{
layerId = "B26C53A4-97D1-457B-8232-65310EC64496";
shapes = (
{
closed = 1;
nodes = (
(188,406,l),
(210,696,l),
(40,696,l),
(62,406,l)
);
}
);
width = 250;
},
{
layerId = "D42A05F0-DBDC-4569-915A-03C7188507B6";
shapes = (
{
closed = 1;
nodes = (
(92,446,l),
(92,680,l),
(90,680,l),
(90,446,l)
);
}
);
width = 182;
},
{
layerId = "B2FE45D6-EF48-417F-ACCD-B60D15D1CAF3";
shapes = (
{
closed = 1;
nodes = (
(108,439,l),
(112,682,l),
(80,682,l),
(84,439,l)
);
}
);
width = 192;
},
{
layerId = "D92A4C0B-EB2A-4209-AFE3-2959A8B274DD";
shapes = (
{
closed = 1;
nodes = (
(144,427,l),
(159,689,l),
(60,689,l),
(75,427,l)
);
}
);
width = 219;
}
);
unicode = 39;
}
{
color = 4;
glyphname = asterisk;
layers = (
{
layerId = "B26C53A4-97D1-457B-8232-65310EC64496";
shapes = (
{
closed = 1;
nodes = (
(221,449,l),
(287,312,l),
(420,409,l),
(309,513,l),
(228,532,l)
);
},
{
closed = 1;
nodes = (
(146,744,l),
(173,592,l),
(228,532,l),
(283,591,l),
(310,744,l)
);
},
{
closed = 1;
nodes = (
(272,600,l),
(228,532,l),
(304,500,l),
(455,520,l),
(404,673,l)
);
},
{
closed = 1;
nodes = (
(0,519,l),
(151,500,l),
(228,532,l),
(184,601,l),
(51,672,l)
);
},
{
closed = 1;
nodes = (
(146,513,l),
(37,408,l),
(170,311,l),
(234,449,l),
(228,532,l)
);
}
);
width = 455;
},
{
layerId = "D42A05F0-DBDC-4569-915A-03C7188507B6";
shapes = (
{
closed = 1;
nodes = (
(214,564,l),
(307,435,l),
(309,436,l),
(216,565,ls),
(214,566,l)
);
},
{
closed = 1;
nodes = (
(213,727,l),
(213,567,l),
(214,566,l),
(215,567,l),
(215,727,l)
);
},
{
closed = 1;
nodes = (
(215,567,l),
(214,566,l),
(216,565,l),
(368,614,l),
(367,616,l)
);
},
{
closed = 1;
nodes = (
(60,614,l),
(212,565,l),
(214,566,l),
(213,567,l),
(61,616,l)
);
},
{
closed = 1;
nodes = (
(212,565,l),
(118,436,l),
(120,435,l),
(214,564,l),
(214,566,l)
);
}
);
width = 428;
},
{
layerId = "B2FE45D6-EF48-417F-ACCD-B60D15D1CAF3";
shapes = (
{
closed = 1;
nodes = (
(215,542,l),
(307,408,l),
(332,426,l),
(234,557,l),
(217,559,l)
);
},
{
closed = 1;
nodes = (
(202,734,l),
(204,569,l),
(217,559,l),
(230,569,l),
(232,734,l)
);
},
{
closed = 1;
nodes = (
(225,573,l),
(217,559,l),
(232,552,l),
(388,599,l),
(379,626,l)
);
},
{
closed = 1;
nodes = (
(45,599,l),
(202,551,l),
(217,559,l),
(207,572,l),
(54,626,l)
);
},
{
closed = 1;
nodes = (
(200,555,l),
(101,426,l),
(126,408,l),
(220,542,l),
(217,559,l)
);
}
);
width = 433;
},
{
layerId = "D92A4C0B-EB2A-4209-AFE3-2959A8B274DD";
shapes = (
{
closed = 1;
nodes = (
(212,505,l),
(298,359,l),
(370,412,l),
(258,537,l),
(219,543,l)
);
},
{
closed = 1;
nodes = (
(174,739,l),
(190,569,l),
(219,543,l),
(248,569,l),
(264,739,l)
);
},
{
closed = 1;
nodes = (
(238,576,l),
(219,543,l),
(254,525,l),
(419,561,l),
(391,644,l)
);
},
{
closed = 1;
nodes = (
(20,561,l),
(184,525,l),
(219,543,l),
(202,576,l),
(47,643,l)
);
},
{
closed = 1;
nodes = (
(181,538,l),
(69,411,l),
(141,359,l),
(226,504,l),
(219,543,l)
);
}
);
width = 439;
}
);
unicode = 42;
}
{
glyphname = plus;
layers = (
{
anchors = (
{
name = top;
pos = (280,471);
}
);
layerId = "B26C53A4-97D1-457B-8232-65310EC64496";
shapes = (
{
closed = 1;
nodes = (
(359,50,l),
(359,510,l),
(201,510,l),
(201,50,l)
);
},
{
ref = minus;
}
);
width = 560;
},
{
anchors = (
{
name = top;
pos = (270,361);
}
);
layerId = "D42A05F0-DBDC-4569-915A-03C7188507B6";
shapes = (
{
closed = 1;
nodes = (
(271,90,l),
(271,470,l),
(269,470,l),
(269,90,l)
);
},
{
ref = minus;
}
);
width = 540;
},
{
anchors = (
{
name = top;
pos = (275,395);
}
);
layerId = "B2FE45D6-EF48-417F-ACCD-B60D15D1CAF3";
shapes = (
{
closed = 1;
nodes = (
(289,65,l),
(289,495,l),
(259,495,l),
(259,65,l)
);
},
{
ref = minus;
}
);
width = 550;
},
{
anchors = (
{
name = top;
pos = (280,442);
}
);
layerId = "D92A4C0B-EB2A-4209-AFE3-2959A8B274DD";
shapes = (
{
closed = 1;
nodes = (
(322,40,l),
(322,520,l),
(238,520,l),
(238,40,l)
);
},
{
ref = minus;
}
);
width = 560;
}
);
metricLeft = minus;
metricRight = minus;
unicode = 43;
}
{
color = 4;
glyphname = comma;
layers = (
{
layerId = "B26C53A4-97D1-457B-8232-65310EC64496";
shapes = (
{
closed = 1;
nodes = (
(61,186,o),
(17,142,o),
(17,84,cs),
(17,48,o),
(33,18,o),
(63,-1,c),
(19,-184,l),
(121,-184,l),
(183,-44,ls),
(210,17,o),
(223,48,o),
(223,83,cs),
(223,142,o),
(179,186,o),
(120,186,cs)
);
}
);
width = 240;
},
{
layerId = "D42A05F0-DBDC-4569-915A-03C7188507B6";
shapes = (
{
closed = 1;
nodes = (
(56,10,o),
(53,7,o),
(53,3,cs),
(53,0,o),
(55,-3,o),
(59,-4,c),
(26,-109,l),
(29,-109,l),
(65,-6,ls),
(66,-3,o),
(67,-1,o),
(67,3,cs),
(67,7,o),
(64,10,o),
(60,10,cs)
);
}
);
width = 120;
},
{
layerId = "B2FE45D6-EF48-417F-ACCD-B60D15D1CAF3";
shapes = (
{
closed = 1;
nodes = (
(72,49,o),
(60,36,o),
(60,19,cs),
(60,7,o),
(66,-3,o),
(78,-7,c),
(38,-139,l),
(61,-139,l),
(108,-22,ls),
(113,-9,o),
(120,6,o),
(120,19,cs),
(120,36,o),
(109,49,o),
(90,49,cs)
);
}
);
width = 180;
},
{
layerId = "D92A4C0B-EB2A-4209-AFE3-2959A8B274DD";
shapes = (
{
closed = 1;
nodes = (
(80,127,o),
(50,96,o),
(50,58,cs),
(50,34,o),
(61,13,o),
(78,0,c),
(38,-166,l),
(104,-166,l),
(171,-13,ls),
(184,16,o),
(189,36,o),
(189,58,cs),
(189,96,o),
(159,127,o),
(119,127,cs)
);
}
);
width = 239;
}
);
metricRight = period;
unicode = 44;
}
{
color = 4;
glyphname = hyphen;
layers = (
{
layerId = "B26C53A4-97D1-457B-8232-65310EC64496";
shapes = (
{
closed = 1;
nodes = (
(375,238,l),
(375,388,l),
(35,388,l),
(35,238,l)
);
}
);
width = 410;
},
{
layerId = "D42A05F0-DBDC-4569-915A-03C7188507B6";
shapes = (
{
closed = 1;
nodes = (
(315,311,l),
(315,313,l),
(85,313,l),
(85,311,l)
);
}
);
width = 400;
},
{
layerId = "B2FE45D6-EF48-417F-ACCD-B60D15D1CAF3";
shapes = (
{
closed = 1;
nodes = (
(324,299,l),
(324,327,l),
(75,327,l),
(75,299,l)
);
}
);
width = 399;
},
{
layerId = "D92A4C0B-EB2A-4209-AFE3-2959A8B274DD";
shapes = (
{
closed = 1;
nodes = (
(343,274,l),
(343,352,l),
(60,352,l),
(60,274,l)
);
}
);
width = 403;
}
);
unicode = 45;
}
{
color = 0;
glyphname = period;
layers = (
{
layerId = "B26C53A4-97D1-457B-8232-65310EC64496";
shapes = (
{
closed = 1;
nodes = (
(177,-20,o),
(223,27,o),
(223,83,cs),
(223,139,o),
(177,186,o),
(120,186,cs),
(63,186,o),
(17,139,o),
(17,83,cs),
(17,27,o),
(63,-20,o),
(120,-20,cs)
);
}
);
width = 240;
},
{
layerId = "D42A05F0-DBDC-4569-915A-03C7188507B6";
shapes = (
{
closed = 1;
nodes = (
(64,-4,o),
(67,-1,o),
(67,3,cs),
(67,7,o),
(64,10,o),
(60,10,cs),
(56,10,o),
(53,7,o),
(53,3,cs),
(53,-1,o),
(56,-4,o),
(60,-4,cs)
);
}
);
width = 120;
},
{
layerId = "B2FE45D6-EF48-417F-ACCD-B60D15D1CAF3";
shapes = (
{
closed = 1;
nodes = (
(107,-10,o),
(120,3,o),
(120,20,cs),
(120,37,o),
(107,50,o),
(90,50,cs),
(73,50,o),
(60,37,o),
(60,20,cs),
(60,3,o),
(73,-10,o),
(90,-10,cs)
);
}
);
width = 180;
},
{
layerId = "D92A4C0B-EB2A-4209-AFE3-2959A8B274DD";
shapes = (
{
closed = 1;
nodes = (
(159,-12,o),
(190,19,o),
(190,58,cs),
(190,97,o),
(159,128,o),
(120,128,cs),
(81,128,o),
(50,97,o),
(50,58,cs),
(50,19,o),
(81,-12,o),
(120,-12,cs)
);
}
);
width = 240;
}
);
unicode = 46;
}
{
color = 4;
glyphname = slash;
layers = (
{
layerId = "B26C53A4-97D1-457B-8232-65310EC64496";
shapes = (
{
closed = 1;
nodes = (
(54,-77,l),
(229,-117,l),
(466,782,l),
(292,822,l)
);
}
);
width = 520;
},
{
layerId = "D42A05F0-DBDC-4569-915A-03C7188507B6";
shapes = (
{
closed = 1;
nodes = (
(143,-91,l),
(145,-92,l),
(377,793,l),
(375,794,l)
);
}
);
width = 520;
},
{
layerId = "B2FE45D6-EF48-417F-ACCD-B60D15D1CAF3";
shapes = (
{
closed = 1;
nodes = (
(130,-89,l),
(157,-96,l),
(389,792,l),
(362,799,l)
);
}
);
width = 520;
},
{
layerId = "D92A4C0B-EB2A-4209-AFE3-2959A8B274DD";
shapes = (
{
closed = 1;
nodes = (
(105,-85,l),
(184,-104,l),
(415,789,l),
(337,807,l)
);
}
);
width = 520;
}
);
unicode = 47;
}
{
color = 4;
glyphname = zero;
layers = (
{
layerId = "B26C53A4-97D1-457B-8232-65310EC64496";
shapes = (
{
closed = 1;
nodes = (
(125,696,o),
(27,569,o),
(27,339,cs),
(27,110,o),
(125,-20,o),
(301,-20,cs),
(477,-20,o),
(575,110,o),
(575,339,cs),
(575,569,o),
(477,696,o),
(301,696,cs)
);
},
{
closed = 1;
nodes = (
(356,553,o),
(373,515,o),
(373,339,cs),
(373,164,o),
(356,124,o),
(301,124,cs),
(246,124,o),
(229,170,o),
(229,339,cs),
(229,507,o),
(246,553,o),
(301,553,cs)
);
}
);
width = 602;
},
{
layerId = "D42A05F0-DBDC-4569-915A-03C7188507B6";
shapes = (
{
closed = 1;
nodes = (
(140,670,o),
(80,556,o),
(80,331,cs),
(80,106,o),
(140,-9,o),
(268,-9,cs),
(396,-9,o),
(456,106,o),
(456,331,cs),
(456,556,o),
(396,670,o),
(268,670,cs)
);
},
{
closed = 1;
nodes = (
(395,668,o),
(454,554,o),
(454,331,cs),
(454,108,o),
(395,-7,o),
(268,-7,cs),
(141,-7,o),
(82,108,o),
(82,331,cs),
(82,554,o),
(141,668,o),
(268,668,c)
);
}
);
width = 536;
},
{
layerId = "B2FE45D6-EF48-417F-ACCD-B60D15D1CAF3";
shapes = (
{
closed = 1;
nodes = (
(146,674,o),
(75,560,o),
(75,332,cs),
(75,105,o),
(146,-10,o),
(272,-10,cs),
(397,-10,o),
(468,103,o),
(468,330,cs),
(468,560,o),
(398,674,o),
(272,674,cs)
);
},
{
closed = 1;
nodes = (
(379,646,o),
(437,542,o),
(437,330,cs),
(437,119,o),
(378,18,o),
(272,18,cs),
(166,18,o),
(106,121,o),
(106,332,cs),
(106,544,o),
(167,646,o),
(272,646,cs)
);
}
);
width = 543;
},
{
layerId = "D92A4C0B-EB2A-4209-AFE3-2959A8B274DD";
shapes = (
{
closed = 1;
nodes = (
(129,679,o),
(55,556,o),
(55,334,cs),
(55,112,o),
(129,-12,o),
(279,-12,cs),
(429,-12,o),
(503,112,o),
(503,334,cs),
(503,555,o),
(429,679,o),
(279,679,cs)
);
},
{
closed = 1;
nodes = (
(362,606,o),
(407,530,o),
(407,334,cs),
(407,137,o),
(362,61,o),
(279,61,cs),
(195,61,o),
(151,137,o),
(151,334,cs),
(151,530,o),
(195,606,o),
(279,606,cs)
);
}
);
width = 558;
}
);
unicode = 48;
}
{
color = 4;
glyphname = one;
layers = (
{
layerId = "B26C53A4-97D1-457B-8232-65310EC64496";
shapes = (
{
closed = 1;
nodes = (
(241,680,l),
(0,536,l),
(86,407,l),
(225,492,l),
(225,0,l),
(417,0,l),
(417,680,l)
);
}
);
width = 482;
},
{
layerId = "D42A05F0-DBDC-4569-915A-03C7188507B6";
shapes = (
{
closed = 1;
nodes = (
(243,660,l),
(60,543,l),
(61,541,l),
(243,658,l),
(243,0,l),
(245,0,l),
(245,660,l)
);
}
);
width = 385;
},
{
layerId = "B2FE45D6-EF48-417F-ACCD-B60D15D1CAF3";
shapes = (
{
closed = 1;
nodes = (
(242,662,l),
(50,542,l),
(65,518,l),
(236,626,l),
(236,0,l),
(266,0,l),
(266,662,l)
);
}
);
width = 396;
},
{
layerId = "D92A4C0B-EB2A-4209-AFE3-2959A8B274DD";
shapes = (
{
closed = 1;
nodes = (
(242,669,l),
(35,541,l),
(75,476,l),
(231,571,l),
(231,0,l),
(323,0,l),
(323,669,l)
);
}
);
width = 433;
}
);
unicode = (49,120803);
}
{
color = 4;
glyphname = two;
layers = (
{
layerId = "B26C53A4-97D1-457B-8232-65310EC64496";
shapes = (
{
closed = 1;
nodes = (
(133,696,o),
(49,644,o),
(-5,570,c),
(108,480,l),
(144,526,o),
(177,548,o),
(222,548,cs),
(267,548,o),
(294,520,o),
(294,475,cs),
(294,406,o),
(244,346,o),
(23,136,c),
(23,0,l),
(490,0,l),
(510,148,l),
(247,148,l),
(462,332,o),
(496,404,o),
(496,497,cs),
(496,603,o),
(412,696,o),
(244,696,cs)
);
}
);
width = 530;
},
{
layerId = "D42A05F0-DBDC-4569-915A-03C7188507B6";
shapes = (
{
closed = 1;
nodes = (
(145,670,o),
(98,637,o),
(52,582,c),
(54,581,l),
(100,636,o),
(146,668,o),
(220,668,cs),
(322,668,o),
(384,596,o),
(384,507,cs),
(384,376,o),
(312,301,o),
(50,2,c),
(50,0,l),
(393,0,l),
(393,2,l),
(53,2,l),
(313,300,o),
(386,374,o),
(386,507,cs),
(386,596,o),
(324,670,o),
(220,670,cs)
);
}
);
width = 463;
},
{
layerId = "B2FE45D6-EF48-417F-ACCD-B60D15D1CAF3";
shapes = (
{
closed = 1;
nodes = (
(146,674,o),
(91,645,o),
(40,584,c),
(63,568,l),
(101,615,o),
(151,646,o),
(221,646,cs),
(307,646,o),
(360,590,o),
(360,503,cs),
(360,379,o),
(302,307,o),
(46,29,c),
(46,0,l),
(404,0,l),
(410,30,l),
(84,30,l),
(321,289,o),
(391,367,o),
(391,506,cs),
(391,602,o),
(329,674,o),
(222,674,cs)
);
}
);
width = 465;
},
{
layerId = "D92A4C0B-EB2A-4209-AFE3-2959A8B274DD";
shapes = (
{
closed = 1;
nodes = (
(144,679,o),
(79,645,o),
(25,578,c),
(85,530,l),
(130,581,o),
(167,603,o),
(223,603,cs),
(288,603,o),
(333,562,o),
(333,492,cs),
(333,383,o),
(275,319,o),
(39,73,c),
(39,0,l),
(434,0,l),
(445,77,l),
(144,77,l),
(349,282,o),
(429,371,o),
(429,496,cs),
(429,600,o),
(351,679,o),
(228,679,cs)
);
}
);
width = 495;
}
);
unicode = (50,120804);
}
{
color = 4;
glyphname = three;
layers = (
{
layerId = "B26C53A4-97D1-457B-8232-65310EC64496";
shapes = (
{
closed = 1;
nodes = (
(147,696,o),
(63,662,o),
(-3,598,c),
(94,496,l),
(131,532,o),
(174,553,o),
(222,553,cs),
(269,553,o),
(299,531,o),
(299,490,cs),
(299,448,o),
(272,421,o),
(216,421,cs),
(175,421,l),
(153,289,l),
(213,289,ls),
(279,289,o),
(310,263,o),
(310,206,cs),
(310,154,o),
(271,128,o),
(222,128,cs),
(171,128,o),
(134,147,o),
(88,191,c),
(-15,90,l),
(39,24,o),
(120,-20,o),
(236,-20,cs),
(420,-20,o),
(512,79,o),
(512,189,cs),
(512,301,o),
(439,349,o),
(355,359,c),
(443,386,o),
(489,443,o),
(489,524,cs),
(489,622,o),
(405,696,o),
(247,696,cs)
);
}
);
width = 532;
},
{
layerId = "D42A05F0-DBDC-4569-915A-03C7188507B6";
shapes = (
{
closed = 1;
nodes = (
(157,670,o),
(102,649,o),
(54,599,c),
(56,598,l),
(104,648,o),
(159,668,o),
(216,668,cs),
(314,668,o),
(373,604,o),
(373,513,cs),
(373,404,o),
(295,354,o),
(215,354,cs),
(178,354,l),
(178,352,l),
(212,352,ls),
(320,352,o),
(392,292,o),
(392,178,cs),
(392,70,o),
(320,-7,o),
(212,-7,cs),
(135,-7,o),
(87,16,o),
(37,73,c),
(35,72,l),
(85,15,o),
(134,-9,o),
(212,-9,cs),
(321,-9,o),
(394,68,o),
(394,178,cs),
(394,293,o),
(322,348,o),
(231,353,c),
(304,359,o),
(375,407,o),
(375,513,cs),
(375,605,o),
(316,670,o),
(216,670,cs)
);
}
);
width = 469;
},
{
layerId = "B2FE45D6-EF48-417F-ACCD-B60D15D1CAF3";
shapes = (
{
closed = 1;
nodes = (
(143,674,o),
(91,649,o),
(43,601,c),
(61,581,l),
(111,628,o),
(157,646,o),
(216,646,cs),
(302,646,o),
(358,594,o),
(358,510,cs),
(358,408,o),
(281,365,o),
(209,365,cs),
(177,365,l),
(173,338,l),
(212,338,ls),
(309,338,o),
(375,290,o),
(375,182,cs),
(375,86,o),
(315,18,o),
(206,18,cs),
(144,18,o),
(95,36,o),
(46,90,c),
(25,73,l),
(74,18,o),
(130,-10,o),
(207,-10,cs),
(328,-10,o),
(406,69,o),
(406,183,cs),
(406,292,o),
(338,352,o),
(254,353,c),
(329,362,o),
(389,416,o),
(389,511,cs),
(389,606,o),
(323,674,o),
(217,674,cs)
);
}
);
width = 476;
},
{
layerId = "D92A4C0B-EB2A-4209-AFE3-2959A8B274DD";
shapes = (
{
closed = 1;
nodes = (
(153,679,o),
(91,653,o),
(34,600,c),
(82,545,l),
(127,587,o),
(167,605,o),
(220,605,cs),
(287,605,o),
(331,566,o),
(331,503,cs),
(331,425,o),
(276,385,o),
(210,385,cs),
(176,385,l),
(165,314,l),
(215,314,ls),
(296,314,o),
(348,286,o),
(348,194,cs),
(348,115,o),
(297,63,o),
(213,63,cs),
(159,63,o),
(114,83,o),
(70,129,c),
(15,78,l),
(66,17,o),
(136,-12,o),
(216,-12,cs),
(355,-12,o),
(444,76,o),
(444,193,cs),
(444,294,o),
(377,347,o),
(293,355,c),
(368,373,o),
(423,424,o),
(423,509,cs),
(423,599,o),
(353,679,o),
(225,679,cs)
);
}
);
width = 499;
}
);
unicode = (51,120805);
}
{
color = 4;
glyphname = four;
layers = (
{
layerId = "B26C53A4-97D1-457B-8232-65310EC64496";
shapes = (
{
closed = 1;
nodes = (
(20,263,l),
(20,134,l),
(570,134,l),
(570,280,l),
(223,280,l),
(376,641,l),
(207,701,l)
);
},
{
closed = 1;
nodes = (
(330,428,l),
(306,264,l),
(306,0,l),
(500,0,l),
(500,428,l)
);
}
);
width = 585;
},
{
layerId = "D42A05F0-DBDC-4569-915A-03C7188507B6";
shapes = (
{
closed = 1;
nodes = (
(55,199,l),
(55,196,l),
(453,196,l),
(453,198,l),
(57,198,l),
(266,669,l),
(264,670,l)
);
},
{
closed = 1;
nodes = (
(356,418,l),
(356,197,l),
(356,0,l),
(358,0,l),
(358,418,l)
);
}
);
width = 493;
},
{
layerId = "B2FE45D6-EF48-417F-ACCD-B60D15D1CAF3";
shapes = (
{
closed = 1;
nodes = (
(50,208,l),
(50,183,l),
(467,183,l),
(467,211,l),
(82,211,l),
(280,663,l),
(254,674,l)
);
},
{
closed = 1;
nodes = (
(349,418,l),
(345,204,l),
(345,0,l),
(375,0,l),
(375,418,l)
);
}
);
width = 507;
},
{
layerId = "D92A4C0B-EB2A-4209-AFE3-2959A8B274DD";
shapes = (
{
closed = 1;
nodes = (
(40,231,l),
(40,165,l),
(502,165,l),
(502,238,l),
(137,238,l),
(318,647,l),
(241,679,l)
);
},
{
closed = 1;
nodes = (
(335,418,l),
(326,222,l),
(326,0,l),
(415,0,l),
(415,418,l)
);
}
);
width = 532;
}
);
unicode = (52,120806);
}
{
color = 4;
glyphname = five;
layers = (
{
layerId = "B26C53A4-97D1-457B-8232-65310EC64496";
shapes = (
{
closed = 1;
nodes = (
(50,680,l),
(50,299,l),
(179,299,l),
(208,317,o),
(229,323,o),
(251,323,cs),
(299,323,o),
(330,298,o),
(330,226,cs),
(330,160,o),
(296,126,o),
(237,126,cs),
(185,126,o),
(144,152,o),
(114,192,c),
(5,93,l),
(56,29,o),
(133,-20,o),
(246,-20,cs),
(421,-20,o),
(532,80,o),
(532,229,cs),
(532,373,o),
(445,454,o),
(335,454,cs),
(306,454,o),
(273,448,o),
(240,433,c),
(240,542,l),
(475,542,l),
(496,680,l)
);
}
);
width = 557;
},
{
layerId = "D42A05F0-DBDC-4569-915A-03C7188507B6";
shapes = (
{
closed = 1;
nodes = (
(91,660,l),
(91,360,l),
(94,360,l),
(133,390,o),
(169,407,o),
(226,407,cs),
(335,407,o),
(398,333,o),
(398,213,cs),
(398,86,o),
(334,-7,o),
(211,-7,cs),
(146,-7,o),
(89,20,o),
(52,64,c),
(50,63,l),
(88,18,o),
(145,-9,o),
(211,-9,cs),
(335,-9,o),
(400,84,o),
(400,213,cs),
(400,335,o),
(336,409,o),
(226,409,cs),
(168,409,o),
(128,390,o),
(93,362,c),
(93,658,l),
(379,658,l),
(379,660,l)
);
}
);
width = 470;
},
{
layerId = "B2FE45D6-EF48-417F-ACCD-B60D15D1CAF3";
shapes = (
{
closed = 1;
nodes = (
(86,662,l),
(86,351,l),
(110,351,l),
(151,377,o),
(182,389,o),
(234,389,cs),
(325,389,o),
(388,331,o),
(388,214,cs),
(388,96,o),
(323,18,o),
(221,18,cs),
(150,18,o),
(104,41,o),
(62,85,c),
(40,66,l),
(86,18,o),
(142,-10,o),
(220,-10,cs),
(344,-10,o),
(420,84,o),
(420,214,cs),
(420,340,o),
(349,417,o),
(235,417,cs),
(181,417,o),
(144,400,o),
(116,381,c),
(116,634,l),
(393,634,l),
(399,662,l)
);
}
);
width = 475;
},
{
layerId = "D92A4C0B-EB2A-4209-AFE3-2959A8B274DD";
shapes = (
{
closed = 1;
nodes = (
(71,669,l),
(71,332,l),
(143,332,l),
(175,347,o),
(202,355,o),
(238,355,cs),
(307,355,o),
(360,319,o),
(360,216,cs),
(360,118,o),
(307,63,o),
(223,63,c),
(165,63,o),
(122,84,o),
(80,126,c),
(26,73,l),
(78,20,o),
(139,-12,o),
(224,-12,c),
(363,-12,o),
(456,81,o),
(456,214,cs),
(456,347,o),
(379,426,o),
(266,426,cs),
(230,426,o),
(194,418,o),
(159,400,c),
(159,597,l),
(420,597,l),
(433,669,l)
);
}
);
width = 501;
}
);
unicode = 53;
}
{
color = 4;
glyphname = six;
layers = (
{
layerId = "B26C53A4-97D1-457B-8232-65310EC64496";
shapes = (
{
closed = 1;
nodes = (
(149,696,o),
(27,541,o),
(27,306,cs),
(27,110,o),
(113,-20,o),
(303,-20,cs),
(474,-20,o),
(567,101,o),
(567,233,cs),
(567,377,o),
(486,464,o),
(368,464,cs),
(318,464,o),
(266,446,o),
(222,405,c),
(221,290,l),
(250,320,o),
(281,333,o),
(306,333,cs),
(351,333,o),
(369,308,o),
(369,232,cs),
(369,163,o),
(350,118,o),
(305,118,cs),
(247,118,o),
(233,172,o),
(235,335,c),
(233,392,l),
(240,507,o),
(286,560,o),
(353,560,cs),
(388,560,o),
(413,550,o),
(439,535,c),
(510,650,l),
(472,676,o),
(416,696,o),
(347,696,cs)
);
}
);
width = 582;
},
{
layerId = "D42A05F0-DBDC-4569-915A-03C7188507B6";
shapes = (
{
closed = 1;
nodes = (
(154,670,o),
(80,506,o),
(80,287,cs),
(80,124,o),
(134,-9,o),
(270,-9,cs),
(380,-9,o),
(440,77,o),
(440,222,cs),
(440,356,o),
(374,423,o),
(274,423,cs),
(184,423,o),
(123,359,o),
(82,289,c),
(82,286,l),
(125,358,o),
(185,421,o),
(274,421,cs),
(373,421,o),
(438,355,o),
(438,222,cs),
(438,79,o),
(379,-7,o),
(270,-7,cs),
(135,-7,o),
(82,126,o),
(82,287,c),
(82,288,l),
(82,504,o),
(156,668,o),
(300,668,cs),
(341,668,o),
(372,655,o),
(398,633,c),
(399,635,l),
(373,656,o),
(342,670,o),
(300,670,cs)
);
}
);
width = 505;
},
{
layerId = "B2FE45D6-EF48-417F-ACCD-B60D15D1CAF3";
shapes = (
{
closed = 1;
nodes = (
(163,674,o),
(75,531,o),
(75,289,cs),
(75,127,o),
(127,-10,o),
(275,-10,cs),
(381,-10,o),
(456,75,o),
(456,222,cs),
(456,363,o),
(380,428,o),
(286,428,cs),
(201,428,o),
(142,377,o),
(102,312,c),
(101,266,l),
(142,346,o),
(205,400,o),
(285,400,cs),
(365,400,o),
(425,344,o),
(425,221,cs),
(425,105,o),
(374,18,o),
(275,18,cs),
(150,18,o),
(106,134,o),
(106,293,c),
(106,308,l),
(108,500,o),
(177,646,o),
(303,646,c),
(342,646,o),
(370,635,o),
(400,613,c),
(417,636,l),
(385,659,o),
(352,674,o),
(304,674,c)
);
}
);
width = 516;
},
{
layerId = "D92A4C0B-EB2A-4209-AFE3-2959A8B274DD";
shapes = (
{
closed = 1;
nodes = (
(150,679,o),
(55,533,o),
(55,314,cs),
(55,122,o),
(117,-12,o),
(280,-12,cs),
(398,-12,o),
(493,81,o),
(493,227,cs),
(493,370,o),
(406,440,o),
(308,440,cs),
(240,440,o),
(182,409,o),
(136,335,c),
(139,258,l),
(172,322,o),
(226,367,o),
(292,367,cs),
(355,367,o),
(400,330,o),
(400,224,cs),
(400,126,o),
(359,61,o),
(280,61,cs),
(186,61,o),
(148,137,o),
(148,300,c),
(147,329,l),
(146,495,o),
(205,606,o),
(307,606,cs),
(344,606,o),
(379,596,o),
(410,577,c),
(446,638,l),
(407,664,o),
(362,679,o),
(308,679,cs)
);
}
);
width = 533;
}
);
metricLeft = zero;
unicode = 54;
}
{
color = 4;
glyphname = seven;
layers = (
{
layerId = "B26C53A4-97D1-457B-8232-65310EC64496";
shapes = (
{
closed = 1;
nodes = (
(5,680,l),
(5,534,l),
(264,534,l),
(46,40,l),
(225,-20,l),
(472,550,l),
(472,680,l)
);
}
);
width = 482;
},
{
layerId = "D42A05F0-DBDC-4569-915A-03C7188507B6";
shapes = (
{
closed = 1;
nodes = (
(45,660,l),
(45,658,l),
(383,658,l),
(99,-4,l),
(101,-5,l),
(385,658,l),
(385,660,l)
);
}
);
width = 435;
},
{
layerId = "B2FE45D6-EF48-417F-ACCD-B60D15D1CAF3";
shapes = (
{
closed = 1;
nodes = (
(35,662,l),
(35,634,l),
(358,634,l),
(90,4,l),
(119,-6,l),
(391,637,l),
(391,662,l)
);
}
);
width = 431;
},
{
layerId = "D92A4C0B-EB2A-4209-AFE3-2959A8B274DD";
shapes = (
{
closed = 1;
nodes = (
(25,669,l),
(25,594,l),
(321,594,l),
(80,18,l),
(164,-10,l),
(414,600,l),
(414,669,l)
);
}
);
width = 444;
}
);
unicode = (55,120809);
}
{
color = 4;
glyphname = eight;
layers = (
{
layerId = "B26C53A4-97D1-457B-8232-65310EC64496";
shapes = (
{
closed = 1;
nodes = (
(144,696,o),
(46,615,o),
(46,509,cs),
(46,446,o),
(75,383,o),
(159,335,c),
(251,297,l),
(304,277,ls),
(360,254,o),
(383,233,o),
(383,188,cs),
(383,151,o),
(359,118,o),
(302,118,cs),
(250,118,o),
(216,149,o),
(216,194,cs),
(216,238,o),
(237,278,o),
(281,300,c),
(158,353,l),
(73,321,o),
(20,264,o),
(20,182,cs),
(20,75,o),
(117,-20,o),
(295,-20,cs),
(482,-20,o),
(579,78,o),
(579,185,cs),
(579,263,o),
(535,325,o),
(428,375,c),
(332,410,l),
(293,426,ls),
(252,447,o),
(237,473,o),
(237,506,cs),
(237,548,o),
(263,567,o),
(301,567,cs),
(342,567,o),
(362,542,o),
(362,508,cs),
(362,472,o),
(354,437,o),
(297,402,c),
(429,355,l),
(517,397,o),
(553,463,o),
(553,519,cs),
(553,628,o),
(455,696,o),
(300,696,cs)
);
}
);
width = 599;
},
{
layerId = "D42A05F0-DBDC-4569-915A-03C7188507B6";
shapes = (
{
closed = 1;
nodes = (
(175,670,o),
(100,609,o),
(100,514,cs),
(100,448,o),
(132,403,o),
(227,365,c),
(229,364,l),
(270,348,ls),
(394,300,o),
(451,262,o),
(451,164,cs),
(451,64,o),
(379,-7,o),
(264,-7,cs),
(143,-7,o),
(72,63,o),
(72,169,cs),
(72,261,o),
(125,319,o),
(229,364,c),
(227,365,l),
(125,321,o),
(70,264,o),
(70,169,cs),
(70,61,o),
(143,-9,o),
(264,-9,cs),
(380,-9,o),
(453,62,o),
(453,164,cs),
(453,251,o),
(410,294,o),
(297,339,c),
(295,340,l),
(239,362,ls),
(145,399,o),
(102,439,o),
(102,514,cs),
(102,608,o),
(176,668,o),
(262,668,cs),
(349,668,o),
(423,614,o),
(423,513,cs),
(423,433,o),
(385,388,o),
(295,340,c),
(297,339,l),
(390,388,o),
(425,435,o),
(425,513,cs),
(425,615,o),
(350,670,o),
(262,670,cs)
);
}
);
width = 523;
},
{
layerId = "B2FE45D6-EF48-417F-ACCD-B60D15D1CAF3";
shapes = (
{
closed = 1;
nodes = (
(172,674,o),
(90,614,o),
(90,512,cs),
(90,432,o),
(131,394,o),
(220,358,c),
(236,352,l),
(286,332,ls),
(389,291,o),
(436,257,o),
(436,168,cs),
(436,69,o),
(362,19,o),
(263,19,cs),
(162,19,o),
(91,70,o),
(91,167,cs),
(91,258,o),
(138,313,o),
(257,352,c),
(225,365,l),
(118,331,o),
(60,262,o),
(60,167,cs),
(60,62,o),
(138,-10,o),
(262,-10,cs),
(383,-10,o),
(467,58,o),
(467,168,cs),
(467,263,o),
(418,306,o),
(306,350,c),
(294,355,l),
(243,375,ls),
(145,414,o),
(121,449,o),
(121,511,cs),
(121,598,o),
(185,646,o),
(264,646,cs),
(344,646,o),
(407,600,o),
(407,510,cs),
(407,442,o),
(368,398,o),
(278,354,c),
(305,343,l),
(397,389,o),
(438,436,o),
(438,511,cs),
(438,619,o),
(354,674,o),
(264,674,cs)
);
}
);
width = 527;
},
{
layerId = "D92A4C0B-EB2A-4209-AFE3-2959A8B274DD";
shapes = (
{
closed = 1;
nodes = (
(174,679,o),
(73,620,o),
(73,507,cs),
(73,433,o),
(110,379,o),
(195,343,c),
(217,335,l),
(264,319,ls),
(372,282,o),
(410,250,o),
(410,178,cs),
(410,108,o),
(359,61,o),
(275,61,cs),
(192,61,o),
(141,104,o),
(141,177,cs),
(141,254,o),
(177,302,o),
(251,333,c),
(194,358,l),
(102,322,o),
(45,269,o),
(45,177,cs),
(45,67,o),
(136,-12,o),
(274,-12,cs),
(410,-12,o),
(506,67,o),
(506,179,cs),
(506,268,o),
(450,329,o),
(347,366,c),
(325,374,l),
(287,387,ls),
(210,412,o),
(163,437,o),
(163,506,cs),
(163,573,o),
(207,610,o),
(276,610,cs),
(349,610,o),
(389,569,o),
(389,507,cs),
(389,444,o),
(358,408,o),
(284,371,c),
(346,350,l),
(435,390,o),
(479,437,o),
(479,510,cs),
(479,624,o),
(376,679,o),
(276,679,cs)
);
}
);
width = 551;
}
);
unicode = (56,120810);
}
{
color = 4;
glyphname = nine;
layers = (
{
layerId = "B26C53A4-97D1-457B-8232-65310EC64496";
shapes = (
{
closed = 1;
nodes = (
(369,424,l),
(345,381,o),
(310,363,o),
(279,363,cs),
(245,363,o),
(213,382,o),
(213,466,cs),
(213,530,o),
(244,560,o),
(286,560,cs),
(350,560,o),
(362,514,o),
(358,377,c),
(349,291,l),
(311,184,o),
(238,141,o),
(63,104,c),
(102,-32,l),
(417,20,o),
(562,158,o),
(562,433,cs),
(562,585,o),
(469,696,o),
(288,696,cs),
(132,696,o),
(15,598,o),
(15,456,cs),
(15,314,o),
(107,229,o),
(213,229,cs),
(277,229,o),
(315,250,o),
(353,290,c)
);
}
);
width = 582;
},
{
layerId = "D42A05F0-DBDC-4569-915A-03C7188507B6";
shapes = (
{
closed = 1;
nodes = (
(423,393,l),
(379,310,o),
(317,263,o),
(233,263,cs),
(138,263,o),
(67,338,o),
(67,460,cs),
(67,589,o),
(143,668,o),
(244,668,cs),
(373,668,o),
(422,565,o),
(422,391,c),
(422,389,l),
(420,149,o),
(313,51,o),
(124,-9,c),
(125,-11,l),
(315,48,o),
(424,151,o),
(424,393,cs),
(424,565,o),
(375,670,o),
(244,670,cs),
(141,670,o),
(65,590,o),
(65,460,cs),
(65,337,o),
(137,261,o),
(233,261,cs),
(318,261,o),
(379,308,o),
(423,389,c)
);
}
);
width = 499;
},
{
layerId = "B2FE45D6-EF48-417F-ACCD-B60D15D1CAF3";
shapes = (
{
closed = 1;
nodes = (
(416,401,l),
(366,324,o),
(315,281,o),
(240,281,cs),
(150,281,o),
(92,346,o),
(92,457,cs),
(92,579,o),
(155,646,o),
(253,646,cs),
(368,646,o),
(411,553,o),
(412,390,c),
(412,367,l),
(403,159,o),
(298,67,o),
(117,8,c),
(126,-17,l),
(325,48,o),
(442,148,o),
(442,399,cs),
(442,571,o),
(385,674,o),
(252,674,cs),
(139,674,o),
(60,591,o),
(60,458,cs),
(60,331,o),
(135,253,o),
(237,253,cs),
(313,253,o),
(374,294,o),
(420,369,c)
);
}
);
width = 512;
},
{
layerId = "D92A4C0B-EB2A-4209-AFE3-2959A8B274DD";
shapes = (
{
closed = 1;
nodes = (
(391,414,l),
(358,354,o),
(312,315,o),
(249,315,cs),
(184,315,o),
(138,360,o),
(138,456,cs),
(138,552,o),
(183,606,o),
(261,606,cs),
(347,606,o),
(388,544,o),
(381,379,c),
(380,333,l),
(378,176,o),
(270,96,o),
(98,47,c),
(119,-22,l),
(365,49,o),
(475,142,o),
(475,419,cs),
(475,576,o),
(403,679,o),
(259,679,cs),
(143,679,o),
(45,598,o),
(45,458,cs),
(45,325,o),
(126,243,o),
(230,243,cs),
(303,243,o),
(359,284,o),
(386,333,c)
);
}
);
width = 525;
}
);
unicode = 57;
}
{
color = 4;
glyphname = less;
layers = (
{
layerId = "B26C53A4-97D1-457B-8232-65310EC64496";
shapes = (
{
closed = 1;
nodes = (
(25,416,l),
(25,249,l),
(445,75,l),
(505,215,l),
(196,333,l),
(505,459,l),
(445,591,l)
);
}
);
width = 530;
},
{
layerId = "D42A05F0-DBDC-4569-915A-03C7188507B6";
shapes = (
{
closed = 1;
nodes = (
(90,334,l),
(90,332,l),
(405,175,l),
(406,177,l),
(92,333,l),
(406,485,l),
(405,487,l)
);
}
);
width = 496;
},
{
background = {
shapes = (
{
closed = 1;
nodes = (
(415,165,l),
(428,191,l),
(126,333,l),
(426,476,l),
(415,501,l),
(76,341,l),
(76,325,l)
);
}
);
};
layerId = "B2FE45D6-EF48-417F-ACCD-B60D15D1CAF3";
shapes = (
{
closed = 1;
nodes = (
(75,344,l),
(75,322,l),
(407,152,l),
(419,178,l),
(109,333,l),
(419,484,l),
(407,510,l)
);
}
);
width = 494;
},
{
layerId = "D92A4C0B-EB2A-4209-AFE3-2959A8B274DD";
shapes = (
{
closed = 1;
nodes = (
(50,380,l),
(50,286,l),
(417,115,l),
(450,189,l),
(123,333,l),
(450,475,l),
(417,551,l)
);
}
);
width = 500;
}
);
metricLeft = greater;
metricRight = greater;
unicode = 60;
}
{
color = 4;
glyphname = greater;
layers = (
{
layerId = "B26C53A4-97D1-457B-8232-65310EC64496";
shapes = (
{
closed = 1;
nodes = (
(25,459,l),
(334,333,l),
(25,215,l),
(85,75,l),
(505,249,l),
(505,416,l),
(85,591,l)
);
}
);
width = 530;
},
{
layerId = "D42A05F0-DBDC-4569-915A-03C7188507B6";
shapes = (
{
closed = 1;
nodes = (
(90,485,l),
(404,333,l),
(90,177,l),
(91,175,l),
(406,332,l),
(406,334,l),
(91,487,l)
);
}
);
width = 496;
},
{
layerId = "B2FE45D6-EF48-417F-ACCD-B60D15D1CAF3";
shapes = (
{
closed = 1;
nodes = (
(75,484,l),
(385,333,l),
(75,178,l),
(87,152,l),
(419,322,l),
(419,344,l),
(87,510,l)
);
}
);
width = 494;
},
{
layerId = "D92A4C0B-EB2A-4209-AFE3-2959A8B274DD";
shapes = (
{
closed = 1;
nodes = (
(50,475,l),
(377,333,l),
(50,189,l),
(83,115,l),
(450,286,l),
(450,380,l),
(83,551,l)
);
}
);
width = 500;
}
);
unicode = 62;
}
{
color = 4;
glyphname = question;
layers = (
{
layerId = "B26C53A4-97D1-457B-8232-65310EC64496";
shapes = (
{
closed = 1;
nodes = (
(139,716,o),
(61,670,o),
(5,604,c),
(128,508,l),
(161,543,o),
(197,562,o),
(232,562,cs),
(265,562,o),
(283,548,o),
(283,523,cs),
(283,457,o),
(135,465,o),
(135,289,cs),
(135,270,l),
(311,270,l),
(311,283,ls),
(311,384,o),
(490,378,o),
(490,542,cs),
(490,636,o),
(412,716,o),
(254,716,cs)
);
},
{
closed = 1;
nodes = (
(167,186,o),
(121,139,o),
(121,83,cs),
(121,27,o),
(167,-20,o),
(224,-20,cs),
(281,-20,o),
(327,27,o),
(327,83,cs),
(327,139,o),
(281,186,o),
(224,186,cs)
);
}
);
width = 495;
},
{
background = {
shapes = (
{
closed = 1;
nodes = (
(188,11,o),
(185,8,o),
(185,4,cs),
(185,0,o),
(188,-3,o),
(192,-3,cs),
(196,-3,o),
(199,0,o),
(199,4,cs),
(199,8,o),
(196,11,o),
(192,11,cs)
);
}
);
};
layerId = "D42A05F0-DBDC-4569-915A-03C7188507B6";
shapes = (
{
closed = 1;
nodes = (
(167,690,o),
(115,663,o),
(70,610,c),
(72,608,l),
(116,661,o),
(167,688,o),
(235,688,c),
(317,688,o),
(376,634,o),
(376,556,c),
(376,412,o),
(191,434,o),
(191,271,c),
(191,188,l),
(193,188,l),
(193,271,l),
(193,432,o),
(378,412,o),
(378,556,c),
(378,635,o),
(317,690,o),
(235,690,c)
);
},
{
closed = 1;
nodes = (
(188,10,o),
(185,7,o),
(185,3,cs),
(185,-1,o),
(188,-4,o),
(192,-4,cs),
(196,-4,o),
(199,-1,o),
(199,3,c),
(199,7,o),
(196,10,o),
(192,10,cs)
);
}
);
width = 448;
},
{
layerId = "B2FE45D6-EF48-417F-ACCD-B60D15D1CAF3";
shapes = (
{
closed = 1;
nodes = (
(155,692,o),
(102,664,o),
(50,605,c),
(72,588,l),
(120,640,o),
(162,664,o),
(231,664,cs),
(307,664,o),
(356,620,o),
(356,554,cs),
(356,420,o),
(175,442,o),
(175,274,cs),
(175,208,l),
(204,208,l),
(204,271,ls),
(204,426,o),
(388,407,o),
(388,554,cs),
(388,630,o),
(329,692,o),
(231,692,cs)
);
},
{
closed = 1;
nodes = (
(174,49,o),
(162,36,o),
(162,19,cs),
(162,3,o),
(174,-10,o),
(192,-10,cs),
(211,-10,o),
(222,3,o),
(222,19,cs),
(222,36,o),
(211,49,o),
(192,49,cs)
);
}
);
width = 438;
},
{
layerId = "D92A4C0B-EB2A-4209-AFE3-2959A8B274DD";
shapes = (
{
closed = 1;
nodes = (
(155,701,o),
(87,669,o),
(30,602,c),
(93,553,l),
(134,603,o),
(182,625,o),
(232,625,cs),
(294,625,o),
(333,594,o),
(333,539,cs),
(333,431,o),
(157,448,o),
(157,280,cs),
(157,230,l),
(248,230,l),
(248,275,ls),
(248,406,o),
(429,385,o),
(429,545,cs),
(429,625,o),
(364,701,o),
(238,701,cs)
);
},
{
closed = 1;
nodes = (
(166,127,o),
(136,96,o),
(136,58,cs),
(136,19,o),
(166,-12,o),
(205,-12,cs),
(245,-12,o),
(275,19,o),
(275,58,cs),
(275,96,o),
(245,127,o),
(205,127,cs)
);
}
);
width = 459;
}
);
unicode = 63;
}
{
color = 4;
glyphname = at;
layers = (
{
layerId = "B26C53A4-97D1-457B-8232-65310EC64496";
shapes = (
{
closed = 1;
nodes = (
(245,716,o),
(35,522,o),
(35,243,cs),
(35,-44,o),
(224,-227,o),
(527,-227,cs),
(607,-227,o),
(711,-208,o),
(772,-183,c),
(727,-51,l),
(677,-70,o),
(593,-86,o),
(528,-86,cs),
(316,-86,o),
(208,35,o),
(208,244,cs),
(208,444,o),
(317,577,o),
(526,577,cs),
(729,577,o),
(814,482,o),
(814,319,cs),
(814,154,o),
(781,116,o),
(745,116,cs),
(716,116,o),
(711,140,o),
(711,222,c),
(616,128,l),
(612,71,o),
(663,1,o),
(754,1,cs),
(885,1,o),
(985,129,o),
(985,321,cs),
(985,524,o),
(815,716,o),
(527,716,cs)
);
},
{
closed = 1;
nodes = (
(366,509,o),
(286,393,o),
(286,234,cs),
(286,107,o),
(335,6,o),
(475,6,cs),
(549,6,o),
(600,49,o),
(624,118,c),
(553,170,l),
(545,142,o),
(525,125,o),
(501,125,cs),
(471,125,o),
(460,146,o),
(460,233,cs),
(460,361,o),
(487,389,o),
(517,389,cs),
(527,389,o),
(534,388,o),
(546,383,c),
(546,147,l),
(631,108,l),
(711,173,l),
(711,461,l),
(657,491,o),
(584,509,o),
(528,509,cs)
);
}
);
width = 1020;
},
{
layerId = "D42A05F0-DBDC-4569-915A-03C7188507B6";
shapes = (
{
closed = 1;
nodes = (
(275,691,o),
(108,482,o),
(108,244,c),
(108,-36,o),
(289,-192,o),
(526,-192,c),
(586,-192,o),
(656,-180,o),
(705,-161,c),
(705,-159,l),
(656,-178,o),
(586,-190,o),
(526,-190,c),
(290,-190,o),
(110,-35,o),
(110,244,c),
(110,481,o),
(276,689,o),
(528,689,c),
(786,689,o),
(910,507,o),
(910,309,c),
(910,81,o),
(831,16,o),
(755,16,c),
(687,16,o),
(643,72,o),
(643,175,c),
(641,175,l),
(641,72,o),
(686,14,o),
(755,14,c),
(832,14,o),
(912,80,o),
(912,309,c),
(912,508,o),
(787,691,o),
(528,691,c)
);
},
{
closed = 1;
nodes = (
(425,474,o),
(334,403,o),
(334,231,c),
(334,87,o),
(401,16,o),
(491,16,c),
(563,16,o),
(615,70,o),
(643,169,c),
(641,169,l),
(613,72,o),
(563,18,o),
(491,18,c),
(402,18,o),
(336,88,o),
(336,231,c),
(336,402,o),
(426,472,o),
(520,472,c),
(575,472,o),
(616,455,o),
(641,441,c),
(641,175,l),
(642,174,l),
(643,175,l),
(643,442,l),
(616,457,o),
(575,474,o),
(520,474,c)
);
}
);
width = 1020;
},
{
layerId = "B2FE45D6-EF48-417F-ACCD-B60D15D1CAF3";
shapes = (
{
closed = 1;
nodes = (
(269,692,o),
(97,491,o),
(97,239,cs),
(97,-35,o),
(278,-199,o),
(524,-199,cs),
(612,-199,o),
(664,-184,o),
(719,-165,c),
(711,-138,l),
(656,-159,o),
(601,-171,o),
(525,-171,cs),
(292,-171,o),
(128,-15,o),
(128,239,cs),
(128,477,o),
(289,664,o),
(526,664,cs),
(762,664,o),
(892,501,o),
(892,307,cs),
(892,97,o),
(822,41,o),
(755,41,cs),
(697,41,o),
(660,89,o),
(660,187,c),
(635,159,l),
(639,72,o),
(685,15,o),
(755,15,cs),
(833,15,o),
(923,80,o),
(923,309,cs),
(923,512,o),
(789,692,o),
(526,692,cs)
);
},
{
closed = 1;
nodes = (
(414,478,o),
(323,402,o),
(323,232,cs),
(323,88,o),
(400,17,o),
(487,17,cs),
(561,17,o),
(612,61,o),
(644,142,c),
(631,173,l),
(613,104,o),
(559,45,o),
(489,45,cs),
(411,45,o),
(354,107,o),
(354,232,cs),
(354,370,o),
(421,450,o),
(525,450,cs),
(565,450,o),
(596,441,o),
(630,425,c),
(630,161,l),
(644,132,l),
(660,172,l),
(660,444,l),
(623,462,o),
(575,478,o),
(524,478,cs)
);
}
);
width = 1020;
},
{
layerId = "D92A4C0B-EB2A-4209-AFE3-2959A8B274DD";
shapes = (
{
closed = 1;
nodes = (
(254,701,o),
(70,501,o),
(70,240,cs),
(70,-37,o),
(256,-213,o),
(525,-213,cs),
(616,-213,o),
(677,-197,o),
(743,-174,c),
(718,-103,l),
(664,-122,o),
(601,-137,o),
(526,-137,cs),
(293,-137,o),
(163,19,o),
(163,240,cs),
(163,461,o),
(301,625,o),
(526,625,cs),
(743,625,o),
(857,498,o),
(857,305,cs),
(857,149,o),
(819,80,o),
(751,80,cs),
(708,80,o),
(683,107,o),
(683,193,c),
(621,134,l),
(625,88,o),
(656,9,o),
(753,9,cs),
(888,9,o),
(950,144,o),
(950,307,cs),
(950,516,o),
(804,701,o),
(526,701,cs)
);
},
{
closed = 1;
nodes = (
(400,492,o),
(308,404,o),
(308,231,cs),
(308,99,o),
(374,11,o),
(481,11,cs),
(566,11,o),
(609,70,o),
(629,123,c),
(603,172,l),
(594,147,o),
(568,78,o),
(492,78,cs),
(430,78,o),
(398,131,o),
(398,231,cs),
(398,360,o),
(442,426,o),
(529,426,cs),
(559,426,o),
(580,420,o),
(600,411,c),
(600,149,l),
(632,110,l),
(683,149,l),
(683,452,l),
(627,482,o),
(580,492,o),
(526,492,cs)
);
}
);
width = 1020;
}
);
unicode = 64;
}
{
color = 4;
glyphname = B;
layers = (
{
anchors = (
{
name = bottom;
pos = (310,0);
},
{
name = top;
pos = (291,696);
}
);
layerId = "B26C53A4-97D1-457B-8232-65310EC64496";
shapes = (
{
closed = 1;
nodes = (
(43,696,l),
(43,0,l),
(287,0,ls),
(470,0,o),
(607,41,o),
(607,206,cs),
(607,315,o),
(528,353,o),
(452,369,c),
(514,385,o),
(578,426,o),
(578,516,cs),
(578,652,o),
(455,696,o),
(260,696,cs)
);
},
{
closed = 1;
nodes = (
(345,555,o),
(369,536,o),
(369,495,c),
(369,446,o),
(347,427,o),
(284,427,cs),
(233,427,l),
(233,297,l),
(297,297,ls),
(361,297,o),
(395,274,o),
(395,220,cs),
(395,158,o),
(352,145,o),
(289,145,cs),
(249,145,l),
(249,555,l),
(279,555,ls)
);
}
);
width = 622;
},
{
anchors = (
{
name = bottom;
pos = (310,0);
},
{
name = top;
pos = (281,680);
}
);
layerId = "D42A05F0-DBDC-4569-915A-03C7188507B6";
shapes = (
{
closed = 1;
nodes = (
(130,680,l),
(130,0,l),
(287,0,ls),
(417,0,o),
(516,46,o),
(516,183,cs),
(516,294,o),
(432,355,o),
(336,360,c),
(414,370,o),
(478,428,o),
(478,513,cs),
(478,619,o),
(403,680,o),
(264,680,cs)
);
},
{
closed = 1;
nodes = (
(403,678,o),
(476,617,o),
(476,513,cs),
(476,429,o),
(408,361,o),
(312,361,cs),
(131,361,l),
(131,359,l),
(317,359,ls),
(430,359,o),
(514,292,o),
(514,183,cs),
(514,46,o),
(415,2,o),
(288,2,cs),
(132,2,l),
(132,678,l),
(265,678,ls)
);
}
);
width = 581;
},
{
anchors = (
{
name = bottom;
pos = (310,0);
},
{
name = top;
pos = (291,682);
}
);
layerId = "B2FE45D6-EF48-417F-ACCD-B60D15D1CAF3";
shapes = (
{
closed = 1;
nodes = (
(120,682,l),
(120,0,l),
(304,0,ls),
(447,0,o),
(529,67,o),
(529,185,cs),
(529,304,o),
(457,357,o),
(372,362,c),
(447,375,o),
(495,422,o),
(495,513,cs),
(495,626,o),
(410,682,o),
(264,682,cs)
);
},
{
closed = 1;
nodes = (
(393,653,o),
(463,609,o),
(463,512,cs),
(463,426,o),
(405,374,o),
(317,374,cs),
(144,374,l),
(144,346,l),
(322,346,ls),
(424,346,o),
(497,295,o),
(497,185,cs),
(497,81,o),
(425,29,o),
(305,29,cs),
(151,29,l),
(151,653,l),
(268,653,ls)
);
}
);
width = 589;
},
{
anchors = (
{
name = bottom;
pos = (310,0);
},
{
name = top;
pos = (301,689);
}
);
layerId = "D92A4C0B-EB2A-4209-AFE3-2959A8B274DD";
shapes = (
{
closed = 1;
nodes = (
(100,689,l),
(100,0,l),
(290,0,ls),
(450,0,o),
(563,50,o),
(563,196,cs),
(563,313,o),
(484,350,o),
(404,364,c),
(471,378,o),
(533,430,o),
(533,515,cs),
(533,635,o),
(433,689,o),
(263,689,cs)
);
},
{
closed = 1;
nodes = (
(375,614,o),
(436,593,o),
(436,508,cs),
(436,435,o),
(376,397,o),
(299,397,cs),
(179,397,l),
(179,324,l),
(308,324,ls),
(391,324,o),
(463,293,o),
(463,196,cs),
(463,96,o),
(390,76,o),
(290,76,cs),
(195,76,l),
(195,614,l),
(273,614,ls)
);
}
);
width = 608;
}
);
metricLeft = H;
unicode = 66;
}
{
color = 4;
glyphname = C;
layers = (
{
anchors = (
{
name = bottom;
pos = (339,0);
},
{
name = center;
pos = (375,354);
},
{
name = top;
pos = (358,696);
}
);
layerId = "B26C53A4-97D1-457B-8232-65310EC64496";
shapes = (
{
closed = 1;
nodes = (
(157,716,o),
(20,582,o),
(20,350,cs),
(20,109,o),
(151,-20,o),
(354,-20,cs),
(452,-20,o),
(533,26,o),
(584,77,c),
(494,193,l),
(453,161,o),
(415,135,o),
(366,135,cs),
(283,135,o),
(234,203,o),
(234,350,cs),
(234,497,o),
(282,568,o),
(362,568,cs),
(408,568,o),
(445,549,o),
(479,520,c),
(576,634,l),
(516,686,o),
(444,716,o),
(352,716,cs)
);
}
);
userData = {
math = {
topAccent = 358;
};
};
width = 584;
},
{
anchors = (
{
name = bottom;
pos = (341,0);
},
{
name = center;
pos = (323,341);
},
{
name = top;
pos = (343,680);
}
);
layerId = "D42A05F0-DBDC-4569-915A-03C7188507B6";
shapes = (
{
closed = 1;
nodes = (
(191,690,o),
(85,577,o),
(85,339,cs),
(85,114,o),
(188,-9,o),
(341,-9,cs),
(423,-9,o),
(471,23,o),
(503,50,c),
(502,52,l),
(470,25,o),
(422,-7,o),
(341,-7,cs),
(190,-7,o),
(87,115,o),
(87,339,cs),
(87,575,o),
(193,688,o),
(342,688,cs),
(415,688,o),
(458,662,o),
(493,631,c),
(494,633,l),
(459,664,o),
(416,690,o),
(342,690,cs)
);
}
);
userData = {
math = {
topAccent = 343;
};
};
width = 529;
},
{
anchors = (
{
name = bottom;
pos = (341,0);
},
{
name = center;
pos = (328,344);
},
{
name = top;
pos = (342,682);
}
);
layerId = "B2FE45D6-EF48-417F-ACCD-B60D15D1CAF3";
shapes = (
{
closed = 1;
nodes = (
(196,692,o),
(75,577,o),
(75,341,cs),
(75,112,o),
(190,-10,o),
(342,-10,cs),
(420,-10,o),
(473,17,o),
(517,55,c),
(498,78,l),
(457,44,o),
(418,20,o),
(343,20,cs),
(212,20,o),
(107,126,o),
(107,341,cs),
(107,568,o),
(215,663,o),
(347,663,cs),
(409,663,o),
(445,647,o),
(492,611,c),
(509,633,l),
(465,669,o),
(420,692,o),
(345,692,cs)
);
}
);
userData = {
math = {
topAccent = 342;
};
};
width = 542;
},
{
anchors = (
{
name = bottom;
pos = (346,0);
},
{
name = center;
pos = (341,346);
},
{
name = top;
pos = (347,689);
}
);
layerId = "D92A4C0B-EB2A-4209-AFE3-2959A8B274DD";
shapes = (
{
closed = 1;
nodes = (
(185,701,o),
(55,578,o),
(55,345,cs),
(55,113,o),
(176,-12,o),
(343,-12,cs),
(436,-12,o),
(502,26,o),
(540,65,c),
(492,126,l),
(453,97,o),
(411,68,o),
(346,68,cs),
(239,68,o),
(156,146,o),
(156,345,cs),
(156,553,o),
(243,623,o),
(347,623,cs),
(395,623,o),
(437,607,o),
(480,572,c),
(532,633,l),
(477,677,o),
(428,701,o),
(341,701,cs)
);
}
);
userData = {
math = {
topAccent = 347;
};
};
width = 560;
}
);
metricLeft = O;
unicode = 67;
}
{
color = 4;
glyphname = D;
layers = (
{
anchors = (
{
name = bottom;
pos = (310,0);
},
{
name = center;
pos = (328,348);
},
{
name = top;
pos = (291,696);
}
);
layerId = "B26C53A4-97D1-457B-8232-65310EC64496";
shapes = (
{
closed = 1;
nodes = (
(43,696,l),
(43,0,l),
(278,0,ls),
(472,0,o),
(636,73,o),
(636,351,cs),
(636,637,o),
(457,696,o),
(266,696,cs)
);
},
{
closed = 1;
nodes = (
(379,551,o),
(424,509,o),
(424,351,cs),
(424,193,o),
(383,145,o),
(290,145,cs),
(249,145,l),
(249,551,l),
(291,551,ls)
);
}
);
userData = {
math = {
topAccent = 291;
};
};
width = 656;
},
{
anchors = (
{
name = bottom;
pos = (310,0);
},
{
name = center;
pos = (309,340);
},
{
name = top;
pos = (289,680);
}
);
layerId = "D42A05F0-DBDC-4569-915A-03C7188507B6";
shapes = (
{
closed = 1;
nodes = (
(130,680,l),
(130,0,l),
(241,0,ls),
(380,0,o),
(528,69,o),
(528,348,cs),
(528,626,o),
(378,680,o),
(234,680,cs)
);
},
{
closed = 1;
nodes = (
(377,678,o),
(526,624,o),
(526,348,cs),
(526,71,o),
(380,2,o),
(241,2,cs),
(132,2,l),
(132,678,l),
(234,678,ls)
);
}
);
userData = {
math = {
topAccent = 289;
};
};
width = 613;
},
{
anchors = (
{
name = bottom;
pos = (300,0);
},
{
name = center;
pos = (317,341);
},
{
name = top;
pos = (297,682);
}
);
layerId = "B2FE45D6-EF48-417F-ACCD-B60D15D1CAF3";
shapes = (
{
closed = 1;
nodes = (
(120,682,l),
(120,0,l),
(252,0,ls),
(386,0,o),
(547,61,o),
(547,348,cs),
(547,627,o),
(395,682,o),
(249,682,cs)
);
},
{
closed = 1;
nodes = (
(375,653,o),
(515,614,o),
(515,348,cs),
(515,87,o),
(380,29,o),
(253,29,cs),
(151,29,l),
(151,653,l),
(246,653,ls)
);
}
);
userData = {
math = {
topAccent = 297;
};
};
width = 622;
},
{
anchors = (
{
name = bottom;
pos = (300,0);
},
{
name = center;
pos = (323,345);
},
{
name = top;
pos = (303,689);
}
);
layerId = "D92A4C0B-EB2A-4209-AFE3-2959A8B274DD";
shapes = (
{
closed = 1;
nodes = (
(100,689,l),
(100,0,l),
(265,0,ls),
(414,0,o),
(589,67,o),
(589,348,cs),
(589,634,o),
(420,689,o),
(244,689,cs)
);
},
{
closed = 1;
nodes = (
(375,613,o),
(488,581,o),
(488,348,cs),
(488,121,o),
(380,75,o),
(272,75,cs),
(195,75,l),
(195,613,l),
(265,613,ls)
);
}
);
userData = {
math = {
topAccent = 303;
};
};
width = 644;
}
);
metricLeft = H;
metricRight = O;
unicode = (68,120227);
}
{
color = 4;
glyphname = E;
layers = (
{
anchors = (
{
name = bottom;
pos = (269,0);
},
{
name = ogonek;
pos = (465,0);
},
{
name = top;
pos = (272,696);
},
{
name = topleft;
pos = (43,696);
}
);
background = {
shapes = (
{
closed = 1;
nodes = (
(43,696,l),
(43,0,l),
(495,0,l),
(495,144,l),
(249,144,l),
(249,284,l),
(451,284,l),
(451,423,l),
(249,423,l),
(249,553,l),
(479,553,l),
(500,696,l)
);
}
);
};
layerId = "B26C53A4-97D1-457B-8232-65310EC64496";
shapes = (
{
closed = 1;
nodes = (
(43,696,l),
(43,0,l),
(495,0,l),
(495,144,l),
(249,144,l),
(249,284,l),
(451,284,l),
(451,423,l),
(249,423,l),
(249,553,l),
(479,553,l),
(500,696,l)
);
}
);
userData = {
math = {
topAccent = 272;
};
};
width = 520;
},
{
anchors = (
{
name = bottom;
pos = (284,0);
},
{
name = ogonek;
pos = (425,0);
},
{
name = top;
pos = (284,680);
},
{
name = topleft;
pos = (80,680);
}
);
layerId = "D42A05F0-DBDC-4569-915A-03C7188507B6";
shapes = (
{
closed = 1;
nodes = (
(130,680,l),
(130,0,l),
(445,0,l),
(445,2,l),
(132,2,l),
(132,360,l),
(392,360,l),
(392,362,l),
(132,362,l),
(132,678,l),
(435,678,l),
(435,680,l)
);
}
);
userData = {
math = {
topAccent = 284;
};
};
width = 495;
},
{
anchors = (
{
name = bottom;
pos = (283,0);
},
{
name = ogonek;
pos = (438,0);
},
{
name = top;
pos = (288,682);
},
{
name = topleft;
pos = (90,682);
}
);
background = {
shapes = (
{
closed = 1;
nodes = (
(114,682,l),
(114,0,l),
(447,0,l),
(447,30,l),
(145,30,l),
(145,344,l),
(397,344,l),
(397,374,l),
(145,374,l),
(145,652,l),
(435,652,l),
(439,682,l)
);
}
);
};
layerId = "B2FE45D6-EF48-417F-ACCD-B60D15D1CAF3";
shapes = (
{
closed = 1;
nodes = (
(120,682,l),
(120,0,l),
(453,0,l),
(453,29,l),
(151,29,l),
(151,345,l),
(403,345,l),
(403,373,l),
(151,373,l),
(151,653,l),
(443,653,l),
(447,682,l)
);
}
);
userData = {
math = {
topAccent = 288;
};
};
width = 493;
},
{
anchors = (
{
name = bottom;
pos = (291,0);
},
{
name = ogonek;
pos = (451,0);
},
{
name = top;
pos = (290,689);
},
{
name = topleft;
pos = (90,689);
}
);
layerId = "D92A4C0B-EB2A-4209-AFE3-2959A8B274DD";
shapes = (
{
closed = 1;
nodes = (
(100,689,l),
(100,0,l),
(481,0,l),
(481,76,l),
(195,76,l),
(195,312,l),
(427,312,l),
(427,388,l),
(195,388,l),
(195,613,l),
(462,613,l),
(473,689,l)
);
}
);
userData = {
math = {
topAccent = 290;
};
};
width = 535;
}
);
metricLeft = H;
unicode = 69;
}
{
color = 4;
glyphname = F;
layers = (
{
anchors = (
{
name = bottom;
pos = (146,0);
},
{
name = top;
pos = (274,696);
}
);
layerId = "B26C53A4-97D1-457B-8232-65310EC64496";
shapes = (
{
closed = 1;
nodes = (
(249,0,l),
(249,258,l),
(438,258,l),
(438,401,l),
(249,401,l),
(249,553,l),
(464,553,l),
(485,696,l),
(43,696,l),
(43,0,l)
);
}
);
userData = {
math = {
topAccent = 274;
};
};
width = 485;
},
{
anchors = (
{
name = bottom;
pos = (131,0);
},
{
name = top;
pos = (290,680);
}
);
layerId = "D42A05F0-DBDC-4569-915A-03C7188507B6";
shapes = (
{
closed = 1;
nodes = (
(132,0,l),
(132,345,l),
(390,345,l),
(390,347,l),
(132,347,l),
(132,678,l),
(430,678,l),
(430,680,l),
(130,680,l),
(130,0,l)
);
}
);
userData = {
math = {
topAccent = 290;
};
};
width = 470;
},
{
anchors = (
{
name = bottom;
pos = (136,0);
},
{
name = top;
pos = (291,682);
}
);
layerId = "B2FE45D6-EF48-417F-ACCD-B60D15D1CAF3";
shapes = (
{
closed = 1;
nodes = (
(151,0,l),
(151,331,l),
(399,331,l),
(399,359,l),
(151,359,l),
(151,653,l),
(438,653,l),
(442,682,l),
(120,682,l),
(120,0,l)
);
}
);
userData = {
math = {
topAccent = 291;
};
};
width = 472;
},
{
anchors = (
{
name = bottom;
pos = (148,0);
},
{
name = top;
pos = (293,689);
}
);
layerId = "D92A4C0B-EB2A-4209-AFE3-2959A8B274DD";
shapes = (
{
closed = 1;
nodes = (
(195,0,l),
(195,303,l),
(420,303,l),
(420,378,l),
(195,378,l),
(195,613,l),
(455,613,l),
(466,689,l),
(100,689,l),
(100,0,l)
);
}
);
userData = {
math = {
topAccent = 293;
};
};
width = 491;
}
);
metricLeft = H;
unicode = (70,120229);
}
{
color = 4;
glyphname = G;
layers = (
{
anchors = (
{
name = bottom;
pos = (350,0);
},
{
name = top;
pos = (350,696);
}
);
layerId = "B26C53A4-97D1-457B-8232-65310EC64496";
shapes = (
{
closed = 1;
nodes = (
(170,716,o),
(20,585,o),
(20,349,cs),
(20,112,o),
(122,-20,o),
(355,-20,cs),
(442,-20,o),
(543,9,o),
(618,60,c),
(618,409,l),
(331,409,l),
(350,270,l),
(420,270,l),
(420,143,l),
(398,132,o),
(376,126,o),
(349,126,cs),
(268,126,o),
(232,176,o),
(232,348,cs),
(232,501,o),
(287,572,o),
(383,572,cs),
(436,572,o),
(472,554,o),
(518,521,c),
(618,625,l),
(561,675,o),
(478,716,o),
(371,716,cs)
);
}
);
width = 653;
},
{
anchors = (
{
name = bottom;
pos = (338,0);
},
{
name = top;
pos = (337,680);
}
);
layerId = "D42A05F0-DBDC-4569-915A-03C7188507B6";
shapes = (
{
closed = 1;
nodes = (
(217,690,o),
(85,582,o),
(85,345,cs),
(85,114,o),
(190,-9,o),
(353,-9,cs),
(423,-9,o),
(479,15,o),
(519,39,c),
(519,342,l),
(366,342,l),
(366,340,l),
(517,340,l),
(517,40,l),
(479,17,o),
(424,-7,o),
(353,-7,cs),
(190,-7,o),
(87,116,o),
(87,345,cs),
(87,580,o),
(218,688,o),
(343,688,cs),
(404,688,o),
(452,669,o),
(499,633,c),
(500,635,l),
(452,671,o),
(405,690,o),
(343,690,cs)
);
}
);
width = 599;
},
{
anchors = (
{
name = bottom;
pos = (337,0);
},
{
name = top;
pos = (349,682);
}
);
layerId = "B2FE45D6-EF48-417F-ACCD-B60D15D1CAF3";
shapes = (
{
closed = 1;
nodes = (
(215,692,o),
(75,583,o),
(75,345,cs),
(75,109,o),
(189,-10,o),
(353,-10,cs),
(416,-10,o),
(481,8,o),
(538,42,c),
(538,359,l),
(360,359,l),
(364,330,l),
(507,330,l),
(507,58,l),
(462,33,o),
(418,19,o),
(353,19,cs),
(207,19,o),
(107,125,o),
(107,345,cs),
(107,574,o),
(233,663,o),
(348,663,cs),
(411,663,o),
(456,646,o),
(504,609,c),
(523,631,l),
(470,672,o),
(422,692,o),
(348,692,cs)
);
}
);
width = 608;
},
{
anchors = (
{
name = bottom;
pos = (343,0);
},
{
name = top;
pos = (355,689);
}
);
layerId = "D92A4C0B-EB2A-4209-AFE3-2959A8B274DD";
shapes = (
{
closed = 1;
nodes = (
(197,701,o),
(55,577,o),
(55,345,cs),
(55,107,o),
(166,-12,o),
(337,-12,cs),
(434,-12,o),
(506,12,o),
(569,49,c),
(569,382,l),
(342,382,l),
(353,305,l),
(475,305,l),
(475,98,l),
(436,75,o),
(390,66,o),
(344,66,cs),
(223,66,o),
(156,147,o),
(156,345,cs),
(156,548,o),
(255,623,o),
(354,623,cs),
(416,623,o),
(457,606,o),
(505,567,c),
(561,625,l),
(502,674,o),
(445,701,o),
(352,701,cs)
);
}
);
userData = {
math = {
topAccent = 312;
};
};
width = 631;
}
);
metricLeft = O;
unicode = 71;
}
{
color = 4;
glyphname = H;
layers = (
{
anchors = (
{
name = bottom;
pos = (329,0);
},
{
name = bottomright;
pos = (624,0);
},
{
name = center;
pos = (329,348);
},
{
name = top;
pos = (329,696);
},
{
name = topleft;
pos = (43,696);
}
);
layerId = "B26C53A4-97D1-457B-8232-65310EC64496";
shapes = (
{
closed = 1;
nodes = (
(614,0,l),
(614,696,l),
(408,696,l),
(408,439,l),
(249,439,l),
(249,696,l),
(43,696,l),
(43,0,l),
(249,0,l),
(249,281,l),
(408,281,l),
(408,0,l)
);
}
);
userData = {
math = {
topAccent = 329;
};
};
width = 657;
},
{
anchors = (
{
name = bottom;
pos = (327,0);
},
{
name = bottomright;
pos = (534,0);
},
{
name = center;
pos = (326,340);
},
{
name = top;
pos = (326,680);
},
{
name = topleft;
pos = (80,680);
}
);
layerId = "D42A05F0-DBDC-4569-915A-03C7188507B6";
shapes = (
{
closed = 1;
nodes = (
(524,0,l),
(524,680,l),
(522,680,l),
(522,362,l),
(132,362,l),
(132,680,l),
(130,680,l),
(130,0,l),
(132,0,l),
(132,360,l),
(522,360,l),
(522,0,l)
);
}
);
userData = {
math = {
topAccent = 326;
};
};
width = 654;
},
{
anchors = (
{
name = bottom;
pos = (331,0);
},
{
name = bottomright;
pos = (552,0);
},
{
name = center;
pos = (329,341);
},
{
name = top;
pos = (329,682);
},
{
name = topleft;
pos = (90,682);
}
);
layerId = "B2FE45D6-EF48-417F-ACCD-B60D15D1CAF3";
shapes = (
{
closed = 1;
nodes = (
(542,0,l),
(542,682,l),
(511,682,l),
(511,374,l),
(151,374,l),
(151,682,l),
(120,682,l),
(120,0,l),
(151,0,l),
(151,345,l),
(511,345,l),
(511,0,l)
);
}
);
userData = {
math = {
topAccent = 329;
};
};
width = 662;
},
{
anchors = (
{
name = bottom;
pos = (340,0);
},
{
name = bottomright;
pos = (590,0);
},
{
name = center;
pos = (340,345);
},
{
name = top;
pos = (340,689);
},
{
name = topleft;
pos = (90,689);
}
);
layerId = "D92A4C0B-EB2A-4209-AFE3-2959A8B274DD";
shapes = (
{
closed = 1;
nodes = (
(580,0,l),
(580,689,l),
(485,689,l),
(485,401,l),
(195,401,l),
(195,689,l),
(100,689,l),
(100,0,l),
(195,0,l),
(195,323,l),
(485,323,l),
(485,0,l)
);
}
);
userData = {
math = {
topAccent = 340;
};
};
width = 680;
}
);
unicode = (72,120231);
}
{
color = 4;
glyphname = I;
layers = (
{
anchors = (
{
name = bottom;
pos = (146,0);
},
{
name = ogonek;
pos = (213,0);
},
{
name = top;
pos = (146,696);
},
{
name = topleft;
pos = (43,696);
}
);
layerId = "B26C53A4-97D1-457B-8232-65310EC64496";
shapes = (
{
closed = 1;
nodes = (
(43,696,l),
(43,0,l),
(249,0,l),
(249,696,l)
);
}
);
width = 292;
},
{
anchors = (
{
name = bottom;
pos = (131,0);
},
{
name = ogonek;
pos = (142,0);
},
{
name = top;
pos = (131,680);
},
{
name = topleft;
pos = (80,680);
}
);
layerId = "D42A05F0-DBDC-4569-915A-03C7188507B6";
shapes = (
{
closed = 1;
nodes = (
(130,680,l),
(130,0,l),
(132,0,l),
(132,680,l)
);
}
);
width = 262;
},
{
anchors = (
{
name = bottom;
pos = (136,0);
},
{
name = ogonek;
pos = (161,0);
},
{
name = top;
pos = (135,682);
},
{
name = topleft;
pos = (90,682);
}
);
layerId = "B2FE45D6-EF48-417F-ACCD-B60D15D1CAF3";
shapes = (
{
closed = 1;
nodes = (
(120,682,l),
(120,0,l),
(151,0,l),
(151,682,l)
);
}
);
width = 271;
},
{
anchors = (
{
name = bottom;
pos = (147,0);
},
{
name = ogonek;
pos = (205,0);
},
{
name = top;
pos = (147,689);
},
{
name = topleft;
pos = (90,689);
}
);
layerId = "D92A4C0B-EB2A-4209-AFE3-2959A8B274DD";
shapes = (
{
closed = 1;
nodes = (
(100,689,l),
(100,0,l),
(195,0,l),
(195,689,l)
);
}
);
userData = {
math = {
topAccent = 148;
};
};
width = 295;
}
);
metricLeft = H;
metricRight = H;
unicode = 73;
}
{
color = 4;
glyphname = J;
layers = (
{
anchors = (
{
name = bottom;
pos = (162,-215);
},
{
name = math.ta;
pos = (181,0);
},
{
name = top;
pos = (181,696);
}
);
layerId = "B26C53A4-97D1-457B-8232-65310EC64496";
shapes = (
{
closed = 1;
nodes = (
(78,696,l),
(78,118,ls),
(78,41,o),
(69,-10,o),
(-20,-44,c),
(35,-189,l),
(156,-149,o),
(284,-83,o),
(284,111,cs),
(284,696,l)
);
}
);
width = 325;
},
{
anchors = (
{
name = bottom;
pos = (137,-188);
},
{
name = math.ta;
pos = (150,0);
},
{
name = top;
pos = (150,680);
}
);
layerId = "D42A05F0-DBDC-4569-915A-03C7188507B6";
shapes = (
{
closed = 1;
nodes = (
(148,680,l),
(148,85,ls),
(148,-6,o),
(129,-49,o),
(30,-89,c),
(31,-91,l),
(131,-50,o),
(150,-7,o),
(150,85,cs),
(150,680,l)
);
}
);
width = 273;
},
{
anchors = (
{
name = bottom;
pos = (140,-193);
},
{
name = math.ta;
pos = (147,0);
},
{
name = top;
pos = (147,682);
}
);
layerId = "B2FE45D6-EF48-417F-ACCD-B60D15D1CAF3";
shapes = (
{
closed = 1;
nodes = (
(134,682,l),
(134,90,ls),
(134,-3,o),
(111,-37,o),
(20,-81,c),
(29,-104,l),
(141,-54,o),
(165,-15,o),
(165,88,cs),
(165,682,l)
);
}
);
width = 279;
},
{
anchors = (
{
name = bottom;
pos = (152,-202);
},
{
name = math.ta;
pos = (163,0);
},
{
name = top;
pos = (163,689);
}
);
layerId = "D92A4C0B-EB2A-4209-AFE3-2959A8B274DD";
shapes = (
{
closed = 1;
nodes = (
(115,689,l),
(115,100,ls),
(115,8,o),
(96,-32,o),
(5,-68,c),
(30,-137,l),
(141,-102,o),
(210,-48,o),
(210,96,cs),
(210,689,l)
);
}
);
width = 305;
}
);
metricRight = "=H*0.95";
unicode = (74,120233);
}
{
color = 4;
glyphname = K;
layers = (
{
anchors = (
{
name = bottom;
pos = (330,0);
},
{
name = top;
pos = (330,696);
}
);
layerId = "B26C53A4-97D1-457B-8232-65310EC64496";
shapes = (
{
closed = 1;
nodes = (
(449,696,l),
(255,371,l),
(445,0,l),
(679,0,l),
(464,387,l),
(661,696,l)
);
},
{
closed = 1;
nodes = (
(43,696,l),
(43,0,l),
(249,0,l),
(249,696,l)
);
}
);
userData = {
math = {
topAccent = 330;
};
};
width = 659;
},
{
anchors = (
{
name = bottom;
pos = (284,0);
},
{
name = top;
pos = (284,680);
}
);
layerId = "D42A05F0-DBDC-4569-915A-03C7188507B6";
shapes = (
{
closed = 1;
nodes = (
(470,680,l),
(135,366,l),
(486,0,l),
(489,0,l),
(138,366,l),
(473,680,l)
);
},
{
closed = 1;
nodes = (
(130,680,l),
(130,1,l),
(132,1,l),
(132,680,l)
);
}
);
userData = {
math = {
topAccent = 284;
};
};
width = 504;
},
{
anchors = (
{
name = bottom;
pos = (300,0);
},
{
name = top;
pos = (290,682);
}
);
layerId = "B2FE45D6-EF48-417F-ACCD-B60D15D1CAF3";
shapes = (
{
closed = 1;
nodes = (
(460,682,l),
(154,367,l),
(475,0,l),
(513,0,l),
(194,367,l),
(497,682,l)
);
},
{
closed = 1;
nodes = (
(120,682,l),
(120,0,l),
(151,0,l),
(151,682,l)
);
}
);
userData = {
math = {
topAccent = 290;
};
};
width = 513;
},
{
anchors = (
{
name = bottom;
pos = (315,0);
},
{
name = top;
pos = (328,689);
}
);
layerId = "D92A4C0B-EB2A-4209-AFE3-2959A8B274DD";
shapes = (
{
closed = 1;
nodes = (
(462,689,l),
(200,368,l),
(472,0,l),
(589,0,l),
(309,374,l),
(570,689,l)
);
},
{
closed = 1;
nodes = (
(100,689,l),
(100,0,l),
(195,0,l),
(195,689,l)
);
}
);
userData = {
math = {
topAccent = 328;
};
};
width = 589;
}
);
metricLeft = H;
unicode = (75,120234);
}
{
color = 4;
glyphname = L;
layers = (
{
anchors = (
{
name = bottom;
pos = (267,0);
},
{
name = center;
pos = (403,404);
},
{
name = top;
pos = (146,696);
},
{
name = topright;
pos = (259,696);
}
);
background = {
shapes = (
{
closed = 1;
nodes = (
(43,696,l),
(43,0,l),
(491,0,l),
(512,158,l),
(249,158,l),
(249,696,l)
);
}
);
};
layerId = "B26C53A4-97D1-457B-8232-65310EC64496";
shapes = (
{
closed = 1;
nodes = (
(43,696,l),
(43,0,l),
(491,0,l),
(512,158,l),
(249,158,l),
(249,696,l)
);
}
);
userData = {
math = {
topAccent = 146;
};
};
width = 522;
},
{
anchors = (
{
name = bottom;
pos = (275,0);
},
{
name = center;
pos = (350,355);
},
{
name = top;
pos = (131,680);
},
{
name = topright;
pos = (182,680);
}
);
layerId = "D42A05F0-DBDC-4569-915A-03C7188507B6";
shapes = (
{
closed = 1;
nodes = (
(130,680,l),
(130,0,l),
(420,0,l),
(420,2,l),
(132,2,l),
(132,680,l)
);
}
);
userData = {
math = {
topAccent = 131;
};
};
width = 445;
},
{
anchors = (
{
name = bottom;
pos = (281,0);
},
{
name = center;
pos = (352,354);
},
{
name = top;
pos = (136,682);
},
{
name = topright;
pos = (181,682);
}
);
background = {
shapes = (
{
closed = 1;
nodes = (
(114,682,l),
(114,0,l),
(428,0,l),
(434,32,l),
(145,32,l),
(145,682,l)
);
}
);
};
layerId = "B2FE45D6-EF48-417F-ACCD-B60D15D1CAF3";
shapes = (
{
closed = 1;
nodes = (
(120,682,l),
(120,0,l),
(434,0,l),
(440,30,l),
(151,30,l),
(151,682,l)
);
}
);
userData = {
math = {
topAccent = 136;
};
};
width = 460;
},
{
anchors = (
{
name = bottom;
pos = (284,0);
},
{
name = center;
pos = (390,390);
},
{
name = top;
pos = (148,689);
},
{
name = topright;
pos = (215,689);
}
);
layerId = "D92A4C0B-EB2A-4209-AFE3-2959A8B274DD";
shapes = (
{
closed = 1;
nodes = (
(100,689,l),
(100,0,l),
(467,0,l),
(478,83,l),
(195,83,l),
(195,689,l)
);
}
);
userData = {
math = {
topAccent = 148;
};
};
width = 498;
}
);
metricLeft = H;
unicode = 76;
}
{
color = 4;
glyphname = M;
layers = (
{
anchors = (
{
name = bottom;
pos = (395.5,0);
},
{
name = bottomright;
pos = (786,0);
},
{
name = top;
pos = (395,696);
}
);
layerId = "B26C53A4-97D1-457B-8232-65310EC64496";
shapes = (
{
closed = 1;
nodes = (
(471,696,l),
(399,245,l),
(319,696,l),
(65,696,l),
(15,0,l),
(218,0,l),
(223,248,ls),
(225,342,o),
(221,416,o),
(210,531,c),
(298,70,l),
(493,70,l),
(575,531,l),
(566,427,o),
(566,337,o),
(568,247,cs),
(573,0,l),
(776,0,l),
(726,696,l)
);
}
);
width = 791;
},
{
anchors = (
{
name = bottom;
pos = (378.5,0);
},
{
name = bottomright;
pos = (681,0);
},
{
name = top;
pos = (378,680);
}
);
layerId = "D42A05F0-DBDC-4569-915A-03C7188507B6";
shapes = (
{
closed = 1;
nodes = (
(589,680,l),
(378,88,l),
(167,680,l),
(164,680,l),
(85,0,l),
(87,0,l),
(129,361,ls),
(142,474,o),
(161,628,o),
(166,676,c),
(377,85,l),
(379,85,l),
(590,676,l),
(598,604,o),
(615,468,o),
(628,354,cs),
(670,0,l),
(672,0,l),
(592,680,l)
);
}
);
width = 757;
},
{
anchors = (
{
name = bottom;
pos = (382,0);
},
{
name = bottomright;
pos = (699,0);
},
{
name = top;
pos = (381,682);
}
);
background = {
shapes = (
{
closed = 1;
nodes = (
(570,682,l),
(384,129,l),
(380,129,l),
(193,682,l),
(147,682,l),
(76,0,l),
(106,0,l),
(140,342,ls),
(149,430,o),
(164,571,o),
(172,651,c),
(173,651,l),
(366,87,l),
(399,87,l),
(589,651,l),
(590,651,l),
(596,588,o),
(606,480,o),
(621,342,cs),
(660,0,l),
(690,0,l),
(617,682,l)
);
}
);
};
layerId = "B2FE45D6-EF48-417F-ACCD-B60D15D1CAF3";
shapes = (
{
closed = 1;
nodes = (
(569,682,l),
(382,121,l),
(192,682,l),
(146,682,l),
(75,0,l),
(105,0,l),
(140,351,l),
(151,459,o),
(167,597,o),
(171,655,c),
(367,83,l),
(397,83,l),
(589,655,l),
(595,588,o),
(609,454,o),
(621,342,cs),
(659,0,l),
(689,0,l),
(616,682,l)
);
}
);
width = 764;
},
{
anchors = (
{
name = bottom;
pos = (398,0);
},
{
name = bottomright;
pos = (726,0);
},
{
name = top;
pos = (389,689);
}
);
layerId = "D92A4C0B-EB2A-4209-AFE3-2959A8B274DD";
shapes = (
{
closed = 1;
nodes = (
(530,689,l),
(392,188,l),
(247,689,l),
(119,689,l),
(62,0,l),
(152,0,l),
(175,304,ls),
(183,405,o),
(188,512,o),
(188,593,c),
(345,78,l),
(434,78,l),
(583,592,l),
(584,535,o),
(591,419,o),
(600,311,cs),
(624,0,l),
(716,0,l),
(659,689,l)
);
}
);
width = 778;
}
);
unicode = 77;
}
{
color = 4;
glyphname = N;
layers = (
{
anchors = (
{
name = bottom;
pos = (326,0);
},
{
name = top;
pos = (326,696);
}
);
layerId = "B26C53A4-97D1-457B-8232-65310EC64496";
shapes = (
{
closed = 1;
nodes = (
(426,696,l),
(426,473,ls),
(426,347,o),
(441,267,o),
(454,186,c),
(296,696,l),
(43,696,l),
(43,0,l),
(225,0,l),
(225,216,ls),
(225,345,o),
(208,441,o),
(198,508,c),
(350,0,l),
(608,0,l),
(608,696,l)
);
}
);
width = 651;
},
{
anchors = (
{
name = bottom;
pos = (321,0);
},
{
name = top;
pos = (331,680);
}
);
layerId = "D42A05F0-DBDC-4569-915A-03C7188507B6";
shapes = (
{
closed = 1;
nodes = (
(522,680,l),
(522,136,l),
(522,95,o),
(522,43,o),
(522,2,c),
(133,680,l),
(130,680,l),
(130,0,l),
(132,0,l),
(132,575,l),
(132,622,o),
(132,655,o),
(132,678,c),
(521,0,l),
(524,0,l),
(524,680,l)
);
}
);
width = 654;
},
{
anchors = (
{
name = bottom;
pos = (332,0);
},
{
name = top;
pos = (339,682);
}
);
layerId = "B2FE45D6-EF48-417F-ACCD-B60D15D1CAF3";
shapes = (
{
closed = 1;
nodes = (
(514,682,l),
(514,232,l),
(514,140,o),
(516,75,o),
(518,35,c),
(159,682,l),
(120,682,l),
(120,0,l),
(150,0,l),
(150,438,l),
(150,557,o),
(149,608,o),
(146,647,c),
(506,0,l),
(544,0,l),
(544,682,l)
);
}
);
width = 664;
},
{
anchors = (
{
name = bottom;
pos = (343,0);
},
{
name = top;
pos = (353,689);
}
);
layerId = "D92A4C0B-EB2A-4209-AFE3-2959A8B274DD";
shapes = (
{
closed = 1;
nodes = (
(494,689,l),
(494,313,ls),
(494,229,o),
(505,119,o),
(507,103,c),
(224,689,l),
(100,689,l),
(100,0,l),
(189,0,l),
(189,316,ls),
(189,444,o),
(181,528,o),
(176,585,c),
(456,0,l),
(583,0,l),
(583,689,l)
);
}
);
width = 683;
}
);
metricLeft = H;
metricRight = H;
unicode = 78;
}
{
color = 4;
glyphname = O;
layers = (
{
anchors = (
{
name = bottom;
pos = (345,0);
},
{
name = ogonek;
pos = (482,0);
},
{
name = top;
pos = (345,696);
},
{
name = topleft;
pos = (103,696);
},
{
name = topright;
pos = (589,696);
}
);
layerId = "B26C53A4-97D1-457B-8232-65310EC64496";
shapes = (
{
closed = 1;
nodes = (
(136,716,o),
(20,575,o),
(20,349,cs),
(20,118,o),
(136,-20,o),
(345,-20,cs),
(554,-20,o),
(670,123,o),
(670,349,cs),
(670,580,o),
(554,716,o),
(345,716,cs)
);
},
{
closed = 1;
nodes = (
(423,570,o),
(456,510,o),
(456,349,cs),
(456,188,o),
(425,126,o),
(345,126,cs),
(267,126,o),
(234,188,o),
(234,349,cs),
(234,510,o),
(267,570,o),
(345,570,cs)
);
}
);
userData = {
math = {
topAccent = 345;
};
};
width = 690;
},
{
anchors = (
{
name = bottom;
pos = (344,0);
},
{
name = ogonek;
pos = (422,0);
},
{
name = top;
pos = (344,680);
},
{
name = topleft;
pos = (102,680);
},
{
name = topright;
pos = (517,680);
}
);
layerId = "D42A05F0-DBDC-4569-915A-03C7188507B6";
shapes = (
{
closed = 1;
nodes = (
(188,690,o),
(85,557,o),
(85,338,cs),
(85,119,o),
(184,-9,o),
(343,-9,cs),
(510,-9,o),
(602,120,o),
(602,340,cs),
(602,563,o),
(504,690,o),
(343,690,cs)
);
},
{
closed = 1;
nodes = (
(503,688,o),
(600,561,o),
(600,340,cs),
(600,122,o),
(509,-7,o),
(343,-7,cs),
(185,-7,o),
(87,121,o),
(87,338,cs),
(87,555,o),
(189,688,o),
(343,688,cs)
);
}
);
userData = {
math = {
topAccent = 344;
};
};
width = 687;
},
{
anchors = (
{
name = bottom;
pos = (345,0);
},
{
name = ogonek;
pos = (430,0);
},
{
name = top;
pos = (345,682);
},
{
name = topleft;
pos = (103,682);
},
{
name = topright;
pos = (536,682);
}
);
layerId = "B2FE45D6-EF48-417F-ACCD-B60D15D1CAF3";
shapes = (
{
closed = 1;
nodes = (
(186,692,o),
(75,565,o),
(75,339,cs),
(75,114,o),
(185,-10,o),
(345,-10,cs),
(511,-10,o),
(615,118,o),
(615,340,cs),
(615,571,o),
(506,692,o),
(345,692,cs)
);
},
{
closed = 1;
nodes = (
(488,663,o),
(583,556,o),
(583,340,cs),
(583,129,o),
(493,19,o),
(345,19,cs),
(205,19,o),
(107,129,o),
(107,339,cs),
(107,554,o),
(204,663,o),
(345,663,cs)
);
}
);
userData = {
math = {
topAccent = 345;
};
};
width = 690;
},
{
anchors = (
{
name = bottom;
pos = (346,0);
},
{
name = ogonek;
pos = (445,0);
},
{
name = top;
pos = (346,689);
},
{
name = topleft;
pos = (113,689);
},
{
name = topright;
pos = (549,689);
}
);
layerId = "D92A4C0B-EB2A-4209-AFE3-2959A8B274DD";
shapes = (
{
closed = 1;
nodes = (
(174,701,o),
(55,570,o),
(55,343,cs),
(55,112,o),
(174,-12,o),
(346,-12,cs),
(519,-12,o),
(637,116,o),
(637,344,cs),
(637,576,o),
(519,701,o),
(346,701,cs)
);
},
{
closed = 1;
nodes = (
(464,623,o),
(536,542,o),
(536,344,cs),
(536,144,o),
(462,66,o),
(346,66,cs),
(234,66,o),
(156,144,o),
(156,343,cs),
(156,542,o),
(231,623,o),
(346,623,cs)
);
}
);
userData = {
math = {
topAccent = 346;
};
};
width = 692;
}
);
unicode = (79,120238);
}
{
color = 4;
glyphname = Q;
layers = (
{
anchors = (
{
name = bottom;
pos = (345,0);
},
{
name = top;
pos = (345,696);
}
);
background = {
shapes = (
{
closed = 1;
nodes = (
(136,716,o),
(20,575,o),
(20,349,cs),
(20,118,o),
(127,-16,o),
(330,-16,cs),
(462,-16,o),
(543,-100,o),
(599,-173,c),
(720,-15,l),
(661,29,o),
(601,48,o),
(512,48,c),
(511,52,l),
(616,112,o),
(670,227,o),
(670,349,cs),
(670,580,o),
(554,716,o),
(345,716,cs)
);
},
{
closed = 1;
nodes = (
(423,570,o),
(456,510,o),
(456,349,cs),
(456,188,o),
(425,126,o),
(345,126,cs),
(267,126,o),
(234,188,o),
(234,349,cs),
(234,510,o),
(267,570,o),
(345,570,cs)
);
}
);
};
layerId = "B26C53A4-97D1-457B-8232-65310EC64496";
shapes = (
{
closed = 1;
nodes = (
(136,716,o),
(20,575,o),
(20,349,cs),
(20,118,o),
(136,-16,o),
(330,-16,cs),
(356,-16,o),
(381,-14,o),
(404,-10,c),
(504,48,l),
(582,94,o),
(670,182,o),
(670,349,cs),
(670,580,o),
(554,716,o),
(345,716,cs)
);
},
{
closed = 1;
nodes = (
(330,-16,l),
(462,-16,o),
(543,-100,o),
(599,-173,c),
(720,-15,l),
(661,29,o),
(601,48,o),
(504,48,c)
);
},
{
closed = 1;
nodes = (
(423,570,o),
(456,510,o),
(456,349,cs),
(456,188,o),
(425,126,o),
(345,126,cs),
(267,126,o),
(234,188,o),
(234,349,cs),
(234,510,o),
(267,570,o),
(345,570,cs)
);
}
);
width = 690;
},
{
anchors = (
{
name = bottom;
pos = (337,0);
},
{
name = top;
pos = (337,680);
}
);
layerId = "D42A05F0-DBDC-4569-915A-03C7188507B6";
shapes = (
{
closed = 1;
nodes = (
(188,690,o),
(85,557,o),
(85,338,cs),
(85,119,o),
(184,-9,o),
(343,-9,cs),
(348,-9,o),
(353,-9,o),
(366,-8,c),
(373,-7,l),
(520,6,o),
(602,133,o),
(602,340,cs),
(602,563,o),
(504,690,o),
(343,690,cs)
);
},
{
closed = 1;
nodes = (
(343,-9,l),
(485,-7,o),
(553,-24,o),
(614,-73,c),
(616,-72,l),
(553,-21,o),
(480,-8,o),
(373,-7,c)
);
},
{
closed = 1;
nodes = (
(503,688,o),
(600,561,o),
(600,340,cs),
(600,122,o),
(509,-7,o),
(343,-7,cs),
(185,-7,o),
(87,121,o),
(87,338,cs),
(87,555,o),
(189,688,o),
(343,688,cs)
);
}
);
width = 687;
},
{
anchors = (
{
name = bottom;
pos = (337,0);
},
{
name = top;
pos = (337,682);
}
);
layerId = "B2FE45D6-EF48-417F-ACCD-B60D15D1CAF3";
shapes = (
{
closed = 1;
nodes = (
(186,692,o),
(75,565,o),
(75,339,cs),
(75,114,o),
(185,-8,o),
(345,-8,cs),
(359,-8,o),
(373,-7,o),
(387,-5,c),
(429,11,l),
(533,38,o),
(615,134,o),
(615,340,cs),
(615,571,o),
(506,692,o),
(345,692,cs)
);
},
{
closed = 1;
nodes = (
(345,-8,l),
(465,-8,o),
(542,-22,o),
(614,-84,c),
(635,-58,l),
(579,-7,o),
(501,9,o),
(429,11,c)
);
},
{
closed = 1;
nodes = (
(488,663,o),
(583,556,o),
(583,340,cs),
(583,129,o),
(493,19,o),
(345,19,cs),
(205,19,o),
(107,129,o),
(107,339,cs),
(107,554,o),
(204,663,o),
(345,663,c)
);
}
);
width = 690;
},
{
anchors = (
{
name = bottom;
pos = (344,0);
},
{
name = top;
pos = (344,689);
}
);
background = {
shapes = (
{
closed = 1;
nodes = (
(180,701,o),
(63,573,o),
(63,343,cs),
(63,109,o),
(180,-10,o),
(352,-10,cs),
(477,-10,o),
(549,-33,o),
(627,-103,c),
(689,-23,l),
(640,11,o),
(581,39,o),
(495,39,c),
(494,43,l),
(588,93,o),
(635,193,o),
(635,344,cs),
(635,578,o),
(518,701,o),
(349,701,cs)
);
},
{
closed = 1;
nodes = (
(461,623,o),
(534,546,o),
(534,344,cs),
(534,142,o),
(461,66,o),
(349,66,cs),
(240,66,o),
(164,141,o),
(164,343,cs),
(164,545,o),
(237,623,o),
(349,623,cs)
);
},
{
closed = 1;
nodes = (
(174,701,o),
(55,570,o),
(55,343,cs),
(55,112,o),
(174,-12,o),
(346,-12,cs),
(519,-12,o),
(637,116,o),
(637,344,cs),
(637,576,o),
(519,701,o),
(346,701,cs)
);
},
{
closed = 1;
nodes = (
(464,623,o),
(536,542,o),
(536,344,cs),
(536,144,o),
(462,66,o),
(346,66,cs),
(234,66,o),
(156,144,o),
(156,343,cs),
(156,542,o),
(231,623,o),
(346,623,cs)
);
}
);
};
layerId = "D92A4C0B-EB2A-4209-AFE3-2959A8B274DD";
shapes = (
{
closed = 1;
nodes = (
(174,701,o),
(55,570,o),
(55,343,cs),
(55,112,o),
(174,-10,o),
(344,-10,cs),
(365,-10,o),
(384,-8,o),
(403,-5,c),
(479,39,l),
(577,90,o),
(637,175,o),
(637,344,cs),
(637,576,o),
(519,701,o),
(346,701,cs)
);
},
{
closed = 1;
nodes = (
(344,-10,l),
(469,-10,o),
(526,-33,o),
(604,-103,c),
(666,-23,l),
(617,11,o),
(558,39,o),
(479,39,c)
);
},
{
closed = 1;
nodes = (
(464,623,o),
(536,542,o),
(536,344,cs),
(536,144,o),
(462,66,o),
(346,66,cs),
(234,66,o),
(156,144,o),
(156,343,cs),
(156,542,o),
(231,623,o),
(346,623,cs)
);
}
);
userData = {
math = {
topAccent = 346;
};
};
width = 691;
}
);
metricLeft = O;
unicode = 81;
}
{
color = 4;
glyphname = R;
layers = (
{
anchors = (
{
name = bottom;
pos = (312,0);
},
{
name = top;
pos = (312,696);
}
);
layerId = "B26C53A4-97D1-457B-8232-65310EC64496";
shapes = (
{
closed = 1;
nodes = (
(43,696,l),
(43,0,l),
(249,0,l),
(249,555,l),
(293,555,ls),
(354,555,o),
(387,530,o),
(387,475,cs),
(387,414,o),
(359,386,o),
(303,386,cs),
(233,386,l),
(233,248,l),
(401,248,l),
(537,311,o),
(597,365,o),
(597,475,cs),
(597,628,o),
(497,696,o),
(298,696,cs)
);
},
{
closed = 1;
nodes = (
(280,262,l),
(416,0,l),
(644,0,l),
(466,300,l)
);
}
);
userData = {
math = {
topAccent = 312;
};
};
width = 624;
},
{
anchors = (
{
name = bottom;
pos = (301,0);
},
{
name = top;
pos = (281,680);
}
);
layerId = "D42A05F0-DBDC-4569-915A-03C7188507B6";
shapes = (
{
closed = 1;
nodes = (
(130,680,l),
(130,0,l),
(132,0,l),
(132,678,l),
(267,678,ls),
(426,678,o),
(480,611,o),
(480,506,cs),
(480,383,o),
(392,336,o),
(306,336,cs),
(131,336,l),
(131,334,l),
(312,334,l),
(393,336,o),
(482,382,o),
(482,506,cs),
(482,612,o),
(427,680,o),
(267,680,cs)
);
},
{
closed = 1;
nodes = (
(311,335,l),
(503,0,l),
(506,0,l),
(313,335,l)
);
}
);
userData = {
math = {
topAccent = 281;
};
};
width = 561;
},
{
anchors = (
{
name = bottom;
pos = (305,0);
},
{
name = top;
pos = (290,682);
}
);
layerId = "B2FE45D6-EF48-417F-ACCD-B60D15D1CAF3";
shapes = (
{
closed = 1;
nodes = (
(120,682,l),
(120,0,l),
(151,0,l),
(151,653,l),
(270,653,ls),
(417,653,o),
(470,599,o),
(470,503,cs),
(470,397,o),
(400,349,o),
(280,349,cs),
(144,349,l),
(144,320,l),
(316,320,l),
(426,336,o),
(502,385,o),
(502,503,cs),
(502,618,o),
(433,682,o),
(274,682,cs)
);
},
{
closed = 1;
nodes = (
(309,327,l),
(498,0,l),
(537,0,l),
(343,332,l)
);
}
);
userData = {
math = {
topAccent = 290;
};
};
width = 577;
},
{
anchors = (
{
name = bottom;
pos = (309,0);
},
{
name = top;
pos = (299,689);
}
);
layerId = "D92A4C0B-EB2A-4209-AFE3-2959A8B274DD";
shapes = (
{
closed = 1;
nodes = (
(100,689,l),
(100,0,l),
(195,0,l),
(195,615,l),
(280,615,ls),
(393,615,o),
(442,580,o),
(442,494,cs),
(442,401,o),
(387,365,o),
(291,365,cs),
(179,365,l),
(179,292,l),
(309,292,l),
(464,312,o),
(543,372,o),
(543,494,cs),
(543,623,o),
(453,689,o),
(281,689,cs)
);
},
{
closed = 1;
nodes = (
(294,306,l),
(467,0,l),
(580,0,l),
(389,317,l)
);
}
);
userData = {
math = {
topAccent = 299;
};
};
width = 605;
}
);
metricLeft = H;
unicode = 82;
}
{
color = 4;
glyphname = S;
layers = (
{
anchors = (
{
name = bottom;
pos = (293,0);
},
{
name = top;
pos = (307,696);
}
);
layerId = "B26C53A4-97D1-457B-8232-65310EC64496";
shapes = (
{
closed = 1;
nodes = (
(145,716,o),
(29,635,o),
(29,503,cs),
(29,402,o),
(78,331,o),
(246,278,cs),
(337,250,o),
(359,232,o),
(359,191,cs),
(359,155,o),
(332,128,o),
(272,128,cs),
(207,128,o),
(151,153,o),
(101,196,c),
(0,85,l),
(57,30,o),
(147,-20,o),
(280,-20,cs),
(463,-20,o),
(573,74,o),
(573,208,cs),
(573,333,o),
(509,395,o),
(366,441,cs),
(267,473,o),
(241,484,o),
(241,520,cs),
(241,551,o),
(266,570,o),
(316,570,cs),
(371,570,o),
(419,551,o),
(465,514,c),
(556,621,l),
(493,682,o),
(411,716,o),
(299,716,cs)
);
}
);
width = 588;
},
{
anchors = (
{
name = bottom;
pos = (261,0);
},
{
name = top;
pos = (273,680);
}
);
layerId = "D42A05F0-DBDC-4569-915A-03C7188507B6";
shapes = (
{
closed = 1;
nodes = (
(158,690,o),
(88,624,o),
(88,538,cs),
(88,447,o),
(132,412,o),
(269,368,cs),
(397,327,o),
(458,287,o),
(458,178,cs),
(458,69,o),
(378,-7,o),
(260,-7,cs),
(168,-7,o),
(115,24,o),
(66,71,c),
(65,69,l),
(114,22,o),
(168,-9,o),
(260,-9,cs),
(380,-9,o),
(460,68,o),
(460,178,cs),
(460,288,o),
(399,329,o),
(270,370,cs),
(132,414,o),
(90,449,o),
(90,538,cs),
(90,622,o),
(159,688,o),
(264,688,cs),
(345,688,o),
(394,662,o),
(436,624,c),
(437,626,l),
(395,663,o),
(347,690,o),
(264,690,cs)
);
}
);
width = 540;
},
{
anchors = (
{
name = bottom;
pos = (262,0);
},
{
name = top;
pos = (268,682);
}
);
layerId = "B2FE45D6-EF48-417F-ACCD-B60D15D1CAF3";
shapes = (
{
closed = 1;
nodes = (
(151,692,o),
(77,623,o),
(77,533,cs),
(77,442,o),
(126,397,o),
(265,354,cs),
(391,315,o),
(438,278,o),
(438,182,cs),
(438,82,o),
(365,19,o),
(256,19,cs),
(172,19,o),
(119,49,o),
(70,94,c),
(50,73,l),
(105,23,o),
(168,-10,o),
(257,-10,cs),
(381,-10,o),
(469,68,o),
(469,183,cs),
(469,295,o),
(410,340,o),
(275,381,cs),
(154,418,o),
(108,452,o),
(108,533,cs),
(108,609,o),
(169,663,o),
(265,663,cs),
(333,663,o),
(378,644,o),
(428,598,c),
(448,620,l),
(398,664,o),
(349,692,o),
(265,692,cs)
);
}
);
width = 534;
},
{
anchors = (
{
name = bottom;
pos = (267,0);
},
{
name = top;
pos = (276,689);
}
);
layerId = "D92A4C0B-EB2A-4209-AFE3-2959A8B274DD";
shapes = (
{
closed = 1;
nodes = (
(143,701,o),
(53,627,o),
(53,521,cs),
(53,414,o),
(123,363,o),
(257,322,cs),
(374,286,o),
(406,256,o),
(406,189,cs),
(406,106,o),
(339,66,o),
(258,66,cs),
(183,66,o),
(129,93,o),
(77,135,c),
(25,77,l),
(82,21,o),
(160,-12,o),
(259,-12,cs),
(414,-12,o),
(505,72,o),
(505,192,cs),
(505,324,o),
(411,367,o),
(301,401,cs),
(177,439,o),
(150,467,o),
(150,525,cs),
(150,591,o),
(205,623,o),
(274,623,cs),
(331,623,o),
(379,605,o),
(431,563,c),
(483,621,l),
(425,673,o),
(365,701,o),
(270,701,cs)
);
}
);
userData = {
math = {
topAccent = 270;
};
};
width = 545;
}
);
unicode = 83;
}
{
color = 4;
glyphname = T;
layers = (
{
anchors = (
{
name = bottom;
pos = (277,0);
},
{
name = bottomright;
pos = (390,0);
},
{
name = center;
pos = (277,348);
},
{
name = top;
pos = (277,696);
}
);
layerId = "B26C53A4-97D1-457B-8232-65310EC64496";
shapes = (
{
closed = 1;
nodes = (
(5,696,l),
(5,542,l),
(174,542,l),
(174,0,l),
(380,0,l),
(380,542,l),
(538,542,l),
(559,696,l)
);
}
);
userData = {
math = {
topAccent = 277;
};
};
width = 554;
},
{
anchors = (
{
name = bottom;
pos = (236,0);
},
{
name = bottomright;
pos = (247,0);
},
{
name = center;
pos = (236,340);
},
{
name = top;
pos = (236,680);
}
);
layerId = "D42A05F0-DBDC-4569-915A-03C7188507B6";
shapes = (
{
closed = 1;
nodes = (
(20,680,l),
(20,678,l),
(235,678,l),
(235,0,l),
(237,0,l),
(237,678,l),
(452,678,l),
(452,680,l)
);
}
);
userData = {
math = {
topAccent = 236;
};
};
width = 472;
},
{
anchors = (
{
name = bottom;
pos = (239,0);
},
{
name = bottomright;
pos = (264,0);
},
{
name = center;
pos = (239,348);
},
{
name = top;
pos = (239,682);
}
);
layerId = "B2FE45D6-EF48-417F-ACCD-B60D15D1CAF3";
shapes = (
{
closed = 1;
nodes = (
(15,682,l),
(15,652,l),
(223,652,l),
(223,0,l),
(254,0,l),
(254,652,l),
(462,652,l),
(467,682,l)
);
}
);
userData = {
math = {
topAccent = 239;
};
};
width = 477;
},
{
anchors = (
{
name = bottom;
pos = (259,0);
},
{
name = bottomright;
pos = (316,0);
},
{
name = center;
pos = (259,345);
},
{
name = top;
pos = (259,689);
}
);
layerId = "D92A4C0B-EB2A-4209-AFE3-2959A8B274DD";
shapes = (
{
closed = 1;
nodes = (
(15,689,l),
(15,608,l),
(211,608,l),
(211,0,l),
(306,0,l),
(306,608,l),
(497,608,l),
(507,689,l)
);
}
);
userData = {
math = {
topAccent = 259;
};
};
width = 517;
}
);
unicode = 84;
}
{
color = 4;
glyphname = U;
layers = (
{
anchors = (
{
name = bottom;
pos = (322,0);
},
{
name = math.ta;
pos = (322,0);
},
{
name = ogonek;
pos = (460,0);
},
{
name = top;
pos = (322,696);
},
{
name = topright;
pos = (621,696);
}
);
layerId = "B26C53A4-97D1-457B-8232-65310EC64496";
shapes = (
{
closed = 1;
nodes = (
(405,696,l),
(405,242,ls),
(405,165,o),
(382,128,o),
(322,128,cs),
(262,128,o),
(239,165,o),
(239,242,cs),
(239,696,l),
(33,696,l),
(33,236,ls),
(33,84,o),
(126,-20,o),
(322,-20,cs),
(518,-20,o),
(611,94,o),
(611,236,cs),
(611,696,l)
);
}
);
width = 644;
},
{
anchors = (
{
name = bottom;
pos = (317,0);
},
{
name = math.ta;
pos = (317,0);
},
{
name = ogonek;
pos = (397,0);
},
{
name = top;
pos = (317,680);
},
{
name = topright;
pos = (524,680);
}
);
layerId = "D42A05F0-DBDC-4569-915A-03C7188507B6";
shapes = (
{
closed = 1;
nodes = (
(512,680,l),
(512,206,ls),
(512,84,o),
(460,-7,o),
(317,-7,cs),
(173,-7,o),
(122,84,o),
(122,206,cs),
(122,680,l),
(120,680,l),
(120,206,ls),
(120,83,o),
(171,-9,o),
(317,-9,cs),
(461,-9,o),
(514,83,o),
(514,206,cs),
(514,680,l)
);
}
);
width = 634;
},
{
anchors = (
{
name = bottom;
pos = (322,0);
},
{
name = math.ta;
pos = (322,0);
},
{
name = ogonek;
pos = (407,0);
},
{
name = top;
pos = (322,682);
},
{
name = topright;
pos = (543,682);
}
);
layerId = "B2FE45D6-EF48-417F-ACCD-B60D15D1CAF3";
shapes = (
{
closed = 1;
nodes = (
(502,682,l),
(502,211,ls),
(502,100,o),
(451,19,o),
(322,19,cs),
(194,19,o),
(141,97,o),
(141,211,cs),
(141,682,l),
(110,682,l),
(110,208,ls),
(110,81,o),
(174,-10,o),
(322,-10,cs),
(469,-10,o),
(533,81,o),
(533,208,cs),
(533,682,l)
);
}
);
width = 643;
},
{
anchors = (
{
name = bottom;
pos = (331,0);
},
{
name = math.ta;
pos = (331,0);
},
{
name = ogonek;
pos = (428,0);
},
{
name = top;
pos = (331,689);
},
{
name = topright;
pos = (582,689);
}
);
layerId = "D92A4C0B-EB2A-4209-AFE3-2959A8B274DD";
shapes = (
{
closed = 1;
nodes = (
(476,689,l),
(476,228,ls),
(476,121,o),
(429,68,o),
(330,68,cs),
(232,68,o),
(185,121,o),
(185,228,cs),
(185,689,l),
(90,689,l),
(90,221,ls),
(90,84,o),
(173,-12,o),
(330,-12,cs),
(485,-12,o),
(572,84,o),
(572,221,cs),
(572,689,l)
);
}
);
width = 662;
}
);
metricLeft = "=H-10";
metricRight = "=H-10";
unicode = (85,120244);
}
{
color = 4;
glyphname = V;
layers = (
{
anchors = (
{
name = bottom;
pos = (290,0);
},
{
name = top;
pos = (290,696);
}
);
layerId = "B26C53A4-97D1-457B-8232-65310EC64496";
shapes = (
{
closed = 1;
nodes = (
(393,696,l),
(298,143,l),
(192,696,l),
(-25,696,l),
(162,0,l),
(428,0,l),
(604,696,l)
);
}
);
width = 579;
},
{
anchors = (
{
name = bottom;
pos = (262,0);
},
{
name = top;
pos = (262,680);
}
);
layerId = "D42A05F0-DBDC-4569-915A-03C7188507B6";
shapes = (
{
closed = 1;
nodes = (
(486,680,l),
(263,2,l),
(37,680,l),
(35,680,l),
(262,0,l),
(264,0,l),
(488,680,l)
);
}
);
width = 523;
},
{
anchors = (
{
name = bottom;
pos = (269,0);
},
{
name = top;
pos = (269,682);
}
);
layerId = "B2FE45D6-EF48-417F-ACCD-B60D15D1CAF3";
shapes = (
{
closed = 1;
nodes = (
(480,682,l),
(269,29,l),
(58,682,l),
(25,682,l),
(249,0,l),
(288,0,l),
(513,682,l)
);
}
);
width = 538;
},
{
anchors = (
{
name = bottom;
pos = (278,0);
},
{
name = top;
pos = (278,689);
}
);
layerId = "D92A4C0B-EB2A-4209-AFE3-2959A8B274DD";
shapes = (
{
closed = 1;
nodes = (
(454,689,l),
(281,103,l),
(108,689,l),
(6,689,l),
(228,0,l),
(330,0,l),
(550,689,l)
);
}
);
userData = {
math = {
topAccent = 278;
};
};
width = 556;
}
);
metricLeft = A;
metricRight = A;
unicode = 86;
}
{
color = 4;
glyphname = W;
layers = (
{
anchors = (
{
name = bottom;
pos = (430,0);
},
{
name = math.ta;
pos = (432,0);
},
{
name = top;
pos = (432,696);
}
);
layerId = "B26C53A4-97D1-457B-8232-65310EC64496";
shapes = (
{
closed = 1;
nodes = (
(661,696,l),
(601,149,l),
(539,696,l),
(324,696,l),
(250,149,l),
(206,696,l),
(0,696,l),
(97,0,l),
(359,0,l),
(428,500,l),
(490,0,l),
(758,0,l),
(859,696,l)
);
}
);
width = 859;
},
{
anchors = (
{
name = bottom;
pos = (388,0);
},
{
name = math.ta;
pos = (388,0);
},
{
name = top;
pos = (388,680);
}
);
layerId = "D42A05F0-DBDC-4569-915A-03C7188507B6";
shapes = (
{
closed = 1;
nodes = (
(729,680,l),
(570,3,l),
(389,680,l),
(387,680,l),
(206,2,l),
(47,680,l),
(45,680,l),
(205,0,l),
(207,0,l),
(388,678,l),
(569,0,l),
(571,0,l),
(731,680,l)
);
}
);
width = 776;
},
{
anchors = (
{
name = bottom;
pos = (398,0);
},
{
name = math.ta;
pos = (398,0);
},
{
name = top;
pos = (398,682);
}
);
layerId = "B2FE45D6-EF48-417F-ACCD-B60D15D1CAF3";
shapes = (
{
closed = 1;
nodes = (
(729,682,l),
(584,32,l),
(417,682,l),
(379,682,l),
(214,32,l),
(68,682,l),
(35,682,l),
(194,0,l),
(230,0,l),
(398,652,l),
(566,0,l),
(602,0,l),
(761,682,l)
);
}
);
width = 796;
},
{
anchors = (
{
name = bottom;
pos = (413,0);
},
{
name = math.ta;
pos = (413,0);
},
{
name = top;
pos = (413,689);
}
);
layerId = "D92A4C0B-EB2A-4209-AFE3-2959A8B274DD";
shapes = (
{
closed = 1;
nodes = (
(714,689,l),
(599,83,l),
(463,689,l),
(362,689,l),
(229,83,l),
(118,689,l),
(25,689,l),
(165,0,l),
(284,0,l),
(412,577,l),
(539,0,l),
(661,0,l),
(801,689,l)
);
}
);
width = 826;
}
);
unicode = (87,120246);
}
{
color = 4;
glyphname = Y;
layers = (
{
anchors = (
{
name = bottom;
pos = (310,0);
},
{
name = top;
pos = (310,696);
},
{
name = topleft;
pos = (-10,696);
}
);
layerId = "B26C53A4-97D1-457B-8232-65310EC64496";
shapes = (
{
closed = 1;
nodes = (
(417,696,l),
(313,412,l),
(210,696,l),
(-15,696,l),
(207,256,l),
(207,0,l),
(413,0,l),
(413,257,l),
(635,696,l)
);
}
);
width = 620;
},
{
anchors = (
{
name = bottom;
pos = (240,0);
},
{
name = top;
pos = (240,680);
},
{
name = topleft;
pos = (15,680);
}
);
layerId = "D42A05F0-DBDC-4569-915A-03C7188507B6";
shapes = (
{
closed = 1;
nodes = (
(452,680,l),
(240,273,l),
(27,680,l),
(25,680,l),
(239,271,l),
(239,0,l),
(241,0,l),
(241,271,l),
(454,680,l)
);
}
);
width = 479;
},
{
anchors = (
{
name = bottom;
pos = (252,0);
},
{
name = top;
pos = (250,682);
},
{
name = topleft;
pos = (15,682);
}
);
layerId = "B2FE45D6-EF48-417F-ACCD-B60D15D1CAF3";
shapes = (
{
closed = 1;
nodes = (
(445,682,l),
(252,297,l),
(55,682,l),
(20,682,l),
(236,270,l),
(236,0,l),
(267,0,l),
(267,271,l),
(480,682,l)
);
}
);
width = 500;
},
{
anchors = (
{
name = bottom;
pos = (275,0);
},
{
name = top;
pos = (275,689);
},
{
name = topleft;
pos = (5,689);
}
);
layerId = "D92A4C0B-EB2A-4209-AFE3-2959A8B274DD";
shapes = (
{
closed = 1;
nodes = (
(446,689,l),
(278,348,l),
(110,689,l),
(5,689,l),
(227,264,l),
(227,0,l),
(323,0,l),
(323,265,l),
(545,689,l)
);
}
);
width = 550;
}
);
unicode = 89;
}
{
color = 4;
glyphname = Z;
layers = (
{
anchors = (
{
name = bottom;
pos = (268,0);
},
{
name = top;
pos = (279,696);
}
);
layerId = "B26C53A4-97D1-457B-8232-65310EC64496";
shapes = (
{
closed = 1;
nodes = (
(38,696,l),
(38,540,l),
(296,540,l),
(10,151,l),
(10,0,l),
(522,0,l),
(542,161,l),
(256,161,l),
(533,543,l),
(533,696,l)
);
}
);
width = 557;
},
{
anchors = (
{
name = bottom;
pos = (258,0);
},
{
name = top;
pos = (254,680);
}
);
layerId = "D42A05F0-DBDC-4569-915A-03C7188507B6";
shapes = (
{
closed = 1;
nodes = (
(82,680,l),
(82,678,l),
(451,678,l),
(45,2,l),
(45,0,l),
(437,0,l),
(437,2,l),
(48,2,l),
(454,678,l),
(454,680,l)
);
}
);
width = 504;
},
{
anchors = (
{
name = bottom;
pos = (258,0);
},
{
name = top;
pos = (256,682);
}
);
layerId = "B2FE45D6-EF48-417F-ACCD-B60D15D1CAF3";
shapes = (
{
closed = 1;
nodes = (
(78,682,l),
(78,653,l),
(425,653,l),
(40,28,l),
(40,0,l),
(445,0,l),
(449,30,l),
(77,30,l),
(461,655,l),
(461,682,l)
);
}
);
width = 511;
},
{
anchors = (
{
name = bottom;
pos = (258,0);
},
{
name = top;
pos = (272,689);
}
);
layerId = "D92A4C0B-EB2A-4209-AFE3-2959A8B274DD";
shapes = (
{
closed = 1;
nodes = (
(66,689,l),
(66,609,l),
(374,609,l),
(30,76,l),
(30,0,l),
(466,0,l),
(477,81,l),
(136,81,l),
(477,612,l),
(477,689,l)
);
}
);
width = 522;
}
);
unicode = 90;
}
{
color = 4;
glyphname = backslash;
layers = (
{
layerId = "B26C53A4-97D1-457B-8232-65310EC64496";
shapes = (
{
closed = 1;
nodes = (
(54,782,l),
(291,-117,l),
(466,-77,l),
(228,822,l)
);
}
);
width = 520;
},
{
layerId = "D42A05F0-DBDC-4569-915A-03C7188507B6";
shapes = (
{
closed = 1;
nodes = (
(143,793,l),
(375,-92,l),
(377,-91,l),
(145,794,l)
);
}
);
width = 520;
},
{
layerId = "B2FE45D6-EF48-417F-ACCD-B60D15D1CAF3";
shapes = (
{
closed = 1;
nodes = (
(130,792,l),
(362,-96,l),
(389,-89,l),
(157,799,l)
);
}
);
width = 520;
},
{
layerId = "D92A4C0B-EB2A-4209-AFE3-2959A8B274DD";
shapes = (
{
closed = 1;
nodes = (
(105,789,l),
(336,-104,l),
(415,-85,l),
(183,807,l)
);
}
);
width = 520;
}
);
unicode = 92;
}
{
color = 4;
glyphname = asciicircum;
layers = (
{
layerId = "B26C53A4-97D1-457B-8232-65310EC64496";
shapes = (
{
closed = 1;
nodes = (
(194,847,l),
(5,527,l),
(198,527,l),
(284,705,l),
(376,527,l),
(565,527,l),
(376,847,l)
);
}
);
width = 570;
},
{
layerId = "D42A05F0-DBDC-4569-915A-03C7188507B6";
shapes = (
{
closed = 1;
nodes = (
(258,817,l),
(90,527,l),
(92,527,l),
(259,815,l),
(426,527,l),
(428,527,l),
(260,817,l)
);
}
);
width = 528;
},
{
layerId = "B2FE45D6-EF48-417F-ACCD-B60D15D1CAF3";
shapes = (
{
closed = 1;
nodes = (
(251,826,l),
(70,527,l),
(109,527,l),
(262,788,l),
(415,527,l),
(453,527,l),
(272,826,l)
);
}
);
width = 523;
},
{
layerId = "D92A4C0B-EB2A-4209-AFE3-2959A8B274DD";
shapes = (
{
closed = 1;
nodes = (
(229,840,l),
(40,527,l),
(137,527,l),
(269,760,l),
(402,527,l),
(500,527,l),
(311,840,l)
);
}
);
width = 540;
}
);
unicode = 94;
}
{
color = 4;
glyphname = underscore;
layers = (
{
layerId = "B26C53A4-97D1-457B-8232-65310EC64496";
shapes = (
{
closed = 1;
nodes = (
(515,-188,l),
(515,-38,l),
(5,-38,l),
(5,-188,l)
);
}
);
width = 520;
},
{
layerId = "D42A05F0-DBDC-4569-915A-03C7188507B6";
shapes = (
{
closed = 1;
nodes = (
(467,-87,l),
(467,-85,l),
(53,-85,l),
(53,-87,l)
);
}
);
width = 520;
},
{
layerId = "B2FE45D6-EF48-417F-ACCD-B60D15D1CAF3";
shapes = (
{
closed = 1;
nodes = (
(483,-105,l),
(483,-77,l),
(38,-77,l),
(38,-105,l)
);
}
);
width = 520;
},
{
layerId = "D92A4C0B-EB2A-4209-AFE3-2959A8B274DD";
shapes = (
{
closed = 1;
nodes = (
(503,-142,l),
(503,-63,l),
(17,-63,l),
(17,-142,l)
);
}
);
width = 520;
}
);
unicode = 95;
}
{
color = 4;
glyphname = a;
layers = (
{
anchors = (
{
name = bottom;
pos = (277,0);
},
{
name = math.ta;
pos = (277,0);
},
{
name = ogonek;
pos = (506,-16);
},
{
name = top;
pos = (277,534);
}
);
layerId = "B26C53A4-97D1-457B-8232-65310EC64496";
shapes = (
{
closed = 1;
nodes = (
(203,554,o),
(120,539,o),
(53,512,c),
(96,386,l),
(149,404,o),
(203,414,o),
(234,414,cs),
(293,414,o),
(311,400,o),
(311,346,c),
(311,138,l),
(345,71,l),
(375,10,o),
(422,-11,o),
(496,-16,c),
(536,111,l),
(512,120,o),
(504,135,o),
(504,173,cs),
(504,357,ls),
(504,489,o),
(434,554,o),
(264,554,cs)
);
},
{
closed = 1;
nodes = (
(273,333,ls),
(105,333,o),
(15,268,o),
(15,150,cs),
(15,51,o),
(84,-20,o),
(191,-20,cs),
(258,-20,o),
(324,3,o),
(362,75,c),
(318,164,l),
(307,139,o),
(282,119,o),
(252,119,cs),
(225,119,o),
(208,139,o),
(208,169,cs),
(208,211,o),
(234,230,o),
(290,230,cs),
(337,230,l),
(337,333,l)
);
}
);
width = 551;
},
{
anchors = (
{
name = bottom;
pos = (250,0);
},
{
name = math.ta;
pos = (250,0);
},
{
name = ogonek;
pos = (457,-9);
},
{
name = top;
pos = (250,517);
}
);
layerId = "D42A05F0-DBDC-4569-915A-03C7188507B6";
shapes = (
{
closed = 1;
nodes = (
(208,527,o),
(161,516,o),
(106,493,c),
(107,491,l),
(162,514,o),
(208,525,o),
(254,525,cs),
(357,525,o),
(393,466,o),
(393,372,cs),
(393,108,l),
(393,106,l),
(393,34,o),
(404,5,o),
(447,-9,c),
(448,-7,l),
(405,6,o),
(395,37,o),
(395,110,cs),
(395,372,ls),
(395,468,o),
(358,527,o),
(254,527,cs)
);
},
{
closed = 1;
nodes = (
(269,304,ls),
(146,304,o),
(70,246,o),
(70,145,cs),
(70,56,o),
(123,-9,o),
(220,-9,cs),
(306,-9,o),
(359,32,o),
(394,107,c),
(394,111,l),
(358,35,o),
(308,-7,o),
(220,-7,cs),
(124,-7,o),
(72,57,o),
(72,145,cs),
(72,244,o),
(147,302,o),
(269,302,cs),
(394,302,l),
(394,304,l)
);
}
);
width = 523;
},
{
anchors = (
{
name = bottom;
pos = (256,0);
},
{
name = math.ta;
pos = (256,0);
},
{
name = ogonek;
pos = (463,-10);
},
{
name = top;
pos = (256,520);
}
);
layerId = "B2FE45D6-EF48-417F-ACCD-B60D15D1CAF3";
shapes = (
{
closed = 1;
nodes = (
(204,530,o),
(157,517,o),
(105,496,c),
(114,470,l),
(164,490,o),
(210,502,o),
(256,502,cs),
(354,502,o),
(386,457,o),
(386,369,c),
(386,112,l),
(390,98,l),
(389,31,o),
(410,3,o),
(453,-10,c),
(460,11,l),
(430,23,o),
(416,42,o),
(416,110,cs),
(416,372,ls),
(416,476,o),
(368,530,o),
(256,530,cs)
);
},
{
closed = 1;
nodes = (
(270,309,ls),
(147,309,o),
(65,251,o),
(65,144,cs),
(65,51,o),
(124,-10,o),
(223,-10,cs),
(301,-10,o),
(357,26,o),
(395,94,c),
(390,130,l),
(356,61,o),
(304,18,o),
(223,18,cs),
(146,18,o),
(97,64,o),
(97,144,cs),
(97,237,o),
(165,282,o),
(276,282,cs),
(393,282,l),
(393,309,l)
);
}
);
width = 530;
},
{
anchors = (
{
name = bottom;
pos = (261,0);
},
{
name = math.ta;
pos = (261,0);
},
{
name = ogonek;
pos = (483,-12);
},
{
name = top;
pos = (261,527);
}
);
layerId = "D92A4C0B-EB2A-4209-AFE3-2959A8B274DD";
shapes = (
{
closed = 1;
nodes = (
(206,539,o),
(148,527,o),
(83,503,c),
(106,436,l),
(160,454,o),
(209,464,o),
(248,464,cs),
(321,464,o),
(358,436,o),
(358,360,c),
(358,123,l),
(365,86,l),
(378,20,o),
(414,-5,o),
(473,-12,c),
(494,52,l),
(467,62,o),
(450,77,o),
(450,123,cs),
(450,364,ls),
(450,474,o),
(392,539,o),
(265,539,cs)
);
},
{
closed = 1;
nodes = (
(277,321,ls),
(130,321,o),
(45,260,o),
(45,147,cs),
(45,53,o),
(108,-12,o),
(213,-12,cs),
(283,-12,o),
(343,16,o),
(379,82,c),
(367,157,l),
(336,90,o),
(294,57,o),
(234,57,cs),
(174,57,o),
(143,90,o),
(143,152,cs),
(143,224,o),
(192,260,o),
(289,260,cs),
(373,260,l),
(373,321,l)
);
}
);
width = 544;
}
);
unicode = (97,120250);
}
{
color = 4;
glyphname = d;
layers = (
{
anchors = (
{
name = bottom;
pos = (308,0);
},
{
name = center;
pos = (301,267);
},
{
name = math.ta;
pos = (296,0);
},
{
name = top;
pos = (296,744);
},
{
name = topright;
pos = (569,744);
}
);
layerId = "B26C53A4-97D1-457B-8232-65310EC64496";
shapes = (
{
closed = 1;
nodes = (
(112,554,o),
(22,436,o),
(22,270,cs),
(22,94,o),
(86,-20,o),
(225,-20,cs),
(309,-20,o),
(356,25,o),
(383,66,c),
(371,188,l),
(350,142,o),
(323,122,o),
(292,122,cs),
(256,122,o),
(225,140,o),
(225,268,cs),
(225,376,o),
(259,413,o),
(302,413,cs),
(332,413,o),
(350,396,o),
(374,368,c),
(372,501,l),
(342,535,o),
(297,554,o),
(245,554,cs)
);
},
{
closed = 1;
nodes = (
(361,156,l),
(374,68,l),
(383,0,l),
(559,0,l),
(559,744,l),
(361,764,l)
);
}
);
width = 601;
},
{
anchors = (
{
name = bottom;
pos = (288,0);
},
{
name = center;
pos = (289,259);
},
{
name = math.ta;
pos = (280,0);
},
{
name = top;
pos = (280,727);
},
{
name = topright;
pos = (497,727);
}
);
layerId = "D42A05F0-DBDC-4569-915A-03C7188507B6";
shapes = (
{
closed = 1;
nodes = (
(158,527,o),
(85,416,o),
(85,257,cs),
(85,88,o),
(159,-9,o),
(276,-9,cs),
(364,-9,o),
(412,40,o),
(446,102,c),
(446,106,l),
(411,42,o),
(364,-7,o),
(276,-7,cs),
(160,-7,o),
(87,89,o),
(87,257,cs),
(87,415,o),
(159,525,o),
(282,525,cs),
(368,525,o),
(420,471,o),
(446,419,c),
(446,422,l),
(422,472,o),
(369,527,o),
(282,527,cs)
);
},
{
closed = 1;
nodes = (
(445,104,ls),
(445,102,l),
(445,0,l),
(447,0,l),
(447,730,l),
(445,730,l)
);
}
);
width = 572;
},
{
anchors = (
{
name = bottom;
pos = (298,0);
},
{
name = center;
pos = (293,260);
},
{
name = math.ta;
pos = (279,0);
},
{
name = top;
pos = (279,734);
},
{
name = topright;
pos = (490,734);
}
);
layerId = "B2FE45D6-EF48-417F-ACCD-B60D15D1CAF3";
shapes = (
{
closed = 1;
nodes = (
(151,530,o),
(75,419,o),
(75,258,cs),
(75,90,o),
(152,-10,o),
(268,-10,cs),
(357,-10,o),
(406,39,o),
(433,91,c),
(435,141,l),
(398,63,o),
(352,18,o),
(269,18,cs),
(170,18,o),
(106,106,o),
(106,258,cs),
(106,412,o),
(178,502,o),
(280,502,cs),
(360,502,o),
(407,454,o),
(437,403,c),
(436,445,l),
(410,484,o),
(365,530,o),
(279,530,cs)
);
},
{
closed = 1;
nodes = (
(430,117,l),
(430,96,l),
(434,0,l),
(460,0,l),
(460,734,l),
(430,738,l)
);
}
);
width = 575;
},
{
anchors = (
{
name = bottom;
pos = (308,0);
},
{
name = center;
pos = (303,264);
},
{
name = math.ta;
pos = (301,0);
},
{
name = top;
pos = (301,739);
},
{
name = topright;
pos = (513,739);
}
);
layerId = "D92A4C0B-EB2A-4209-AFE3-2959A8B274DD";
shapes = (
{
closed = 1;
nodes = (
(140,539,o),
(62,422,o),
(62,261,cs),
(62,97,o),
(133,-12,o),
(261,-12,cs),
(332,-12,o),
(389,26,o),
(422,88,c),
(419,151,l),
(381,94,o),
(344,61,o),
(281,61,cs),
(205,61,o),
(161,124,o),
(161,263,cs),
(161,400,o),
(210,466,o),
(289,466,cs),
(346,466,o),
(385,434,o),
(420,385,c),
(421,463,l),
(385,505,o),
(337,539,o),
(269,539,cs)
);
},
{
closed = 1;
nodes = (
(411,123,l),
(411,89,l),
(422,0,l),
(503,0,l),
(503,739,l),
(411,750,l)
);
}
);
width = 598;
}
);
metricLeft = "=o+5";
metricRight = "=|n";
unicode = (100,120253);
}
{
color = 4;
glyphname = e;
layers = (
{
anchors = (
{
name = bottom;
pos = (294,0);
},
{
name = math.ta;
pos = (285,0);
},
{
name = ogonek;
pos = (455,11);
},
{
name = top;
pos = (285,534);
}
);
layerId = "B26C53A4-97D1-457B-8232-65310EC64496";
shapes = (
{
closed = 1;
nodes = (
(106,554,o),
(17,422,o),
(17,266,cs),
(17,101,o),
(109,-20,o),
(305,-20,cs),
(398,-20,o),
(472,16,o),
(525,59,c),
(445,167,l),
(399,135,o),
(362,120,o),
(324,120,cs),
(255,120,o),
(214,140,o),
(214,263,cs),
(214,393,o),
(236,429,o),
(287,429,cs),
(338,429,o),
(349,384,o),
(350,330,cs),
(350,328,o),
(350,325,o),
(350,323,c),
(200,323,l),
(200,211,l),
(541,211,l),
(543,230,o),
(545,257,o),
(545,274,cs),
(545,453,o),
(441,554,o),
(283,554,cs)
);
}
);
width = 557;
},
{
anchors = (
{
name = bottom;
pos = (276,0);
},
{
name = math.ta;
pos = (276,0);
},
{
name = ogonek;
pos = (364,4);
},
{
name = top;
pos = (276,517);
}
);
layerId = "D42A05F0-DBDC-4569-915A-03C7188507B6";
shapes = (
{
closed = 1;
nodes = (
(156,527,o),
(80,426,o),
(80,253,cs),
(80,85,o),
(157,-9,o),
(276,-9,cs),
(343,-9,o),
(385,13,o),
(430,50,c),
(429,52,l),
(384,14,o),
(341,-7,o),
(276,-7,cs),
(159,-7,o),
(82,86,o),
(82,253,c),
(82,424,o),
(157,525,o),
(276,525,cs),
(398,525,o),
(451,422,o),
(451,288,cs),
(451,275,o),
(451,267,o),
(450,254,c),
(81,254,l),
(81,252,l),
(452,252,l),
(453,266,o),
(453,274,o),
(453,288,cs),
(453,424,o),
(399,527,o),
(276,527,cs)
);
}
);
width = 528;
},
{
anchors = (
{
name = bottom;
pos = (286,0);
},
{
name = math.ta;
pos = (274,0);
},
{
name = ogonek;
pos = (375,5);
},
{
name = top;
pos = (274,520);
}
);
layerId = "B2FE45D6-EF48-417F-ACCD-B60D15D1CAF3";
shapes = (
{
closed = 1;
nodes = (
(150,530,o),
(70,426,o),
(70,256,cs),
(70,88,o),
(153,-10,o),
(282,-10,cs),
(349,-10,o),
(397,13,o),
(443,52,c),
(426,74,l),
(381,38,o),
(343,18,o),
(282,18,cs),
(179,18,o),
(101,91,o),
(101,256,cs),
(101,428,o),
(180,502,o),
(273,502,cs),
(384,502,o),
(434,416,o),
(434,294,cs),
(434,280,o),
(434,276,o),
(434,270,c),
(96,270,l),
(96,244,l),
(462,244,l),
(463,253,o),
(464,268,o),
(464,283,cs),
(464,431,o),
(401,530,o),
(271,530,cs)
);
}
);
width = 529;
},
{
anchors = (
{
name = bottom;
pos = (293,0);
},
{
name = math.ta;
pos = (279,0);
},
{
name = ogonek;
pos = (399,6);
},
{
name = top;
pos = (279,527);
}
);
layerId = "D92A4C0B-EB2A-4209-AFE3-2959A8B274DD";
shapes = (
{
closed = 1;
nodes = (
(140,539,o),
(57,422,o),
(57,258,cs),
(57,91,o),
(143,-12,o),
(290,-12,cs),
(363,-12,o),
(422,13,o),
(474,54,c),
(434,109,l),
(388,77,o),
(349,63,o),
(297,63,cs),
(214,63,o),
(154,118,o),
(154,265,cs),
(154,407,o),
(201,466,o),
(278,466,cs),
(361,466,o),
(402,409,o),
(402,306,cs),
(402,304,o),
(402,302,o),
(402,300,c),
(139,300,l),
(139,232,l),
(491,232,l),
(492,244,o),
(493,261,o),
(493,279,cs),
(493,440,o),
(418,539,o),
(276,539,cs)
);
}
);
width = 545;
}
);
metricLeft = o;
metricRight = "=o-5";
unicode = (101,120254);
}
{
color = 4;
glyphname = g;
layers = (
{
anchors = (
{
name = bottom;
pos = (252,-215);
},
{
name = top;
pos = (285,534);
}
);
layerId = "B26C53A4-97D1-457B-8232-65310EC64496";
shapes = (
{
closed = 1;
nodes = (
(461,591,o),
(382,550,o),
(271,554,c),
(119,554,o),
(20,481,o),
(20,353,cs),
(20,284,o),
(47,236,o),
(120,197,c),
(81,174,o),
(52,132,o),
(52,90,cs),
(52,31,o),
(102,-17,o),
(232,-17,cs),
(306,-17,ls),
(350,-17,o),
(363,-37,o),
(363,-56,cs),
(363,-78,o),
(352,-102,o),
(272,-102,cs),
(188,-102,o),
(172,-88,o),
(172,-49,c),
(-5,-49,l),
(-5,-153,o),
(47,-227,o),
(266,-227,cs),
(459,-227,o),
(562,-155,o),
(562,-42,cs),
(562,51,o),
(479,117,o),
(345,117,cs),
(268,117,ls),
(219,117,o),
(216,132,o),
(216,142,cs),
(216,150,o),
(220,157,o),
(228,161,c),
(246,158,o),
(264,158,o),
(285,158,cs),
(431,158,o),
(522,233,o),
(522,334,cs),
(522,408,o),
(488,445,o),
(418,474,c),
(488,474,o),
(537,483,o),
(570,498,c),
(527,636,l)
);
},
{
closed = 1;
nodes = (
(318,426,o),
(338,407,o),
(338,360,cs),
(338,308,o),
(317,284,o),
(277,284,cs),
(243,284,o),
(216,306,o),
(216,357,cs),
(216,403,o),
(242,426,o),
(277,426,cs)
);
}
);
userData = {
math = {
topAccent = 285;
};
};
width = 570;
},
{
anchors = (
{
name = bottom;
pos = (252,-188);
},
{
name = top;
pos = (244,517);
}
);
layerId = "D42A05F0-DBDC-4569-915A-03C7188507B6";
shapes = (
{
closed = 1;
nodes = (
(425,535,o),
(397,527,o),
(241,527,cs),
(145,527,o),
(75,460,o),
(75,357,cs),
(75,286,o),
(112,241,o),
(162,215,c),
(132,195,o),
(106,168,o),
(106,128,cs),
(106,82,o),
(143,54,o),
(217,54,cs),
(308,54,ls),
(397,54,o),
(450,10,o),
(450,-59,cs),
(450,-145,o),
(386,-190,o),
(252,-190,cs),
(116,-190,o),
(57,-157,o),
(57,-60,c),
(55,-60,l),
(55,-158,o),
(115,-192,o),
(252,-192,cs),
(387,-192,o),
(452,-146,o),
(452,-59,cs),
(452,10,o),
(400,56,o),
(308,56,cs),
(217,56,ls),
(144,56,o),
(108,83,o),
(108,128,cs),
(108,165,o),
(132,194,o),
(164,214,c),
(189,202,o),
(217,194,o),
(249,194,cs),
(351,194,o),
(419,252,o),
(419,356,cs),
(419,447,o),
(371,512,o),
(272,525,c),
(378,525,o),
(428,532,o),
(462,542,c),
(462,544,l)
);
},
{
closed = 1;
nodes = (
(329,525,o),
(417,481,o),
(417,356,cs),
(417,253,o),
(349,196,o),
(249,196,cs),
(167,196,o),
(77,250,o),
(77,357,cs),
(77,455,o),
(143,525,o),
(241,525,cs)
);
}
);
userData = {
math = {
topAccent = 244;
};
};
width = 487;
},
{
anchors = (
{
name = bottom;
pos = (252,-193);
},
{
name = top;
pos = (245,520);
}
);
layerId = "B2FE45D6-EF48-417F-ACCD-B60D15D1CAF3";
shapes = (
{
closed = 1;
nodes = (
(421,538,o),
(392,529,o),
(244,530,cs),
(131,530,o),
(62,461,o),
(62,359,cs),
(62,288,o),
(91,240,o),
(149,210,c),
(115,189,o),
(92,161,o),
(92,125,cs),
(92,77,o),
(135,39,o),
(216,39,cs),
(302,39,ls),
(383,39,o),
(430,3,o),
(430,-58,cs),
(430,-127,o),
(379,-171,o),
(251,-171,cs),
(118,-171,o),
(72,-141,o),
(70,-57,c),
(40,-57,l),
(40,-159,o),
(104,-199,o),
(251,-199,cs),
(395,-199,o),
(461,-144,o),
(461,-56,cs),
(461,17,o),
(404,67,o),
(304,67,cs),
(218,67,ls),
(148,67,o),
(123,94,o),
(123,130,cs),
(123,159,o),
(142,183,o),
(174,200,c),
(193,193,o),
(217,189,o),
(243,189,cs),
(355,189,o),
(423,255,o),
(423,356,cs),
(423,437,o),
(387,482,o),
(337,506,c),
(403,507,o),
(445,512,o),
(474,520,c),
(464,553,l)
);
},
{
closed = 1;
nodes = (
(345,503,o),
(392,442,o),
(392,356,cs),
(392,267,o),
(338,216,o),
(243,216,cs),
(157,216,o),
(93,264,o),
(93,359,cs),
(93,443,o),
(141,503,o),
(245,503,cs)
);
}
);
userData = {
math = {
topAccent = 245;
};
};
width = 489;
},
{
anchors = (
{
name = bottom;
pos = (252,-202);
},
{
name = top;
pos = (260,527);
}
);
layerId = "D92A4C0B-EB2A-4209-AFE3-2959A8B274DD";
shapes = (
{
closed = 1;
nodes = (
(431,558,o),
(383,536,o),
(252,539,cs),
(136,539,o),
(49,463,o),
(49,355,cs),
(49,287,o),
(77,241,o),
(138,209,c),
(100,184,o),
(80,150,o),
(80,116,cs),
(80,63,o),
(122,16,o),
(216,16,cs),
(299,16,ls),
(365,16,o),
(405,-9,o),
(405,-59,cs),
(405,-112,o),
(365,-141,o),
(251,-141,cs),
(135,-141,o),
(108,-113,o),
(108,-53,c),
(25,-53,l),
(25,-160,o),
(79,-213,o),
(251,-213,cs),
(414,-213,o),
(498,-155,o),
(498,-53,cs),
(498,31,o),
(426,93,o),
(318,93,cs),
(234,93,ls),
(180,93,o),
(165,112,o),
(165,136,cs),
(165,155,o),
(176,174,o),
(191,185,c),
(213,178,o),
(234,175,o),
(258,175,cs),
(384,175,o),
(459,250,o),
(459,354,cs),
(459,415,o),
(428,459,o),
(366,487,c),
(426,487,o),
(476,489,o),
(520,503,c),
(493,586,l)
);
},
{
closed = 1;
nodes = (
(327,473,o),
(365,433,o),
(365,356,cs),
(365,280,o),
(326,236,o),
(254,236,cs),
(182,236,o),
(143,285,o),
(143,355,cs),
(143,424,o),
(181,473,o),
(252,473,cs)
);
}
);
userData = {
math = {
topAccent = 260;
};
};
width = 520;
}
);
unicode = 103;
}
{
color = 4;
glyphname = k;
layers = (
{
anchors = (
{
name = bottom;
pos = (288,0);
},
{
name = top;
pos = (307,744);
}
);
layerId = "B26C53A4-97D1-457B-8232-65310EC64496";
shapes = (
{
closed = 1;
nodes = (
(387,534,l),
(244,292,l),
(372,0,l),
(591,0,l),
(442,300,l),
(583,534,l)
);
},
{
closed = 1;
nodes = (
(42,744,l),
(42,0,l),
(240,0,l),
(240,764,l)
);
}
);
userData = {
math = {
topAccent = 307;
};
};
width = 576;
},
{
anchors = (
{
name = bottom;
pos = (269,0);
},
{
name = top;
pos = (260,727);
}
);
layerId = "D42A05F0-DBDC-4569-915A-03C7188507B6";
shapes = (
{
closed = 1;
nodes = (
(393,517,l),
(133,283,l),
(420,0,l),
(423,0,l),
(136,283,l),
(396,517,l)
);
},
{
closed = 1;
nodes = (
(125,730,l),
(125,0,l),
(127,0,l),
(127,730,l)
);
}
);
userData = {
math = {
topAccent = 260;
};
};
width = 448;
},
{
anchors = (
{
name = bottom;
pos = (268,0);
},
{
name = top;
pos = (260,734);
}
);
layerId = "B2FE45D6-EF48-417F-ACCD-B60D15D1CAF3";
shapes = (
{
closed = 1;
nodes = (
(392,520,l),
(151,284,l),
(417,0,l),
(454,0,l),
(189,285,l),
(430,520,l)
);
},
{
closed = 1;
nodes = (
(115,734,l),
(115,0,l),
(145,0,l),
(145,738,l)
);
}
);
userData = {
math = {
topAccent = 260;
};
};
width = 469;
},
{
anchors = (
{
name = bottom;
pos = (255,0);
},
{
name = top;
pos = (280,739);
}
);
layerId = "D92A4C0B-EB2A-4209-AFE3-2959A8B274DD";
shapes = (
{
closed = 1;
nodes = (
(387,527,l),
(193,288,l),
(402,0,l),
(512,0,l),
(296,294,l),
(490,527,l)
);
},
{
closed = 1;
nodes = (
(95,739,l),
(95,0,l),
(187,0,l),
(187,750,l)
);
}
);
userData = {
math = {
topAccent = 280;
};
};
width = 512;
}
);
metricLeft = n;
unicode = 107;
}
{
color = 4;
glyphname = l;
layers = (
{
anchors = (
{
name = bottom;
pos = (186,0);
},
{
name = center;
pos = (389,373);
},
{
name = top;
pos = (136,744);
},
{
name = topright;
pos = (245,744);
}
);
layerId = "B26C53A4-97D1-457B-8232-65310EC64496";
shapes = (
{
closed = 1;
nodes = (
(250,-20,o),
(289,-12,o),
(315,-2,c),
(280,139,l),
(275,137,o),
(268,135,o),
(259,135,cs),
(243,135,o),
(235,144,o),
(235,162,cs),
(235,764,l),
(37,744,l),
(37,154,ls),
(37,43,o),
(97,-20,o),
(205,-20,cs)
);
}
);
width = 300;
},
{
anchors = (
{
name = bottom;
pos = (174,0);
},
{
name = center;
pos = (256,375);
},
{
name = top;
pos = (121,730);
},
{
name = topright;
pos = (182,727);
}
);
layerId = "D42A05F0-DBDC-4569-915A-03C7188507B6";
shapes = (
{
closed = 1;
nodes = (
(194,-9,o),
(208,-6,o),
(220,-1,c),
(220,1,l),
(208,-4,o),
(194,-7,o),
(179,-7,cs),
(140,-7,o),
(122,21,o),
(122,64,cs),
(122,730,l),
(120,730,l),
(120,64,ls),
(120,19,o),
(139,-9,o),
(179,-9,cs)
);
}
);
width = 275;
},
{
anchors = (
{
name = bottom;
pos = (179,0);
},
{
name = center;
pos = (262,375);
},
{
name = top;
pos = (125,734);
},
{
name = topright;
pos = (170,734);
}
);
layerId = "B2FE45D6-EF48-417F-ACCD-B60D15D1CAF3";
shapes = (
{
closed = 1;
nodes = (
(206,-10,o),
(224,-5,o),
(237,1,c),
(228,26,l),
(216,21,o),
(203,18,o),
(189,18,cs),
(157,18,o),
(140,37,o),
(140,76,cs),
(140,738,l),
(110,734,l),
(110,75,ls),
(110,15,o),
(143,-10,o),
(188,-10,cs)
);
}
);
width = 277;
},
{
anchors = (
{
name = bottom;
pos = (178,0);
},
{
name = center;
pos = (297,380);
},
{
name = top;
pos = (136,739);
},
{
name = topright;
pos = (193,739);
}
);
layerId = "D92A4C0B-EB2A-4209-AFE3-2959A8B274DD";
shapes = (
{
closed = 1;
nodes = (
(227,-12,o),
(253,-5,o),
(273,6,c),
(249,70,l),
(239,66,o),
(228,64,o),
(215,64,cs),
(191,64,o),
(182,78,o),
(182,106,cs),
(182,750,l),
(90,739,l),
(90,104,ls),
(90,29,o),
(133,-12,o),
(200,-12,c)
);
}
);
userData = {
math = {
topAccent = 136;
};
};
width = 293;
}
);
metricLeft = "=n-5";
unicode = 108;
}
{
color = 4;
glyphname = m;
layers = (
{
anchors = (
{
name = bottom;
pos = (419,0);
},
{
name = top;
pos = (419,534);
}
);
background = {
shapes = (
{
closed = 1;
nodes = (
(608,554,o),
(556,533,o),
(504,478,c),
(483,527,o),
(440,554,o),
(380,554,cs),
(325,554,o),
(278,532,o),
(229,478,c),
(215,534,l),
(42,534,l),
(42,0,l),
(240,0,l),
(240,362,l),
(263,399,o),
(282,410,o),
(297,410,cs),
(313,410,o),
(322,399,o),
(322,359,cs),
(322,0,l),
(520,0,l),
(520,362,l),
(543,399,o),
(562,410,o),
(577,410,cs),
(592,410,o),
(602,400,o),
(602,367,cs),
(602,0,l),
(800,0,l),
(800,394,ls),
(800,496,o),
(749,554,o),
(660,554,cs)
);
}
);
};
layerId = "B26C53A4-97D1-457B-8232-65310EC64496";
shapes = (
{
closed = 1;
nodes = (
(314,554,o),
(263,527,o),
(216,464,c),
(240,357,l),
(256,393,o),
(276,410,o),
(295,410,cs),
(310,410,o),
(322,400,o),
(322,358,c),
(322,0,l),
(520,0,l),
(520,394,l),
(514,447,l),
(498,516,o),
(449,554,o),
(384,554,cs)
);
},
{
closed = 1;
nodes = (
(42,534,l),
(42,0,l),
(240,0,l),
(240,435,l),
(215,534,l)
);
},
{
closed = 1;
nodes = (
(594,554,o),
(543,528,o),
(496,466,c),
(520,357,l),
(536,393,o),
(556,410,o),
(575,410,cs),
(590,410,o),
(602,400,o),
(602,358,c),
(602,0,l),
(800,0,l),
(800,394,ls),
(800,496,o),
(744,554,o),
(664,554,cs)
);
}
);
width = 837;
},
{
anchors = (
{
name = bottom;
pos = (423,0);
},
{
name = top;
pos = (423,517);
}
);
background = {
shapes = (
{
closed = 1;
nodes = (
(525,527,o),
(467,481,o),
(426,399,c),
(425,477,o),
(385,527,o),
(307,527,cs),
(227,527,o),
(171,474,o),
(127,400,c),
(127,517,l),
(125,517,l),
(125,0,l),
(127,0,l),
(127,397,l),
(171,472,o),
(228,525,o),
(307,525,cs),
(385,525,o),
(424,474,o),
(424,395,cs),
(424,0,l),
(426,0,l),
(426,395,l),
(466,478,o),
(525,525,o),
(604,525,cs),
(693,525,o),
(723,471,o),
(723,372,cs),
(723,0,l),
(725,0,l),
(725,372,ls),
(725,472,o),
(694,527,o),
(604,527,cs)
);
}
);
};
layerId = "D42A05F0-DBDC-4569-915A-03C7188507B6";
shapes = (
{
closed = 1;
nodes = (
(223,527,o),
(168,475,o),
(126,389,c),
(127,387,l),
(169,473,o),
(224,525,o),
(301,525,cs),
(385,525,o),
(424,464,o),
(424,378,cs),
(424,0,l),
(426,0,l),
(426,388,l),
(426,389,l),
(423,473,o),
(380,527,o),
(301,527,cs)
);
},
{
closed = 1;
nodes = (
(125,517,l),
(125,0,l),
(127,0,l),
(127,389,l),
(127,517,l)
);
},
{
closed = 1;
nodes = (
(522,527,o),
(467,475,o),
(425,389,c),
(426,387,l),
(468,473,o),
(523,525,o),
(600,525,cs),
(684,525,o),
(723,464,o),
(723,368,cs),
(723,0,l),
(725,0,l),
(725,368,ls),
(725,465,o),
(685,527,o),
(600,527,cs)
);
}
);
width = 845;
},
{
anchors = (
{
name = bottom;
pos = (425,0);
},
{
name = top;
pos = (425,520);
}
);
background = {
shapes = (
{
closed = 1;
nodes = (
(537,530,o),
(488,492,o),
(438,426,c),
(426,488,o),
(382,530,o),
(312,530,cs),
(240,530,o),
(195,489,o),
(143,428,c),
(141,520,ls),
(115,520,ls),
(115,0,l),
(145,0,l),
(145,389,l),
(192,450,o),
(241,502,o),
(309,502,cs),
(375,502,o),
(412,458,o),
(412,376,cs),
(412,0,l),
(442,0,l),
(442,389,l),
(485,448,o),
(538,502,o),
(606,502,cs),
(674,502,o),
(709,463,o),
(709,373,cs),
(709,0,l),
(739,0,l),
(739,379,ls),
(739,476,o),
(695,530,o),
(607,530,cs)
);
}
);
};
layerId = "B2FE45D6-EF48-417F-ACCD-B60D15D1CAF3";
shapes = (
{
closed = 1;
nodes = (
(241,530,o),
(178,480,o),
(136,409,c),
(145,383,l),
(188,453,o),
(243,503,o),
(311,503,cs),
(377,503,o),
(412,457,o),
(412,366,cs),
(412,0,l),
(442,0,l),
(442,389,l),
(440,406,l),
(430,484,o),
(385,530,o),
(312,530,cs)
);
},
{
closed = 1;
nodes = (
(115,520,l),
(115,0,l),
(145,0,l),
(145,389,l),
(141,520,l)
);
},
{
closed = 1;
nodes = (
(538,530,o),
(475,480,o),
(433,409,c),
(442,383,l),
(485,453,o),
(540,503,o),
(608,503,cs),
(673,503,o),
(709,457,o),
(709,366,cs),
(709,0,l),
(739,0,l),
(739,370,ls),
(739,470,o),
(692,530,o),
(609,530,cs)
);
}
);
width = 849;
},
{
anchors = (
{
name = bottom;
pos = (429,0);
},
{
name = top;
pos = (429,527);
}
);
background = {
shapes = (
{
closed = 1;
nodes = (
(568,539,o),
(509,506,o),
(467,455,c),
(450,509,o),
(409,539,o),
(337,539,cs),
(279,539,o),
(223,509,o),
(181,455,c),
(174,527,l),
(95,527,l),
(95,0,l),
(187,0,l),
(187,382,l),
(215,425,o),
(258,467,o),
(307,467,cs),
(358,467,o),
(385,439,o),
(385,368,cs),
(385,0,l),
(477,0,l),
(477,382,l),
(505,425,o),
(552,467,o),
(602,467,cs),
(656,467,o),
(675,439,o),
(675,371,cs),
(675,0,l),
(767,0,l),
(767,383,ls),
(767,481,o),
(728,539,o),
(627,539,cs)
);
}
);
};
layerId = "D92A4C0B-EB2A-4209-AFE3-2959A8B274DD";
shapes = (
{
closed = 1;
nodes = (
(258,539,o),
(207,495,o),
(171,432,c),
(187,374,l),
(222,430,o),
(254,467,o),
(311,467,cs),
(351,467,o),
(385,444,o),
(385,365,cs),
(385,0,l),
(477,0,l),
(477,378,l),
(475,407,l),
(465,489,o),
(411,539,o),
(334,539,cs)
);
},
{
closed = 1;
nodes = (
(95,527,l),
(95,0,l),
(187,0,l),
(187,398,l),
(174,527,l)
);
},
{
closed = 1;
nodes = (
(548,539,o),
(498,495,o),
(459,432,c),
(477,374,l),
(513,430,o),
(544,467,o),
(601,467,cs),
(641,467,o),
(675,444,o),
(675,365,cs),
(675,0,l),
(767,0,l),
(767,378,ls),
(767,477,o),
(710,539,o),
(624,539,cs)
);
}
);
width = 857;
}
);
metricLeft = n;
metricRight = n;
unicode = 109;
}
{
color = 4;
glyphname = n;
layers = (
{
anchors = (
{
name = bottom;
pos = (286,0);
},
{
name = top;
pos = (291,534);
},
{
name = topleft;
pos = (33,534);
}
);
layerId = "B26C53A4-97D1-457B-8232-65310EC64496";
shapes = (
{
closed = 1;
nodes = (
(321,554,o),
(270,527,o),
(216,464,c),
(240,357,l),
(263,393,o),
(286,410,o),
(307,410,cs),
(325,410,o),
(337,400,o),
(337,358,c),
(337,0,l),
(535,0,l),
(535,394,ls),
(535,496,o),
(480,554,o),
(391,554,cs)
);
},
{
closed = 1;
nodes = (
(42,534,l),
(42,0,l),
(240,0,l),
(240,435,l),
(215,534,l)
);
}
);
width = 572;
},
{
anchors = (
{
name = bottom;
pos = (287,0);
},
{
name = top;
pos = (295,517);
},
{
name = topleft;
pos = (115,517);
}
);
layerId = "D42A05F0-DBDC-4569-915A-03C7188507B6";
shapes = (
{
closed = 1;
nodes = (
(238,527,o),
(174,475,o),
(126,389,c),
(127,387,l),
(175,473,o),
(239,525,o),
(326,525,cs),
(420,525,o),
(458,466,o),
(458,368,cs),
(458,0,l),
(460,0,l),
(460,368,ls),
(460,467,o),
(421,527,o),
(326,527,cs)
);
},
{
closed = 1;
nodes = (
(125,517,l),
(125,0,l),
(127,0,l),
(127,389,l),
(127,517,l)
);
}
);
width = 580;
},
{
anchors = (
{
name = bottom;
pos = (289,0);
},
{
name = top;
pos = (297,520);
},
{
name = topleft;
pos = (105,520);
}
);
layerId = "B2FE45D6-EF48-417F-ACCD-B60D15D1CAF3";
shapes = (
{
closed = 1;
nodes = (
(246,530,o),
(183,480,o),
(136,409,c),
(145,383,l),
(194,453,o),
(249,503,o),
(331,503,cs),
(405,503,o),
(442,459,o),
(442,366,cs),
(442,0,l),
(472,0,l),
(472,370,ls),
(472,472,o),
(426,530,o),
(332,530,cs)
);
},
{
closed = 1;
nodes = (
(115,520,l),
(115,0,l),
(145,0,l),
(145,389,l),
(141,520,l)
);
}
);
width = 582;
},
{
anchors = (
{
name = bottom;
pos = (293,0);
},
{
name = top;
pos = (298,527);
},
{
name = topleft;
pos = (85,527);
}
);
layerId = "D92A4C0B-EB2A-4209-AFE3-2959A8B274DD";
shapes = (
{
closed = 1;
nodes = (
(267,539,o),
(207,495,o),
(171,432,c),
(187,374,l),
(222,430,o),
(262,467,o),
(321,467,cs),
(372,467,o),
(404,444,o),
(404,365,cs),
(404,0,l),
(496,0,l),
(496,378,ls),
(496,478,o),
(440,539,o),
(343,539,cs)
);
},
{
closed = 1;
nodes = (
(95,527,l),
(95,0,l),
(187,0,l),
(187,398,l),
(174,527,l)
);
}
);
width = 586;
}
);
unicode = 110;
}
{
color = 4;
glyphname = o;
layers = (
{
anchors = (
{
name = bottom;
pos = (292,0);
},
{
name = ogonek;
pos = (415,0);
},
{
name = top;
pos = (292,534);
},
{
name = topright;
pos = (509,534);
}
);
layerId = "B26C53A4-97D1-457B-8232-65310EC64496";
shapes = (
{
closed = 1;
nodes = (
(122,554,o),
(17,442,o),
(17,268,cs),
(17,82,o),
(124,-20,o),
(292,-20,c),
(462,-20,o),
(567,92,o),
(567,266,cs),
(567,452,o),
(460,554,o),
(292,554,c)
);
},
{
closed = 1;
nodes = (
(342,412,o),
(364,372,o),
(364,266,cs),
(364,165,o),
(342,122,o),
(292,122,c),
(242,122,o),
(220,162,o),
(220,268,cs),
(220,369,o),
(242,412,o),
(292,412,c)
);
}
);
userData = {
math = {
topAccent = 292;
};
};
width = 584;
},
{
anchors = (
{
name = bottom;
pos = (280,0);
},
{
name = ogonek;
pos = (348,0);
},
{
name = top;
pos = (280,517);
},
{
name = topright;
pos = (431,517);
}
);
layerId = "D42A05F0-DBDC-4569-915A-03C7188507B6";
shapes = (
{
closed = 1;
nodes = (
(160,527,o),
(80,431,o),
(80,258,cs),
(80,91,o),
(155,-9,o),
(279,-9,cs),
(402,-9,o),
(479,89,o),
(479,262,cs),
(479,429,o),
(403,527,o),
(281,527,cs)
);
},
{
closed = 1;
nodes = (
(402,525,o),
(477,428,o),
(477,262,cs),
(477,90,o),
(401,-7,o),
(279,-7,cs),
(156,-7,o),
(82,92,o),
(82,258,cs),
(82,430,o),
(161,525,o),
(281,525,cs)
);
}
);
userData = {
math = {
topAccent = 280;
};
};
width = 559;
},
{
anchors = (
{
name = bottom;
pos = (281,0);
},
{
name = ogonek;
pos = (355,0);
},
{
name = top;
pos = (281,520);
},
{
name = topright;
pos = (453,520);
}
);
layerId = "B2FE45D6-EF48-417F-ACCD-B60D15D1CAF3";
shapes = (
{
closed = 1;
nodes = (
(154,530,o),
(70,431,o),
(70,259,cs),
(70,91,o),
(150,-10,o),
(280,-10,cs),
(408,-10,o),
(491,89,o),
(491,262,cs),
(491,436,o),
(410,530,o),
(281,530,cs)
);
},
{
closed = 1;
nodes = (
(393,502,o),
(460,418,o),
(460,262,cs),
(460,103,o),
(390,18,o),
(280,18,cs),
(169,18,o),
(101,105,o),
(101,259,cs),
(101,419,o),
(172,502,o),
(281,502,cs)
);
}
);
userData = {
math = {
topAccent = 281;
};
};
width = 561;
},
{
anchors = (
{
name = bottom;
pos = (292,0);
},
{
name = ogonek;
pos = (380,0);
},
{
name = top;
pos = (292,527);
},
{
name = topright;
pos = (476,527);
}
);
layerId = "D92A4C0B-EB2A-4209-AFE3-2959A8B274DD";
shapes = (
{
closed = 1;
nodes = (
(143,539,o),
(57,426,o),
(57,263,cs),
(57,96,o),
(142,-12,o),
(292,-12,cs),
(441,-12,o),
(527,101,o),
(527,264,cs),
(527,431,o),
(443,539,o),
(293,539,cs)
);
},
{
closed = 1;
nodes = (
(380,465,o),
(428,401,o),
(428,264,cs),
(428,126,o),
(380,62,o),
(292,62,cs),
(204,62,o),
(156,126,o),
(156,263,cs),
(156,401,o),
(205,465,o),
(293,465,cs)
);
}
);
userData = {
math = {
topAccent = 292;
};
};
width = 584;
}
);
unicode = (111,120264);
}
{
color = 4;
glyphname = p;
layers = (
{
anchors = (
{
name = bottom;
pos = (300,-215);
},
{
name = top;
pos = (300,534);
}
);
layerId = "B26C53A4-97D1-457B-8232-65310EC64496";
shapes = (
{
closed = 1;
nodes = (
(325,554,o),
(261,534,o),
(213,465,c),
(229,340,l),
(251,392,o),
(280,412,o),
(310,412,cs),
(346,412,o),
(374,395,o),
(374,266,cs),
(374,158,o),
(343,121,o),
(299,121,cs),
(270,121,o),
(251,136,o),
(228,178,c),
(229,47,l),
(262,2,o),
(308,-20,o),
(364,-20,cs),
(492,-20,o),
(577,103,o),
(577,269,cs),
(577,445,o),
(512,554,o),
(377,554,cs)
);
},
{
closed = 1;
nodes = (
(42,534,l),
(42,-227,l),
(240,-207,l),
(240,378,l),
(228,466,l),
(218,534,l)
);
}
);
userData = {
math = {
topAccent = 300;
};
};
width = 599;
},
{
anchors = (
{
name = bottom;
pos = (284,-188);
},
{
name = top;
pos = (284,517);
}
);
layerId = "D42A05F0-DBDC-4569-915A-03C7188507B6";
shapes = (
{
closed = 1;
nodes = (
(222,527,o),
(169,481,o),
(126,420,c),
(126,417,l),
(172,482,o),
(224,525,o),
(306,525,cs),
(420,525,o),
(480,429,o),
(480,264,cs),
(480,97,o),
(419,-7,o),
(302,-7,cs),
(223,-7,o),
(168,37,o),
(126,103,c),
(126,100,l),
(166,36,o),
(222,-9,o),
(302,-9,cs),
(420,-9,o),
(482,95,o),
(482,264,cs),
(482,431,o),
(420,527,o),
(306,527,cs)
);
},
{
closed = 1;
nodes = (
(125,517,l),
(125,-190,l),
(127,-190,l),
(127,419,l),
(127,421,l),
(127,517,l)
);
}
);
userData = {
math = {
topAccent = 284;
};
};
width = 567;
},
{
anchors = (
{
name = bottom;
pos = (285,-193);
},
{
name = top;
pos = (285,520);
}
);
background = {
shapes = (
{
closed = 1;
nodes = (
(245,530,o),
(191,493,o),
(147,423,c),
(145,520,l),
(119,520,l),
(119,-199,l),
(149,-193,l),
(149,80,l),
(192,16,o),
(244,-10,o),
(308,-10,cs),
(428,-10,o),
(499,95,o),
(499,264,cs),
(499,432,o),
(441,530,o),
(320,530,cs)
);
},
{
closed = 1;
nodes = (
(422,500,o),
(468,420,o),
(468,264,cs),
(468,103,o),
(415,20,o),
(309,20,cs),
(244,20,o),
(185,70,o),
(149,131,c),
(149,375,l),
(188,445,o),
(245,500,o),
(319,500,cs)
);
}
);
};
layerId = "B2FE45D6-EF48-417F-ACCD-B60D15D1CAF3";
shapes = (
{
closed = 1;
nodes = (
(232,530,o),
(176,488,o),
(138,432,c),
(139,398,l),
(185,460,o),
(230,502,o),
(309,502,cs),
(410,502,o),
(464,422,o),
(464,264,cs),
(464,105,o),
(407,18,o),
(302,18,cs),
(229,18,o),
(176,60,o),
(139,119,c),
(137,84,l),
(167,36,o),
(224,-10,o),
(303,-10,cs),
(428,-10,o),
(495,94,o),
(495,264,cs),
(495,436,o),
(429,530,o),
(309,530,cs)
);
},
{
closed = 1;
nodes = (
(115,520,l),
(115,-199,l),
(145,-193,l),
(145,412,l),
(144,421,l),
(141,520,l)
);
}
);
userData = {
math = {
topAccent = 285;
};
};
width = 570;
},
{
anchors = (
{
name = bottom;
pos = (297,-202);
},
{
name = top;
pos = (297,527);
}
);
layerId = "D92A4C0B-EB2A-4209-AFE3-2959A8B274DD";
shapes = (
{
closed = 1;
nodes = (
(271,539,o),
(210,504,o),
(171,440,c),
(179,371,l),
(206,417,o),
(252,466,o),
(314,466,cs),
(393,466,o),
(433,401,o),
(433,264,cs),
(433,126,o),
(387,63,o),
(303,63,cs),
(249,63,o),
(205,92,o),
(178,142,c),
(177,61,l),
(211,11,o),
(262,-12,o),
(325,-12,cs),
(461,-12,o),
(532,104,o),
(532,264,cs),
(532,430,o),
(477,539,o),
(337,539,cs)
);
},
{
closed = 1;
nodes = (
(95,527,l),
(95,-213,l),
(187,-202,l),
(187,400,l),
(183,439,l),
(174,527,l)
);
}
);
userData = {
math = {
topAccent = 297;
};
};
width = 594;
}
);
metricLeft = n;
metricRight = "=o+5";
unicode = 112;
}
{
color = 4;
glyphname = q;
layers = (
{
anchors = (
{
name = bottom;
pos = (303,-215);
},
{
name = top;
pos = (303,534);
}
);
layerId = "B26C53A4-97D1-457B-8232-65310EC64496";
shapes = (
{
closed = 1;
nodes = (
(361,-207,l),
(559,-227,l),
(559,534,l),
(386,534,l),
(377,496,l),
(361,458,l)
);
},
{
closed = 1;
nodes = (
(111,554,o),
(22,436,o),
(22,270,cs),
(22,94,o),
(87,-20,o),
(225,-20,cs),
(309,-20,o),
(355,25,o),
(383,72,c),
(371,188,l),
(350,142,o),
(323,122,o),
(292,122,cs),
(256,122,o),
(225,140,o),
(225,268,cs),
(225,376,o),
(259,413,o),
(303,413,cs),
(333,413,o),
(350,396,o),
(374,368,c),
(386,487,l),
(345,536,o),
(298,554,o),
(246,554,cs)
);
}
);
userData = {
math = {
topAccent = 303;
};
};
width = 601;
},
{
anchors = (
{
name = bottom;
pos = (289,-188);
},
{
name = top;
pos = (289,517);
}
);
layerId = "D42A05F0-DBDC-4569-915A-03C7188507B6";
shapes = (
{
closed = 1;
nodes = (
(445,-190,l),
(447,-190,l),
(447,517,l),
(445,517,l),
(445,424,l),
(445,421,l)
);
},
{
closed = 1;
nodes = (
(156,527,o),
(85,417,o),
(85,257,cs),
(85,88,o),
(159,-9,o),
(272,-9,cs),
(365,-9,o),
(413,41,o),
(446,102,c),
(446,106,l),
(411,42,o),
(364,-7,o),
(272,-7,cs),
(160,-7,o),
(87,89,o),
(87,257,cs),
(87,415,o),
(158,525,o),
(281,525,cs),
(367,525,o),
(420,471,o),
(446,419,c),
(446,423,l),
(421,472,o),
(368,527,o),
(281,527,cs)
);
}
);
userData = {
math = {
topAccent = 289;
};
};
width = 572;
},
{
anchors = (
{
name = bottom;
pos = (290,-193);
},
{
name = top;
pos = (290,520);
}
);
layerId = "B2FE45D6-EF48-417F-ACCD-B60D15D1CAF3";
shapes = (
{
closed = 1;
nodes = (
(430,-193,l),
(460,-199,l),
(460,520,l),
(434,520,l),
(431,445,l),
(430,418,l)
);
},
{
closed = 1;
nodes = (
(151,530,o),
(75,419,o),
(75,258,cs),
(75,90,o),
(152,-10,o),
(269,-10,cs),
(358,-10,o),
(407,39,o),
(434,91,c),
(436,141,l),
(399,63,o),
(353,18,o),
(270,18,cs),
(170,18,o),
(106,106,o),
(106,258,cs),
(106,412,o),
(178,502,o),
(281,502,cs),
(361,502,o),
(408,454,o),
(438,403,c),
(437,445,l),
(411,484,o),
(366,530,o),
(280,530,cs)
);
}
);
userData = {
math = {
topAccent = 290;
};
};
width = 575;
},
{
anchors = (
{
name = bottom;
pos = (302,-202);
},
{
name = top;
pos = (302,527);
}
);
layerId = "D92A4C0B-EB2A-4209-AFE3-2959A8B274DD";
shapes = (
{
closed = 1;
nodes = (
(411,-202,l),
(503,-213,l),
(503,527,l),
(424,527,l),
(416,461,l),
(411,449,l)
);
},
{
closed = 1;
nodes = (
(140,539,o),
(62,422,o),
(62,261,cs),
(62,97,o),
(133,-12,o),
(261,-12,cs),
(332,-12,o),
(389,26,o),
(422,88,c),
(419,151,l),
(381,94,o),
(344,61,o),
(281,61,cs),
(205,61,o),
(161,124,o),
(161,263,cs),
(161,400,o),
(210,466,o),
(289,466,cs),
(346,466,o),
(385,434,o),
(420,385,c),
(421,463,l),
(385,505,o),
(337,539,o),
(269,539,cs)
);
}
);
userData = {
math = {
topAccent = 302;
};
};
width = 598;
}
);
metricLeft = "=o+5";
metricRight = "=|n";
unicode = (113,120266);
}
{
color = 4;
glyphname = r;
layers = (
{
anchors = (
{
name = bottom;
pos = (141,0);
},
{
name = top;
pos = (231,534);
}
);
layerId = "B26C53A4-97D1-457B-8232-65310EC64496";
shapes = (
{
closed = 1;
nodes = (
(302,551,o),
(244,496,o),
(227,417,c),
(236,223,l),
(251,301,o),
(270,359,o),
(340,359,cs),
(357,359,o),
(372,356,o),
(389,351,c),
(420,542,l),
(401,548,o),
(387,551,o),
(366,551,cs)
);
},
{
closed = 1;
nodes = (
(42,534,l),
(42,0,l),
(240,0,l),
(240,259,l),
(234,419,l),
(215,534,l)
);
}
);
userData = {
math = {
topAccent = 231;
};
};
width = 410;
},
{
anchors = (
{
name = bottom;
pos = (126,0);
},
{
name = top;
pos = (230,517);
}
);
layerId = "D42A05F0-DBDC-4569-915A-03C7188507B6";
shapes = (
{
closed = 1;
nodes = (
(208,527,o),
(159,484,o),
(126,372,c),
(126,365,l),
(160,482,o),
(208,525,o),
(290,525,cs),
(310,525,o),
(323,523,o),
(336,520,c),
(336,522,l),
(323,525,o),
(310,527,o),
(290,527,cs)
);
},
{
closed = 1;
nodes = (
(125,517,l),
(125,0,l),
(127,0,l),
(127,371,l),
(127,372,l),
(127,517,l)
);
}
);
userData = {
math = {
topAccent = 230;
};
};
width = 361;
},
{
anchors = (
{
name = bottom;
pos = (129,0);
},
{
name = top;
pos = (229,520);
}
);
layerId = "B2FE45D6-EF48-417F-ACCD-B60D15D1CAF3";
shapes = (
{
closed = 1;
nodes = (
(212,530,o),
(165,480,o),
(137,378,c),
(139,311,l),
(172,439,o),
(213,503,o),
(296,503,cs),
(313,503,o),
(329,501,o),
(342,497,c),
(348,524,l),
(337,527,o),
(320,530,o),
(296,530,cs)
);
},
{
closed = 1;
nodes = (
(115,520,l),
(115,0,l),
(145,0,l),
(145,346,l),
(142,384,l),
(141,520,l)
);
}
);
userData = {
math = {
topAccent = 229;
};
};
width = 363;
},
{
anchors = (
{
name = bottom;
pos = (141,0);
},
{
name = top;
pos = (238,527);
}
);
layerId = "D92A4C0B-EB2A-4209-AFE3-2959A8B274DD";
shapes = (
{
closed = 1;
nodes = (
(257,539,o),
(206,495,o),
(179,407,c),
(182,275,l),
(203,394,o),
(242,449,o),
(313,449,cs),
(332,449,o),
(343,447,o),
(359,443,c),
(376,533,l),
(360,537,o),
(341,539,o),
(324,539,cs)
);
},
{
closed = 1;
nodes = (
(95,527,l),
(95,0,l),
(187,0,l),
(187,315,l),
(184,410,l),
(174,527,l)
);
}
);
userData = {
math = {
topAccent = 238;
};
};
width = 386;
}
);
metricLeft = n;
unicode = 114;
}
{
color = 4;
glyphname = u;
layers = (
{
anchors = (
{
name = bottom;
pos = (281,0);
},
{
name = ogonek;
pos = (534,0);
},
{
name = top;
pos = (281,534);
},
{
name = topright;
pos = (534,534);
}
);
layerId = "B26C53A4-97D1-457B-8232-65310EC64496";
shapes = (
{
closed = 1;
nodes = (
(326,534,l),
(326,168,l),
(308,137,o),
(286,124,o),
(268,124,cs),
(249,124,o),
(235,134,o),
(235,176,cs),
(235,534,l),
(37,534,l),
(37,150,ls),
(37,48,o),
(82,-20,o),
(186,-20,cs),
(253,-20,o),
(307,6,o),
(344,58,c),
(351,0,l),
(524,0,l),
(524,534,l)
);
}
);
userData = {
math = {
topAccent = 281;
};
};
width = 566;
},
{
anchors = (
{
name = bottom;
pos = (290,0);
},
{
name = ogonek;
pos = (460,0);
},
{
name = top;
pos = (290,517);
},
{
name = topright;
pos = (460,517);
}
);
layerId = "D42A05F0-DBDC-4569-915A-03C7188507B6";
shapes = (
{
closed = 1;
nodes = (
(448,517,l),
(448,120,l),
(407,45,o),
(348,-7,o),
(261,-7,cs),
(175,-7,o),
(122,48,o),
(122,150,cs),
(122,517,l),
(120,517,l),
(120,150,ls),
(120,46,o),
(174,-9,o),
(261,-9,cs),
(347,-9,o),
(406,40,o),
(448,116,c),
(448,0,l),
(450,0,l),
(450,517,l)
);
}
);
userData = {
math = {
topAccent = 290;
};
};
width = 575;
},
{
anchors = (
{
name = bottom;
pos = (286,0);
},
{
name = ogonek;
pos = (472,0);
},
{
name = top;
pos = (286,520);
},
{
name = topright;
pos = (472,520);
}
);
layerId = "B2FE45D6-EF48-417F-ACCD-B60D15D1CAF3";
shapes = (
{
closed = 1;
nodes = (
(432,520,l),
(432,138,l),
(392,68,o),
(340,18,o),
(262,18,cs),
(184,18,o),
(140,59,o),
(140,151,cs),
(140,520,l),
(110,520,l),
(110,149,ls),
(110,46,o),
(164,-10,o),
(258,-10,cs),
(344,-10,o),
(402,41,o),
(435,102,c),
(436,0,l),
(462,0,l),
(462,520,l)
);
}
);
userData = {
math = {
topAccent = 286;
};
};
width = 577;
},
{
anchors = (
{
name = bottom;
pos = (289,0);
},
{
name = ogonek;
pos = (497,0);
},
{
name = top;
pos = (289,527);
},
{
name = topright;
pos = (497,527);
}
);
layerId = "D92A4C0B-EB2A-4209-AFE3-2959A8B274DD";
shapes = (
{
closed = 1;
nodes = (
(395,527,l),
(395,151,l),
(363,98,o),
(320,60,o),
(263,60,cs),
(206,60,o),
(182,87,o),
(182,159,cs),
(182,527,l),
(90,527,l),
(90,149,ls),
(90,46,o),
(145,-12,o),
(237,-12,cs),
(312,-12,o),
(361,18,o),
(401,82,c),
(408,0,l),
(487,0,l),
(487,527,l)
);
}
);
userData = {
math = {
topAccent = 289;
};
};
width = 582;
}
);
metricLeft = "=|n";
metricRight = "=|n";
unicode = (117,120270);
}
{
color = 4;
glyphname = x;
layers = (
{
anchors = (
{
name = bottom;
pos = (260,0);
},
{
name = bottomright;
pos = (478,0);
},
{
name = top;
pos = (263,534);
}
);
layerId = "B26C53A4-97D1-457B-8232-65310EC64496";
shapes = (
{
closed = 1;
nodes = (
(-6,534,l),
(143,280,l),
(257,184,l),
(327,0,l),
(548,0,l),
(383,286,l),
(265,377,l),
(213,534,l)
);
},
{
closed = 1;
nodes = (
(312,534,l),
(265,377,l),
(143,280,l),
(-20,0,l),
(193,0,l),
(257,184,l),
(383,286,l),
(519,534,l)
);
}
);
userData = {
math = {
topAccent = 263;
};
};
width = 528;
},
{
anchors = (
{
name = bottom;
pos = (212,0);
},
{
name = bottomright;
pos = (407,0);
},
{
name = top;
pos = (212,517);
}
);
background = {
shapes = (
{
closed = 1;
nodes = (
(52,517,l),
(209,278,l),
(210,276,l),
(211,276,l),
(397,0,l),
(399,0,l),
(212,278,l),
(211,280,l),
(210,280,l),
(54,517,l)
);
},
{
closed = 1;
nodes = (
(370,517,l),
(211,280,l),
(209,278,l),
(25,0,l),
(27,0,l),
(210,276,l),
(212,278,l),
(372,517,l)
);
}
);
};
layerId = "D42A05F0-DBDC-4569-915A-03C7188507B6";
shapes = (
{
closed = 1;
nodes = (
(52,517,l),
(209,278,l),
(210,277,l),
(397,0,l),
(399,0,l),
(211,278,l),
(210,279,l),
(54,517,l)
);
},
{
closed = 1;
nodes = (
(370,517,l),
(210,279,l),
(209,278,l),
(25,0,l),
(27,0,l),
(210,277,l),
(211,278,l),
(372,517,l)
);
}
);
userData = {
math = {
topAccent = 212;
};
};
width = 424;
},
{
anchors = (
{
name = bottom;
pos = (218,0);
},
{
name = bottomright;
pos = (412,0);
},
{
name = top;
pos = (219,520);
}
);
layerId = "B2FE45D6-EF48-417F-ACCD-B60D15D1CAF3";
shapes = (
{
closed = 1;
nodes = (
(40,520,l),
(199,278,l),
(217,260,l),
(386,0,l),
(422,0,l),
(236,279,l),
(218,297,l),
(75,520,l)
);
},
{
closed = 1;
nodes = (
(362,520,l),
(218,297,l),
(199,278,l),
(15,0,l),
(50,0,l),
(217,260,l),
(236,279,l),
(397,520,l)
);
}
);
userData = {
math = {
topAccent = 219;
};
};
width = 437;
},
{
anchors = (
{
name = bottom;
pos = (239,0);
},
{
name = bottomright;
pos = (436,0);
},
{
name = top;
pos = (245,527);
}
);
layerId = "D92A4C0B-EB2A-4209-AFE3-2959A8B274DD";
shapes = (
{
closed = 1;
nodes = (
(26,527,l),
(189,278,l),
(240,223,l),
(369,0,l),
(480,0,l),
(297,282,l),
(244,334,l),
(134,527,l)
);
},
{
closed = 1;
nodes = (
(355,527,l),
(244,334,l),
(189,278,l),
(5,0,l),
(109,0,l),
(240,223,l),
(297,282,l),
(459,527,l)
);
}
);
userData = {
math = {
topAccent = 245;
};
};
width = 485;
}
);
unicode = 120;
}
{
color = 4;
glyphname = y;
layers = (
{
anchors = (
{
name = bottom;
pos = (262,-215);
},
{
name = top;
pos = (267,534);
}
);
layerId = "B26C53A4-97D1-457B-8232-65310EC64496";
shapes = (
{
closed = 1;
nodes = (
(345,534,l),
(262,121,l),
(195,534,l),
(-15,534,l),
(137,0,l),
(205,0,l),
(177,-60,o),
(134,-83,o),
(32,-93,c),
(53,-228,l),
(232,-223,o),
(340,-147,o),
(385,1,cs),
(549,534,l)
);
}
);
width = 534;
},
{
anchors = (
{
name = bottom;
pos = (226,-188);
},
{
name = top;
pos = (217,517);
}
);
layerId = "D42A05F0-DBDC-4569-915A-03C7188507B6";
shapes = (
{
closed = 1;
nodes = (
(402,517,l),
(224,0,l),
(32,517,l),
(30,517,l),
(222,0,l),
(224,0,l),
(185,-112,o),
(163,-157,o),
(61,-187,c),
(61,-189,l),
(165,-159,o),
(187,-112,o),
(226,0,cs),
(404,517,l)
);
}
);
width = 434;
},
{
anchors = (
{
name = bottom;
pos = (226,-193);
},
{
name = top;
pos = (224,520);
}
);
layerId = "B2FE45D6-EF48-417F-ACCD-B60D15D1CAF3";
shapes = (
{
closed = 1;
nodes = (
(394,520,l),
(226,23,l),
(53,520,l),
(20,520,l),
(205,0,l),
(217,0,l),
(180,-100,o),
(158,-142,o),
(54,-173,c),
(58,-197,l),
(170,-165,o),
(205,-117,o),
(245,-2,cs),
(428,520,l)
);
}
);
width = 448;
},
{
anchors = (
{
name = bottom;
pos = (249,-202);
},
{
name = top;
pos = (246,527);
}
);
layerId = "D92A4C0B-EB2A-4209-AFE3-2959A8B274DD";
shapes = (
{
closed = 1;
nodes = (
(387,527,l),
(249,67,l),
(108,527,l),
(10,527,l),
(187,0,l),
(218,0,l),
(188,-82,o),
(158,-123,o),
(51,-141,c),
(61,-213,l),
(207,-197,o),
(269,-115,o),
(306,-3,cs),
(482,527,l)
);
}
);
width = 492;
}
);
metricLeft = v;
metricRight = v;
unicode = 121;
}
{
color = 4;
glyphname = z;
layers = (
{
anchors = (
{
name = bottom;
pos = (227,0);
},
{
name = top;
pos = (241,534);
}
);
layerId = "B26C53A4-97D1-457B-8232-65310EC64496";
shapes = (
{
closed = 1;
nodes = (
(25,534,l),
(25,390,l),
(227,390,l),
(5,138,l),
(5,0,l),
(445,0,l),
(462,146,l),
(236,146,l),
(455,397,l),
(455,534,l)
);
}
);
userData = {
math = {
topAccent = 241;
};
};
width = 472;
},
{
anchors = (
{
name = bottom;
pos = (207,0);
},
{
name = top;
pos = (215,517);
}
);
layerId = "D42A05F0-DBDC-4569-915A-03C7188507B6";
shapes = (
{
closed = 1;
nodes = (
(66,517,l),
(66,515,l),
(367,515,l),
(35,2,l),
(35,0,l),
(359,0,l),
(359,2,l),
(38,2,l),
(370,515,l),
(370,517,l)
);
}
);
userData = {
math = {
topAccent = 215;
};
};
width = 410;
},
{
anchors = (
{
name = bottom;
pos = (207,0);
},
{
name = top;
pos = (214,520);
}
);
layerId = "B2FE45D6-EF48-417F-ACCD-B60D15D1CAF3";
shapes = (
{
closed = 1;
nodes = (
(55,520,l),
(55,492,l),
(338,492,l),
(30,25,l),
(30,0,l),
(366,0,l),
(369,28,l),
(68,28,l),
(375,495,l),
(375,520,l)
);
}
);
userData = {
math = {
topAccent = 214;
};
};
width = 410;
},
{
anchors = (
{
name = bottom;
pos = (215,0);
},
{
name = top;
pos = (219,527);
}
);
layerId = "D92A4C0B-EB2A-4209-AFE3-2959A8B274DD";
shapes = (
{
closed = 1;
nodes = (
(48,527,l),
(48,449,l),
(299,449,l),
(25,69,l),
(25,0,l),
(396,0,l),
(407,77,l),
(129,77,l),
(404,457,l),
(404,527,l)
);
}
);
userData = {
math = {
topAccent = 219;
};
};
width = 437;
}
);
unicode = 122;
}
{
color = 8;
glyphname = braceright;
layers = (
{
layerId = "B26C53A4-97D1-457B-8232-65310EC64496";
shapes = (
{
closed = 1;
nodes = (
(15,708,l),
(70,708,o),
(79,693,o),
(79,654,cs),
(79,500,ls),
(79,401,o),
(123,366,o),
(200,349,c),
(125,336,o),
(78,297,o),
(78,200,cs),
(78,46,ls),
(78,7,o),
(69,-8,o),
(15,-8,c),
(15,-142,l),
(222,-142,o),
(263,-78,o),
(263,32,cs),
(263,185,ls),
(263,245,o),
(274,269,o),
(325,269,c),
(325,431,l),
(274,431,o),
(263,455,o),
(263,515,cs),
(263,668,ls),
(263,779,o),
(222,842,o),
(15,842,c)
);
}
);
width = 325;
},
{
layerId = "D42A05F0-DBDC-4569-915A-03C7188507B6";
shapes = (
{
closed = 1;
nodes = (
(95,806,l),
(144,806,o),
(173,779,o),
(173,713,c),
(173,427,l),
(173,378,o),
(201,349,o),
(249,349,c),
(201,349,o),
(173,320,o),
(173,271,c),
(173,-15,l),
(173,-81,o),
(144,-108,o),
(95,-108,c),
(95,-110,l),
(144,-110,o),
(175,-84,o),
(175,-16,c),
(175,271,l),
(175,323,o),
(206,348,o),
(251,348,c),
(251,350,l),
(206,350,o),
(175,375,o),
(175,427,c),
(175,714,l),
(175,782,o),
(144,808,o),
(95,808,c)
);
}
);
width = 326;
},
{
background = {
shapes = (
{
closed = 1;
nodes = (
(86,749,l),
(139,749,o),
(163,740,o),
(163,679,cs),
(163,453,ls),
(163,419,o),
(159,370,o),
(229,350,c),
(229,348,l),
(182,337,o),
(163,301,o),
(163,249,cs),
(163,19,ls),
(163,-41,o),
(139,-51,o),
(86,-51,c),
(86,-74,l),
(146,-74,o),
(188,-58,o),
(188,9,cs),
(188,250,ls),
(188,308,o),
(231,332,o),
(269,332,c),
(269,366,l),
(222,366,o),
(188,389,o),
(188,454,cs),
(188,689,ls),
(188,756,o),
(146,772,o),
(86,772,c)
);
}
);
};
layerId = "B2FE45D6-EF48-417F-ACCD-B60D15D1CAF3";
shapes = (
{
closed = 1;
nodes = (
(80,799,l),
(140,799,o),
(161,770,o),
(161,711,cs),
(161,446,ls),
(161,380,o),
(185,359,o),
(236,349,c),
(185,339,o),
(161,318,o),
(161,252,cs),
(161,-13,ls),
(161,-72,o),
(140,-101,o),
(80,-101,c),
(80,-124,l),
(146,-124,o),
(188,-92,o),
(188,-18,cs),
(188,264,ls),
(188,317,o),
(222,335,o),
(269,335,c),
(269,363,l),
(222,363,o),
(188,381,o),
(188,434,cs),
(188,716,ls),
(188,790,o),
(146,822,o),
(80,822,c)
);
}
);
width = 329;
},
{
layerId = "D92A4C0B-EB2A-4209-AFE3-2959A8B274DD";
shapes = (
{
alignment = 1;
pos = (322,0);
ref = braceleft;
scale = (-1,1);
}
);
width = 322;
}
);
metricLeft = "=|braceleft";
metricRight = "=|braceleft";
unicode = 125;
}
{
color = 4;
glyphname = asciitilde;
layers = (
{
anchors = (
{
name = _center;
pos = (519,332);
}
);
layerId = "B26C53A4-97D1-457B-8232-65310EC64496";
shapes = (
{
closed = 1;
nodes = (
(440,221,o),
(489,292,o),
(525,366,c),
(426,414,l),
(406,390,o),
(394,366,o),
(357,366,cs),
(304,366,o),
(277,426,o),
(180,426,cs),
(90,426,o),
(41,355,o),
(5,281,c),
(105,231,l),
(124,257,o),
(136,281,o),
(173,281,cs),
(226,281,o),
(253,221,o),
(350,221,cs)
);
}
);
width = 530;
},
{
anchors = (
{
name = _center;
pos = (360,332);
}
);
layerId = "D42A05F0-DBDC-4569-915A-03C7188507B6";
shapes = (
{
closed = 1;
nodes = (
(334,291,o),
(358,314,o),
(369,336,c),
(367,336,l),
(354,313,o),
(333,293,o),
(299,293,c),
(252,293,o),
(205,348,o),
(157,348,c),
(123,348,o),
(99,325,o),
(85,303,c),
(87,303,l),
(103,326,o),
(124,346,o),
(157,346,c),
(205,346,o),
(252,291,o),
(299,291,c)
);
}
);
width = 454;
},
{
anchors = (
{
name = _center;
pos = (362,332);
}
);
layerId = "B2FE45D6-EF48-417F-ACCD-B60D15D1CAF3";
shapes = (
{
closed = 1;
nodes = (
(347,275,o),
(368,298,o),
(393,334,c),
(373,346,l),
(352,321,o),
(339,305,o),
(307,305,cs),
(259,305,o),
(212,360,o),
(154,360,c),
(112,360,o),
(90,337,o),
(65,301,c),
(85,289,l),
(106,314,o),
(120,330,o),
(154,330,c),
(201,330,o),
(253,275,o),
(307,275,cs)
);
}
);
width = 458;
},
{
anchors = (
{
name = _center;
pos = (400,332);
}
);
layerId = "D92A4C0B-EB2A-4209-AFE3-2959A8B274DD";
shapes = (
{
closed = 1;
nodes = (
(392,250,o),
(432,300,o),
(453,341,c),
(398,371,l),
(382,345,o),
(358,323,o),
(325,323,cs),
(283,323,o),
(249,384,o),
(172,384,cs),
(97,384,o),
(56,328,o),
(35,287,c),
(91,258,l),
(107,284,o),
(130,312,o),
(166,312,cs),
(205,312,o),
(239,250,o),
(319,250,cs)
);
}
);
width = 488;
}
);
unicode = 126;
}
{
color = 4;
glyphname = exclamdown;
layers = (
{
layerId = "B26C53A4-97D1-457B-8232-65310EC64496";
shapes = (
{
closed = 1;
nodes = (
(42,228,l),
(16,-215,l),
(224,-215,l),
(198,228,l)
);
},
{
closed = 1;
nodes = (
(63,518,o),
(17,471,o),
(17,415,cs),
(17,359,o),
(63,312,o),
(120,312,cs),
(177,312,o),
(223,359,o),
(223,415,cs),
(223,471,o),
(177,518,o),
(120,518,cs)
);
}
);
width = 240;
},
{
layerId = "D42A05F0-DBDC-4569-915A-03C7188507B6";
shapes = (
{
closed = 1;
nodes = (
(116,254,l),
(116,-188,l),
(118,-188,l),
(118,254,l)
);
},
{
closed = 1;
nodes = (
(113,439,o),
(110,436,o),
(110,432,cs),
(110,428,o),
(113,425,o),
(117,425,cs),
(121,425,o),
(124,428,o),
(124,432,cs),
(124,436,o),
(121,439,o),
(117,439,cs)
);
}
);
width = 234;
},
{
layerId = "B2FE45D6-EF48-417F-ACCD-B60D15D1CAF3";
shapes = (
{
closed = 1;
nodes = (
(106,251,l),
(106,-193,l),
(135,-193,l),
(135,251,l)
);
},
{
closed = 1;
nodes = (
(101,458,o),
(90,445,o),
(90,429,cs),
(90,412,o),
(101,399,o),
(120,399,cs),
(138,399,o),
(150,412,o),
(150,429,cs),
(150,445,o),
(138,458,o),
(120,458,cs)
);
}
);
width = 240;
},
{
layerId = "D92A4C0B-EB2A-4209-AFE3-2959A8B274DD";
shapes = (
{
closed = 1;
nodes = (
(81,247,l),
(71,-202,l),
(173,-202,l),
(162,247,l)
);
},
{
closed = 1;
nodes = (
(81,495,o),
(51,464,o),
(51,425,cs),
(51,387,o),
(81,356,o),
(121,356,cs),
(160,356,o),
(190,387,o),
(190,425,cs),
(190,464,o),
(160,495,o),
(121,495,cs)
);
}
);
width = 241;
}
);
metricLeft = exclam;
metricRight = exclam;
unicode = 161;
}
{
color = 4;
glyphname = cent;
layers = (
{
layerId = "B26C53A4-97D1-457B-8232-65310EC64496";
shapes = (
{
closed = 1;
nodes = (
(222,696,l),
(222,535,l),
(356,538,l),
(356,696,l)
);
},
{
closed = 1;
nodes = (
(221,-165,l),
(356,-165,l),
(356,-5,l),
(221,-1,l)
);
},
{
ref = c;
}
);
width = 479;
},
{
layerId = "D42A05F0-DBDC-4569-915A-03C7188507B6";
shapes = (
{
closed = 1;
nodes = (
(281,672,l),
(281,526,l),
(283,526,l),
(283,672,l)
);
},
{
closed = 1;
nodes = (
(275,-144,l),
(277,-144,l),
(277,-8,l),
(275,-8,l)
);
},
{
ref = c;
}
);
width = 469;
},
{
layerId = "B2FE45D6-EF48-417F-ACCD-B60D15D1CAF3";
shapes = (
{
closed = 1;
nodes = (
(270,677,l),
(270,527,l),
(296,527,l),
(296,677,l)
);
},
{
closed = 1;
nodes = (
(269,-147,l),
(296,-147,l),
(296,-6,l),
(269,-7,l)
);
},
{
ref = c;
}
);
width = 462;
},
{
layerId = "D92A4C0B-EB2A-4209-AFE3-2959A8B274DD";
shapes = (
{
closed = 1;
nodes = (
(250,684,l),
(250,533,l),
(329,534,l),
(329,684,l)
);
},
{
closed = 1;
nodes = (
(249,-154,l),
(329,-154,l),
(329,-7,l),
(249,-6,l)
);
},
{
ref = c;
}
);
width = 478;
}
);
metricLeft = c;
metricRight = c;
unicode = 162;
}
{
color = 4;
glyphname = sterling;
layers = (
{
layerId = "B26C53A4-97D1-457B-8232-65310EC64496";
shapes = (
{
closed = 1;
nodes = (
(179,696,o),
(104,602,o),
(104,475,cs),
(104,250,ls),
(104,197,o),
(102,160,o),
(20,139,c),
(20,0,l),
(509,0,l),
(531,146,l),
(232,146,l),
(287,176,o),
(298,213,o),
(298,263,cs),
(298,473,ls),
(298,521,o),
(312,552,o),
(355,552,cs),
(384,552,o),
(408,540,o),
(432,501,c),
(551,587,l),
(501,659,o),
(434,696,o),
(332,696,cs)
);
},
{
closed = 1;
nodes = (
(35,399,l),
(35,304,l),
(469,304,l),
(469,399,l)
);
}
);
width = 566;
},
{
layerId = "D42A05F0-DBDC-4569-915A-03C7188507B6";
shapes = (
{
closed = 1;
nodes = (
(196,670,o),
(149,598,o),
(149,506,cs),
(149,118,ls),
(149,51,o),
(125,23,o),
(70,2,c),
(70,0,l),
(423,0,l),
(423,2,l),
(75,2,l),
(128,23,o),
(151,52,o),
(151,118,cs),
(151,506,ls),
(151,597,o),
(198,668,o),
(295,668,cs),
(353,668,o),
(393,646,o),
(425,608,c),
(427,609,l),
(394,648,o),
(353,670,o),
(295,670,cs)
);
},
{
closed = 1;
nodes = (
(93,356,l),
(93,354,l),
(361,354,l),
(361,356,l)
);
}
);
width = 492;
},
{
layerId = "B2FE45D6-EF48-417F-ACCD-B60D15D1CAF3";
shapes = (
{
closed = 1;
nodes = (
(196,674,o),
(144,598,o),
(144,505,c),
(144,142,l),
(144,81,o),
(119,58,o),
(60,28,c),
(60,0,l),
(434,0,l),
(438,29,l),
(103,29,l),
(151,53,o),
(174,77,o),
(174,144,c),
(174,504,l),
(174,585,o),
(216,646,o),
(302,646,cs),
(360,646,o),
(395,625,o),
(429,586,c),
(450,605,l),
(410,651,o),
(366,674,o),
(302,674,cs)
);
},
{
closed = 1;
nodes = (
(79,367,l),
(79,339,l),
(393,339,l),
(393,367,l)
);
}
);
width = 505;
},
{
layerId = "D92A4C0B-EB2A-4209-AFE3-2959A8B274DD";
shapes = (
{
closed = 1;
nodes = (
(189,679,o),
(122,600,o),
(122,493,c),
(122,205,l),
(122,123,o),
(108,98,o),
(40,73,c),
(40,0,l),
(461,0,l),
(472,77,l),
(152,77,l),
(201,104,o),
(213,139,o),
(213,204,c),
(213,494,l),
(213,566,o),
(251,604,o),
(315,604,cs),
(365,604,o),
(398,587,o),
(430,550,c),
(490,596,l),
(442,653,o),
(384,679,o),
(311,679,cs)
);
},
{
closed = 1;
nodes = (
(56,382,l),
(56,322,l),
(421,322,l),
(421,382,l)
);
}
);
width = 525;
}
);
unicode = 163;
}
{
color = 4;
glyphname = currency;
layers = (
{
background = {
shapes = (
{
closed = 1;
nodes = (
(10,534,l),
(84,458,l),
(65,426,o),
(56,385,o),
(56,342,cs),
(56,296,o),
(66,258,o),
(85,226,c),
(9,149,l),
(89,70,l),
(165,145,l),
(199,128,o),
(238,120,o),
(281,120,cs),
(322,120,o),
(363,128,o),
(397,145,c),
(472,72,l),
(551,150,l),
(476,225,l),
(495,257,o),
(507,296,o),
(507,342,cs),
(507,387,o),
(496,425,o),
(477,458,c),
(551,532,l),
(471,612,l),
(396,536,l),
(361,555,o),
(323,564,o),
(281,564,cs),
(237,564,o),
(199,556,o),
(166,537,c),
(89,613,l)
);
},
{
closed = 1;
nodes = (
(335,435,o),
(362,401,o),
(362,342,cs),
(362,282,o),
(335,247,o),
(281,247,cs),
(226,247,o),
(198,282,o),
(198,342,cs),
(198,401,o),
(226,435,o),
(281,435,cs)
);
}
);
};
layerId = "B26C53A4-97D1-457B-8232-65310EC64496";
shapes = (
{
closed = 1;
nodes = (
(151,564,o),
(55,467,o),
(55,342,cs),
(55,216,o),
(151,120,o),
(281,120,cs),
(411,120,o),
(507,216,o),
(507,342,cs),
(507,467,o),
(411,564,o),
(281,564,cs)
);
},
{
closed = 1;
nodes = (
(177,156,l),
(97,237,l),
(10,151,l),
(89,72,l)
);
},
{
closed = 1;
nodes = (
(551,151,l),
(465,236,l),
(386,156,l),
(472,72,l)
);
},
{
closed = 1;
nodes = (
(10,534,l),
(95,447,l),
(177,526,l),
(89,613,l)
);
},
{
closed = 1;
nodes = (
(386,526,l),
(466,448,l),
(551,534,l),
(472,613,l)
);
},
{
closed = 1;
nodes = (
(336,435,o),
(363,401,o),
(363,342,cs),
(363,282,o),
(336,247,o),
(281,247,cs),
(227,247,o),
(199,282,o),
(199,342,cs),
(199,401,o),
(227,435,o),
(281,435,cs)
);
}
);
width = 560;
},
{
background = {
shapes = (
{
closed = 1;
nodes = (
(394,464,l),
(364,493,o),
(325,510,o),
(279,510,c),
(233,510,o),
(194,493,o),
(164,464,c),
(90,541,l),
(88,540,l),
(163,463,l),
(132,432,o),
(114,388,o),
(114,339,c),
(114,288,o),
(132,245,o),
(168,212,c),
(90,136,l),
(92,135,l),
(169,211,l),
(198,185,o),
(237,170,o),
(279,170,c),
(321,170,o),
(360,185,o),
(389,211,c),
(466,135,l),
(468,136,l),
(390,212,l),
(426,245,o),
(444,288,o),
(444,339,c),
(444,388,o),
(426,432,o),
(395,463,c),
(470,540,l),
(468,541,l)
);
},
{
closed = 1;
nodes = (
(374,508,o),
(442,434,o),
(442,339,cs),
(442,240,o),
(368,172,o),
(279,172,c),
(190,172,o),
(116,240,o),
(116,339,cs),
(116,434,o),
(184,508,o),
(279,508,c)
);
}
);
};
layerId = "D42A05F0-DBDC-4569-915A-03C7188507B6";
shapes = (
{
closed = 1;
nodes = (
(185,510,o),
(114,436,o),
(114,339,c),
(114,241,o),
(187,170,o),
(279,170,c),
(371,170,o),
(444,241,o),
(444,339,c),
(444,436,o),
(375,510,o),
(279,510,c)
);
},
{
closed = 1;
nodes = (
(170,211,l),
(169,213,l),
(90,136,l),
(92,135,l)
);
},
{
closed = 1;
nodes = (
(470,136,l),
(390,214,l),
(389,212,l),
(468,135,l)
);
},
{
closed = 1;
nodes = (
(90,540,l),
(164,463,l),
(166,464,l),
(92,541,l)
);
},
{
closed = 1;
nodes = (
(393,463,l),
(395,462,l),
(470,540,l),
(468,541,l)
);
},
{
closed = 1;
nodes = (
(375,508,o),
(442,434,o),
(442,339,cs),
(442,240,o),
(369,172,o),
(279,172,c),
(190,172,o),
(116,240,o),
(116,339,cs),
(116,435,o),
(185,508,o),
(279,508,c)
);
}
);
width = 560;
},
{
layerId = "B2FE45D6-EF48-417F-ACCD-B60D15D1CAF3";
shapes = (
{
closed = 1;
nodes = (
(172,524,o),
(105,442,o),
(105,341,cs),
(105,239,o),
(171,157,o),
(281,157,cs),
(392,157,o),
(457,239,o),
(457,341,cs),
(457,442,o),
(392,524,o),
(281,524,cs)
);
},
{
closed = 1;
nodes = (
(182,208,l),
(162,228,l),
(66,133,l),
(86,113,l)
);
},
{
closed = 1;
nodes = (
(494,133,l),
(398,228,l),
(378,208,l),
(474,113,l)
);
},
{
closed = 1;
nodes = (
(66,546,l),
(162,451,l),
(182,471,l),
(86,566,l)
);
},
{
closed = 1;
nodes = (
(378,471,l),
(398,451,l),
(494,546,l),
(474,566,l)
);
},
{
closed = 1;
nodes = (
(380,497,o),
(427,431,o),
(427,340,cs),
(427,251,o),
(380,184,o),
(281,184,cs),
(184,184,o),
(135,250,o),
(135,340,cs),
(135,431,o),
(184,497,o),
(281,497,cs)
);
}
);
width = 560;
},
{
layerId = "D92A4C0B-EB2A-4209-AFE3-2959A8B274DD";
shapes = (
{
closed = 1;
nodes = (
(157,549,o),
(71,456,o),
(71,341,cs),
(71,225,o),
(157,132,o),
(278,132,cs),
(409,132,o),
(492,225,o),
(492,341,cs),
(492,456,o),
(409,549,o),
(278,549,cs)
);
},
{
closed = 1;
nodes = (
(169,176,l),
(117,231,l),
(29,143,l),
(82,88,l)
);
},
{
closed = 1;
nodes = (
(531,143,l),
(445,228,l),
(388,174,l),
(476,88,l)
);
},
{
closed = 1;
nodes = (
(29,540,l),
(115,451,l),
(171,506,l),
(84,595,l)
);
},
{
closed = 1;
nodes = (
(391,508,l),
(446,454,l),
(531,540,l),
(478,595,l)
);
},
{
closed = 1;
nodes = (
(362,479,o),
(404,427,o),
(404,342,cs),
(404,256,o),
(362,205,o),
(281,205,cs),
(202,205,o),
(159,256,o),
(159,342,cs),
(159,427,o),
(202,479,o),
(281,479,cs)
);
}
);
width = 560;
}
);
unicode = 164;
}
{
color = 4;
glyphname = yen;
layers = (
{
layerId = "B26C53A4-97D1-457B-8232-65310EC64496";
shapes = (
{
closed = 1;
nodes = (
(400,680,l),
(298,407,l),
(193,680,l),
(-15,680,l),
(197,277,l),
(197,0,l),
(393,0,l),
(393,277,l),
(603,680,l)
);
},
{
closed = 1;
nodes = (
(69,201,l),
(69,106,l),
(523,106,l),
(523,201,l)
);
},
{
closed = 1;
nodes = (
(69,356,l),
(69,261,l),
(523,261,l),
(523,356,l)
);
}
);
width = 588;
},
{
layerId = "D42A05F0-DBDC-4569-915A-03C7188507B6";
shapes = (
{
closed = 1;
nodes = (
(442,660,l),
(235,321,l),
(27,660,l),
(25,660,l),
(234,319,l),
(234,0,l),
(236,0,l),
(236,319,l),
(444,660,l)
);
},
{
closed = 1;
nodes = (
(106,186,l),
(106,184,l),
(368,184,l),
(368,186,l)
);
},
{
closed = 1;
nodes = (
(106,320,l),
(106,318,l),
(368,318,l),
(368,320,l)
);
}
);
width = 469;
},
{
layerId = "B2FE45D6-EF48-417F-ACCD-B60D15D1CAF3";
shapes = (
{
closed = 1;
nodes = (
(437,662,l),
(248,333,l),
(56,662,l),
(20,662,l),
(232,310,l),
(232,0,l),
(263,0,l),
(263,309,l),
(472,662,l)
);
},
{
closed = 1;
nodes = (
(99,191,l),
(99,162,l),
(396,162,l),
(396,191,l)
);
},
{
closed = 1;
nodes = (
(99,332,l),
(99,304,l),
(396,304,l),
(396,332,l)
);
}
);
width = 492;
},
{
layerId = "D92A4C0B-EB2A-4209-AFE3-2959A8B274DD";
shapes = (
{
closed = 1;
nodes = (
(434,669,l),
(271,374,l),
(107,669,l),
(5,669,l),
(221,303,l),
(221,0,l),
(315,0,l),
(315,304,l),
(531,669,l)
);
},
{
closed = 1;
nodes = (
(82,194,l),
(82,133,l),
(453,133,l),
(453,194,l)
);
},
{
closed = 1;
nodes = (
(82,346,l),
(82,284,l),
(453,284,l),
(453,346,l)
);
}
);
width = 536;
}
);
metricLeft = Y;
metricRight = Y;
unicode = 165;
}
{
color = 4;
glyphname = brokenbar;
layers = (
{
layerId = "B26C53A4-97D1-457B-8232-65310EC64496";
shapes = (
{
closed = 1;
nodes = (
(87,812,l),
(87,443,l),
(273,443,l),
(273,812,l)
);
},
{
closed = 1;
nodes = (
(87,262,l),
(87,-107,l),
(273,-107,l),
(273,262,l)
);
}
);
width = 360;
},
{
layerId = "D42A05F0-DBDC-4569-915A-03C7188507B6";
shapes = (
{
closed = 1;
nodes = (
(209,800,l),
(209,443,l),
(211,443,l),
(211,800,l)
);
},
{
closed = 1;
nodes = (
(209,262,l),
(209,-97,l),
(211,-97,l),
(211,262,l)
);
}
);
width = 420;
},
{
layerId = "B2FE45D6-EF48-417F-ACCD-B60D15D1CAF3";
shapes = (
{
closed = 1;
nodes = (
(190,802,l),
(190,443,l),
(220,443,l),
(220,802,l)
);
},
{
closed = 1;
nodes = (
(190,262,l),
(190,-99,l),
(220,-99,l),
(220,262,l)
);
}
);
width = 410;
},
{
layerId = "D92A4C0B-EB2A-4209-AFE3-2959A8B274DD";
shapes = (
{
closed = 1;
nodes = (
(160,807,l),
(160,443,l),
(243,443,l),
(243,807,l)
);
},
{
closed = 1;
nodes = (
(160,262,l),
(160,-102,l),
(243,-102,l),
(243,262,l)
);
}
);
width = 403;
}
);
metricLeft = bar;
metricRight = bar;
unicode = 166;
}
{
color = 4;
glyphname = section;
layers = (
{
layerId = "B26C53A4-97D1-457B-8232-65310EC64496";
shapes = (
{
closed = 1;
nodes = (
(153,696,o),
(68,621,o),
(68,527,cs),
(68,447,o),
(110,400,o),
(258,354,cs),
(332,331,o),
(350,314,o),
(350,288,cs),
(350,270,o),
(341,244,o),
(324,224,c),
(428,181,l),
(478,208,o),
(518,251,o),
(518,315,cs),
(518,405,o),
(455,443,o),
(367,469,cs),
(265,499,o),
(254,507,o),
(254,532,cs),
(254,552,o),
(271,564,o),
(314,564,cs),
(353,564,o),
(399,554,o),
(443,531,c),
(506,639,l),
(450,675,o),
(373,696,o),
(300,696,cs)
);
},
{
closed = 1;
nodes = (
(87,395,o),
(42,353,o),
(42,290,cs),
(42,203,o),
(104,165,o),
(192,139,cs),
(300,107,o),
(308,95,o),
(308,72,cs),
(308,53,o),
(288,41,o),
(241,41,cs),
(199,41,o),
(156,54,o),
(111,79,c),
(50,-34,l),
(103,-69,o),
(173,-91,o),
(256,-91,cs),
(403,-91,o),
(494,-21,o),
(494,76,cs),
(494,173,o),
(441,196,o),
(277,259,cs),
(223,279,o),
(210,294,o),
(210,319,cs),
(210,336,o),
(215,361,o),
(233,383,c),
(137,422,l)
);
}
);
width = 560;
},
{
layerId = "D42A05F0-DBDC-4569-915A-03C7188507B6";
shapes = (
{
closed = 1;
nodes = (
(202,670,o),
(135,624,o),
(135,552,cs),
(135,492,o),
(165,462,o),
(280,424,cs),
(382,390,o),
(419,358,o),
(419,284,c),
(419,224,o),
(382,184,o),
(333,157,c),
(335,156,l),
(384,183,o),
(421,224,o),
(421,284,c),
(421,359,o),
(384,391,o),
(280,426,cs),
(167,464,o),
(137,493,o),
(137,552,cs),
(137,623,o),
(202,668,o),
(272,668,c),
(327,668,o),
(366,655,o),
(409,628,c),
(410,630,l),
(366,657,o),
(327,670,o),
(272,670,c)
);
},
{
closed = 1;
nodes = (
(140,415,o),
(110,375,o),
(110,321,c),
(110,248,o),
(152,218,o),
(257,185,cs),
(364,151,o),
(396,124,o),
(396,61,cs),
(396,-12,o),
(338,-57,o),
(261,-57,c),
(201,-57,o),
(157,-44,o),
(117,-16,c),
(115,-18,l),
(157,-46,o),
(201,-59,o),
(261,-59,c),
(340,-59,o),
(398,-12,o),
(398,61,cs),
(398,124,o),
(366,153,o),
(257,187,cs),
(152,220,o),
(112,250,o),
(112,321,c),
(112,375,o),
(142,413,o),
(206,454,c),
(205,455,l)
);
}
);
width = 531;
},
{
layerId = "B2FE45D6-EF48-417F-ACCD-B60D15D1CAF3";
shapes = (
{
closed = 1;
nodes = (
(188,673,o),
(122,622,o),
(122,545,cs),
(122,477,o),
(157,448,o),
(280,406,cs),
(389,369,o),
(406,338,o),
(406,284,cs),
(406,236,o),
(387,202,o),
(323,165,c),
(341,150,l),
(411,190,o),
(437,231,o),
(437,285,cs),
(437,358,o),
(397,394,o),
(288,431,cs),
(176,469,o),
(153,491,o),
(153,546,cs),
(153,600,o),
(199,645,o),
(272,645,cs),
(324,645,o),
(361,632,o),
(404,605,c),
(420,628,l),
(378,654,o),
(338,673,o),
(271,673,cs)
);
},
{
closed = 1;
nodes = (
(127,419,o),
(95,375,o),
(95,322,cs),
(95,244,o),
(140,216,o),
(257,175,cs),
(362,138,o),
(382,114,o),
(382,61,cs),
(382,5,o),
(337,-38,o),
(256,-38,cs),
(199,-38,o),
(155,-24,o),
(113,3,c),
(97,-21,l),
(143,-49,o),
(189,-66,o),
(256,-66,cs),
(346,-66,o),
(413,-16,o),
(413,63,cs),
(413,139,o),
(369,164,o),
(265,200,cs),
(152,240,o),
(126,263,o),
(126,323,cs),
(126,370,o),
(150,407,o),
(209,444,c),
(191,459,l)
);
}
);
width = 532;
},
{
layerId = "D92A4C0B-EB2A-4209-AFE3-2959A8B274DD";
shapes = (
{
closed = 1;
nodes = (
(173,677,o),
(94,624,o),
(94,533,cs),
(94,449,o),
(154,417,o),
(267,376,cs),
(353,345,o),
(375,327,o),
(375,280,cs),
(375,252,o),
(354,219,o),
(322,194,c),
(374,165,l),
(423,194,o),
(463,237,o),
(463,293,cs),
(463,366,o),
(413,404,o),
(307,440,cs),
(206,474,o),
(185,495,o),
(185,540,cs),
(185,581,o),
(219,606,o),
(280,606,cs),
(335,606,o),
(375,592,o),
(417,565,c),
(452,623,l),
(408,655,o),
(355,677,o),
(281,677,cs)
);
},
{
closed = 1;
nodes = (
(111,417,o),
(70,368,o),
(70,311,cs),
(70,231,o),
(120,197,o),
(225,163,cs),
(327,130,o),
(349,113,o),
(349,66,cs),
(349,24,o),
(305,1,o),
(249,1,cs),
(195,1,o),
(153,13,o),
(113,40,c),
(78,-21,l),
(119,-50,o),
(175,-71,o),
(246,-71,cs),
(360,-71,o),
(441,-15,o),
(441,75,cs),
(441,154,o),
(379,192,o),
(254,233,cs),
(180,257,o),
(159,275,o),
(159,323,cs),
(159,351,o),
(178,386,o),
(211,412,c),
(169,443,l)
);
}
);
width = 533;
}
);
unicode = 167;
}
{
color = 4;
glyphname = dieresis;
layers = (
{
layerId = "B26C53A4-97D1-457B-8232-65310EC64496";
shapes = (
{
pos = (-2,0);
ref = dieresiscomb;
}
);
width = 495;
},
{
background = {
shapes = (
{
closed = 1;
nodes = (
(210,660,o),
(201,651,o),
(201,635,cs),
(201,619,o),
(210,610,o),
(228,610,cs),
(245,610,o),
(254,619,o),
(254,635,cs),
(254,651,o),
(245,660,o),
(228,660,cs)
);
},
{
closed = 1;
nodes = (
(39,660,o),
(30,651,o),
(30,635,cs),
(30,619,o),
(39,610,o),
(56,610,cs),
(74,610,o),
(83,619,o),
(83,635,cs),
(83,651,o),
(74,660,o),
(56,660,cs)
);
},
{
closed = 1;
nodes = (
(182,631,o),
(224,673,o),
(224,726,cs),
(224,778,o),
(182,820,o),
(127,820,cs),
(74,820,o),
(30,778,o),
(30,726,cs),
(30,673,o),
(74,631,o),
(127,631,cs)
);
},
{
closed = 1;
nodes = (
(427,631,o),
(469,673,o),
(469,726,cs),
(469,778,o),
(427,820,o),
(372,820,cs),
(319,820,o),
(275,778,o),
(275,726,cs),
(275,673,o),
(319,631,o),
(372,631,cs)
);
}
);
};
layerId = "D42A05F0-DBDC-4569-915A-03C7188507B6";
shapes = (
{
ref = dieresiscomb;
}
);
width = 221;
},
{
layerId = "B2FE45D6-EF48-417F-ACCD-B60D15D1CAF3";
shapes = (
{
ref = dieresiscomb;
}
);
width = 283;
},
{
layerId = "D92A4C0B-EB2A-4209-AFE3-2959A8B274DD";
shapes = (
{
ref = dieresiscomb;
}
);
width = 385;
}
);
unicode = 168;
}
{
color = 4;
glyphname = copyright;
layers = (
{
layerId = "B26C53A4-97D1-457B-8232-65310EC64496";
shapes = (
{
closed = 1;
nodes = (
(210,777,o),
(52,635,o),
(52,431,cs),
(52,227,o),
(210,86,o),
(406,86,cs),
(603,86,o),
(758,227,o),
(758,431,cs),
(758,635,o),
(603,777,o),
(406,777,cs)
);
},
{
closed = 1;
nodes = (
(298,633,o),
(223,554,o),
(223,432,cs),
(223,302,o),
(294,230,o),
(409,230,cs),
(462,230,o),
(513,251,o),
(551,287,c),
(500,362,l),
(475,342,o),
(451,333,o),
(421,333,cs),
(384,333,o),
(359,358,o),
(359,432,cs),
(359,505,o),
(388,530,o),
(424,530,cs),
(448,530,o),
(465,527,o),
(491,507,c),
(547,576,l),
(511,612,o),
(458,633,o),
(408,633,cs)
);
},
{
closed = 1;
nodes = (
(545,681,o),
(648,581,o),
(648,431,cs),
(648,281,o),
(545,182,o),
(406,182,cs),
(266,182,o),
(163,281,o),
(163,431,cs),
(163,581,o),
(266,681,o),
(406,681,cs)
);
}
);
width = 810;
},
{
layerId = "D42A05F0-DBDC-4569-915A-03C7188507B6";
shapes = (
{
closed = 1;
nodes = (
(250,711,o),
(138,596,o),
(138,435,c),
(138,271,o),
(250,159,o),
(405,159,c),
(560,159,o),
(672,274,o),
(672,435,c),
(672,599,o),
(560,711,o),
(405,711,c)
);
},
{
closed = 1;
nodes = (
(347,602,o),
(277,557,o),
(277,437,cs),
(277,323,o),
(333,271,o),
(401,271,c),
(446,271,o),
(473,285,o),
(491,301,c),
(490,303,l),
(471,287,o),
(446,273,o),
(401,273,c),
(334,273,o),
(279,324,o),
(279,437,cs),
(279,556,o),
(348,600,o),
(403,600,c),
(440,600,o),
(462,588,o),
(479,574,c),
(480,576,l),
(463,590,o),
(440,602,o),
(403,602,c)
);
},
{
closed = 1;
nodes = (
(559,709,o),
(670,598,o),
(670,435,c),
(670,275,o),
(559,161,o),
(405,161,c),
(251,161,o),
(140,272,o),
(140,435,c),
(140,595,o),
(251,709,o),
(405,709,c)
);
}
);
width = 810;
},
{
layerId = "B2FE45D6-EF48-417F-ACCD-B60D15D1CAF3";
shapes = (
{
closed = 1;
nodes = (
(243,726,o),
(122,605,o),
(122,435,cs),
(122,263,o),
(243,144,o),
(405,144,c),
(567,144,o),
(688,265,o),
(688,435,cs),
(688,607,o),
(567,726,o),
(405,726,c)
);
},
{
closed = 1;
nodes = (
(342,608,o),
(270,559,o),
(270,437,cs),
(270,325,o),
(326,262,o),
(406,262,cs),
(449,262,o),
(481,278,o),
(504,296,c),
(490,318,l),
(469,303,o),
(446,290,o),
(407,290,cs),
(347,290,o),
(301,333,o),
(301,437,cs),
(301,549,o),
(361,580,o),
(404,580,cs),
(440,580,o),
(459,572,o),
(480,557,c),
(495,578,l),
(470,597,o),
(444,608,o),
(404,608,cs)
);
},
{
closed = 1;
nodes = (
(551,698,o),
(657,593,o),
(657,435,cs),
(657,280,o),
(551,172,o),
(406,172,c),
(259,172,o),
(153,277,o),
(153,435,cs),
(153,590,o),
(259,698,o),
(406,698,c)
);
}
);
width = 810;
},
{
layerId = "D92A4C0B-EB2A-4209-AFE3-2959A8B274DD";
shapes = (
{
closed = 1;
nodes = (
(232,748,o),
(92,618,o),
(92,434,cs),
(92,251,o),
(232,121,o),
(406,121,cs),
(579,121,o),
(718,251,o),
(718,434,cs),
(718,618,o),
(579,748,o),
(406,748,cs)
);
},
{
closed = 1;
nodes = (
(320,625,o),
(245,559,o),
(245,435,cs),
(245,312,o),
(313,245,o),
(409,245,cs),
(464,245,o),
(500,266,o),
(528,291,c),
(496,339,l),
(471,320,o),
(447,308,o),
(412,308,cs),
(358,308,o),
(321,348,o),
(321,435,cs),
(321,528,o),
(361,565,o),
(412,565,cs),
(440,565,o),
(465,556,o),
(490,538,c),
(525,585,l),
(492,610,o),
(459,625,o),
(408,625,cs)
);
},
{
closed = 1;
nodes = (
(550,696,o),
(658,589,o),
(658,434,cs),
(658,280,o),
(550,174,o),
(406,174,cs),
(261,174,o),
(153,280,o),
(153,434,cs),
(153,589,o),
(261,696,o),
(406,696,cs)
);
}
);
width = 810;
}
);
unicode = 169;
}
{
color = 4;
glyphname = ordfeminine;
layers = (
{
layerId = "B26C53A4-97D1-457B-8232-65310EC64496";
shapes = (
{
closed = 1;
nodes = (
(190,696,o),
(120,684,o),
(66,663,c),
(104,555,l),
(146,568,o),
(190,576,o),
(213,576,cs),
(259,576,o),
(270,569,o),
(270,533,c),
(270,384,l),
(295,334,l),
(326,286,o),
(367,267,o),
(428,264,c),
(463,374,l),
(444,380,o),
(439,392,o),
(439,418,cs),
(439,543,ls),
(439,647,o),
(381,696,o),
(239,696,cs)
);
},
{
closed = 1;
nodes = (
(246,530,ls),
(109,530,o),
(36,480,o),
(36,390,cs),
(36,315,o),
(92,260,o),
(178,260,cs),
(231,260,o),
(285,278,o),
(315,328,c),
(280,403,l),
(274,394,o),
(257,381,o),
(237,381,cs),
(218,381,o),
(210,391,o),
(210,405,cs),
(210,430,o),
(226,442,o),
(262,442,cs),
(293,442,l),
(293,530,l)
);
},
{
pos = (2,-257);
ref = minus;
scale = (0.95,1);
}
);
width = 500;
},
{
layerId = "D42A05F0-DBDC-4569-915A-03C7188507B6";
shapes = (
{
closed = 1;
nodes = (
(208,680,o),
(171,672,o),
(127,655,c),
(128,653,l),
(172,670,o),
(209,678,o),
(245,678,cs),
(328,678,o),
(356,634,o),
(356,564,cs),
(356,366,l),
(356,364,l),
(356,310,o),
(365,289,o),
(400,278,c),
(401,280,l),
(366,290,o),
(358,313,o),
(358,368,cs),
(358,564,ls),
(358,636,o),
(329,680,o),
(245,680,cs)
);
},
{
closed = 1;
nodes = (
(257,513,ls),
(159,513,o),
(98,470,o),
(98,394,cs),
(98,327,o),
(140,278,o),
(218,278,cs),
(287,278,o),
(329,309,o),
(357,365,c),
(357,369,l),
(328,312,o),
(288,280,o),
(218,280,cs),
(142,280,o),
(100,328,o),
(100,394,cs),
(100,468,o),
(160,511,o),
(257,511,cs),
(357,511,l),
(357,513,l)
);
},
{
pos = (14,-330);
ref = minus;
}
);
width = 500;
},
{
layerId = "B2FE45D6-EF48-417F-ACCD-B60D15D1CAF3";
shapes = (
{
closed = 1;
nodes = (
(201,682,o),
(164,672,o),
(123,657,c),
(132,631,l),
(171,645,o),
(208,654,o),
(244,654,cs),
(322,654,o),
(346,624,o),
(346,560,c),
(346,369,l),
(350,355,l),
(349,306,o),
(368,286,o),
(403,276,c),
(410,297,l),
(388,306,o),
(376,317,o),
(376,367,cs),
(376,563,ls),
(376,643,o),
(336,682,o),
(244,682,cs)
);
},
{
closed = 1;
nodes = (
(255,518,ls),
(157,518,o),
(90,474,o),
(90,392,cs),
(90,321,o),
(138,276,o),
(218,276,cs),
(279,276,o),
(324,302,o),
(355,351,c),
(350,387,l),
(323,337,o),
(281,304,o),
(218,304,cs),
(161,304,o),
(122,334,o),
(122,392,cs),
(122,460,o),
(175,490,o),
(261,490,cs),
(353,490,l),
(353,518,l)
);
},
{
pos = (13,-316);
ref = minus;
}
);
width = 500;
},
{
layerId = "D92A4C0B-EB2A-4209-AFE3-2959A8B274DD";
shapes = (
{
closed = 1;
nodes = (
(198,689,o),
(148,680,o),
(95,661,c),
(117,599,l),
(160,613,o),
(200,620,o),
(230,620,cs),
(286,620,o),
(313,602,o),
(313,549,c),
(313,377,l),
(323,344,l),
(336,295,o),
(366,277,o),
(416,272,c),
(435,333,l),
(414,340,o),
(402,351,o),
(402,384,cs),
(402,554,ls),
(402,640,o),
(354,689,o),
(245,689,cs)
);
},
{
closed = 1;
nodes = (
(255,525,ls),
(134,525,o),
(65,479,o),
(65,393,cs),
(65,321,o),
(116,271,o),
(201,271,cs),
(256,271,o),
(305,292,o),
(334,341,c),
(320,402,l),
(298,360,o),
(268,337,o),
(224,337,cs),
(182,337,o),
(159,359,o),
(159,398,cs),
(159,447,o),
(195,470,o),
(265,470,cs),
(326,470,l),
(326,525,l)
);
},
{
pos = (9,-294);
ref = minus;
}
);
width = 500;
}
);
unicode = 170;
}
{
glyphname = logicalnot;
layers = (
{
layerId = "B26C53A4-97D1-457B-8232-65310EC64496";
shapes = (
{
closed = 1;
nodes = (
(515,125,l),
(515,435,l),
(45,435,l),
(45,285,l),
(355,285,l),
(355,125,l)
);
}
);
width = 560;
},
{
layerId = "D42A05F0-DBDC-4569-915A-03C7188507B6";
shapes = (
{
closed = 1;
nodes = (
(430,226,l),
(430,334,l),
(110,334,l),
(110,332,l),
(428,332,l),
(428,226,l)
);
}
);
width = 540;
},
{
layerId = "B2FE45D6-EF48-417F-ACCD-B60D15D1CAF3";
shapes = (
{
closed = 1;
nodes = (
(450,208,l),
(450,352,l),
(100,352,l),
(100,324,l),
(420,324,l),
(420,208,l)
);
}
);
width = 550;
},
{
layerId = "D92A4C0B-EB2A-4209-AFE3-2959A8B274DD";
shapes = (
{
closed = 1;
nodes = (
(468,170,l),
(468,390,l),
(92,390,l),
(92,314,l),
(384,314,l),
(384,170,l)
);
}
);
width = 560;
}
);
metricRight = "=|";
unicode = 172;
}
{
color = 4;
glyphname = registered;
layers = (
{
layerId = "B26C53A4-97D1-457B-8232-65310EC64496";
shapes = (
{
closed = 1;
nodes = (
(153,764,o),
(30,648,o),
(30,479,cs),
(30,311,o),
(153,196,o),
(319,196,cs),
(484,196,o),
(605,311,o),
(605,479,cs),
(605,648,o),
(484,764,o),
(319,764,cs)
);
},
{
closed = 1;
nodes = (
(299,462,l),
(363,347,l),
(454,347,l),
(373,479,l)
);
},
{
closed = 1;
nodes = (
(433,686,o),
(513,606,o),
(513,479,cs),
(513,352,o),
(433,274,o),
(319,274,cs),
(204,274,o),
(122,352,o),
(122,479,cs),
(122,606,o),
(204,686,o),
(319,686,cs)
);
},
{
closed = 1;
nodes = (
(207,633,l),
(207,347,l),
(287,347,l),
(287,574,l),
(315,574,ls),
(338,574,o),
(353,565,o),
(353,546,cs),
(353,523,o),
(336,514,o),
(316,514,cs),
(271,514,l),
(271,448,l),
(323,448,l),
(365,459,l),
(405,472,o),
(435,501,o),
(435,543,cs),
(435,605,o),
(387,633,o),
(295,633,cs)
);
}
);
width = 635;
},
{
layerId = "D42A05F0-DBDC-4569-915A-03C7188507B6";
shapes = (
{
closed = 1;
nodes = (
(181,709,o),
(110,614,o),
(110,499,c),
(110,384,o),
(191,294,o),
(317,294,c),
(453,294,o),
(524,389,o),
(524,504,c),
(524,619,o),
(443,709,o),
(317,709,c)
);
},
{
closed = 1;
nodes = (
(329,496,l),
(404,371,l),
(406,371,l),
(331,496,l)
);
},
{
closed = 1;
nodes = (
(443,707,o),
(522,617,o),
(522,504,c),
(522,391,o),
(453,296,o),
(317,296,c),
(191,296,o),
(112,386,o),
(112,499,c),
(112,612,o),
(181,707,o),
(317,707,c)
);
},
{
closed = 1;
nodes = (
(250,639,l),
(250,372,l),
(252,372,l),
(252,637,l),
(306,637,l),
(362,637,o),
(395,614,o),
(395,566,c),
(395,519,o),
(363,497,o),
(324,497,c),
(251,497,l),
(251,495,l),
(330,495,l),
(331,495,l),
(364,497,o),
(397,518,o),
(397,566,c),
(397,616,o),
(362,639,o),
(306,639,c)
);
}
);
width = 634;
},
{
layerId = "B2FE45D6-EF48-417F-ACCD-B60D15D1CAF3";
shapes = (
{
closed = 1;
nodes = (
(191,726,o),
(90,623,o),
(90,497,cs),
(90,367,o),
(191,272,o),
(319,272,c),
(447,272,o),
(548,375,o),
(548,501,cs),
(548,631,o),
(447,726,o),
(319,726,c)
);
},
{
closed = 1;
nodes = (
(314,492,l),
(386,368,l),
(423,368,l),
(345,494,l)
);
},
{
closed = 1;
nodes = (
(432,700,o),
(520,616,o),
(520,501,cs),
(520,388,o),
(429,298,o),
(319,298,c),
(209,298,o),
(118,382,o),
(118,497,cs),
(118,610,o),
(209,700,o),
(319,700,c)
);
},
{
closed = 1;
nodes = (
(243,637,l),
(243,368,l),
(273,368,l),
(273,610,l),
(310,610,ls),
(355,610,o),
(381,599,o),
(381,558,cs),
(381,522,o),
(357,510,o),
(319,510,cs),
(266,510,l),
(266,484,l),
(317,484,l),
(330,484,l),
(380,491,o),
(411,512,o),
(411,558,cs),
(411,611,o),
(377,637,o),
(305,637,cs)
);
}
);
width = 638;
},
{
layerId = "D92A4C0B-EB2A-4209-AFE3-2959A8B274DD";
shapes = (
{
closed = 1;
nodes = (
(178,750,o),
(67,635,o),
(67,493,cs),
(67,351,o),
(178,238,o),
(319,238,cs),
(464,238,o),
(574,351,o),
(574,493,cs),
(574,635,o),
(464,750,o),
(319,750,cs)
);
},
{
closed = 1;
nodes = (
(303,476,l),
(370,359,l),
(437,359,l),
(355,486,l)
);
},
{
closed = 1;
nodes = (
(437,701,o),
(519,613,o),
(519,493,cs),
(519,373,o),
(437,287,o),
(319,287,cs),
(205,287,o),
(122,373,o),
(122,493,cs),
(122,613,o),
(205,701,o),
(319,701,cs)
);
},
{
closed = 1;
nodes = (
(228,635,l),
(228,359,l),
(285,359,l),
(285,591,l),
(313,591,ls),
(351,591,o),
(369,579,o),
(369,551,cs),
(369,521,o),
(348,509,o),
(315,509,cs),
(274,509,l),
(274,465,l),
(321,465,l),
(349,471,l),
(393,479,o),
(428,506,o),
(428,551,cs),
(428,607,o),
(388,635,o),
(306,635,cs)
);
}
);
width = 641;
}
);
unicode = 174;
}
{
color = 4;
glyphname = degree;
layers = (
{
layerId = "B26C53A4-97D1-457B-8232-65310EC64496";
shapes = (
{
closed = 1;
nodes = (
(177,473,o),
(158,504,o),
(158,541,cs),
(158,578,o),
(177,608,o),
(217,608,cs),
(257,608,o),
(276,578,o),
(276,541,cs),
(276,504,o),
(257,473,o),
(217,473,cs)
);
},
{
closed = 1;
nodes = (
(308,362,o),
(404,431,o),
(404,541,cs),
(404,651,o),
(308,716,o),
(217,716,cs),
(126,716,o),
(30,651,o),
(30,541,cs),
(30,431,o),
(126,362,o),
(217,362,cs)
);
}
);
width = 519;
},
{
layerId = "D42A05F0-DBDC-4569-915A-03C7188507B6";
shapes = (
{
closed = 1;
nodes = (
(149,423,o),
(97,476,o),
(97,556,c),
(97,632,o),
(148,688,o),
(220,688,c),
(298,688,o),
(344,632,o),
(344,555,c),
(344,476,o),
(298,423,o),
(220,423,c)
);
},
{
closed = 1;
nodes = (
(299,421,o),
(346,475,o),
(346,555,c),
(346,633,o),
(299,690,o),
(220,690,c),
(147,690,o),
(95,633,o),
(95,556,c),
(95,475,o),
(148,421,o),
(220,421,c)
);
}
);
width = 521;
},
{
layerId = "B2FE45D6-EF48-417F-ACCD-B60D15D1CAF3";
shapes = (
{
closed = 1;
nodes = (
(158,435,o),
(111,482,o),
(111,550,cs),
(111,619,o),
(158,664,o),
(219,664,cs),
(287,664,o),
(328,619,o),
(328,549,cs),
(328,482,o),
(287,435,o),
(219,435,cs)
);
},
{
closed = 1;
nodes = (
(297,407,o),
(359,464,o),
(359,549,cs),
(359,637,o),
(297,692,o),
(219,692,cs),
(148,692,o),
(80,636,o),
(80,550,cs),
(80,460,o),
(148,407,o),
(219,407,cs)
);
}
);
width = 519;
},
{
layerId = "D92A4C0B-EB2A-4209-AFE3-2959A8B274DD";
shapes = (
{
closed = 1;
nodes = (
(174,443,o),
(132,474,o),
(132,541,cs),
(132,608,o),
(174,638,o),
(219,638,cs),
(265,638,o),
(306,606,o),
(306,540,cs),
(306,474,o),
(265,443,o),
(219,443,cs)
);
},
{
closed = 1;
nodes = (
(303,381,o),
(383,437,o),
(383,540,cs),
(383,643,o),
(303,701,o),
(219,701,cs),
(136,701,o),
(55,644,o),
(55,541,cs),
(55,438,o),
(136,381,o),
(219,381,cs)
);
}
);
width = 523;
}
);
unicode = 176;
}
{
color = 4;
glyphname = paragraph;
layers = (
{
layerId = "B26C53A4-97D1-457B-8232-65310EC64496";
shapes = (
{
closed = 1;
nodes = (
(323,696,l),
(298,662,l),
(298,-227,l),
(470,-206,l),
(470,563,l),
(548,563,l),
(548,-227,l),
(720,-206,l),
(720,696,l)
);
},
{
closed = 1;
nodes = (
(148,696,o),
(50,610,o),
(50,473,cs),
(50,338,o),
(144,246,o),
(319,252,c),
(323,696,l)
);
}
);
width = 820;
},
{
layerId = "D42A05F0-DBDC-4569-915A-03C7188507B6";
shapes = (
{
closed = 1;
nodes = (
(342,680,l),
(341,678,l),
(341,-190,l),
(343,-190,l),
(343,678,l),
(491,678,l),
(491,-190,l),
(493,-190,l),
(493,680,l)
);
},
{
closed = 1;
nodes = (
(217,680,o),
(130,613,o),
(130,496,c),
(130,399,o),
(186,312,o),
(342,312,c),
(342,680,l)
);
}
);
width = 683;
},
{
layerId = "B2FE45D6-EF48-417F-ACCD-B60D15D1CAF3";
shapes = (
{
closed = 1;
nodes = (
(330,682,l),
(327,649,l),
(327,-199,l),
(357,-193,l),
(357,655,l),
(497,655,l),
(497,-199,l),
(527,-193,l),
(527,682,l)
);
},
{
closed = 1;
nodes = (
(189,682,o),
(110,614,o),
(110,493,cs),
(110,390,o),
(166,304,o),
(341,304,c),
(330,682,l)
);
}
);
width = 687;
},
{
layerId = "D92A4C0B-EB2A-4209-AFE3-2959A8B274DD";
shapes = (
{
closed = 1;
nodes = (
(336,689,l),
(314,643,l),
(314,-215,l),
(397,-202,l),
(397,616,l),
(511,616,l),
(511,-215,l),
(594,-202,l),
(594,689,l)
);
},
{
closed = 1;
nodes = (
(185,689,o),
(90,616,o),
(90,486,cs),
(90,370,o),
(163,282,o),
(336,282,c),
(336,689,l)
);
}
);
width = 734;
}
);
unicode = 182;
}
{
glyphname = periodcentered;
layers = (
{
layerId = "B26C53A4-97D1-457B-8232-65310EC64496";
shapes = (
{
closed = 1;
nodes = (
(337,177,o),
(383,223,o),
(383,280,cs),
(383,337,o),
(337,383,o),
(280,383,cs),
(223,383,o),
(177,337,o),
(177,280,cs),
(177,223,o),
(223,177,o),
(280,177,cs)
);
}
);
width = 560;
},
{
layerId = "D42A05F0-DBDC-4569-915A-03C7188507B6";
shapes = (
{
closed = 1;
nodes = (
(274,273,o),
(277,276,o),
(277,280,cs),
(277,284,o),
(274,287,o),
(270,287,cs),
(266,287,o),
(263,284,o),
(263,280,cs),
(263,276,o),
(266,273,o),
(270,273,cs)
);
}
);
width = 540;
},
{
layerId = "B2FE45D6-EF48-417F-ACCD-B60D15D1CAF3";
shapes = (
{
closed = 1;
nodes = (
(292,250,o),
(305,263,o),
(305,280,cs),
(305,297,o),
(292,310,o),
(275,310,cs),
(258,310,o),
(245,297,o),
(245,280,cs),
(245,263,o),
(258,250,o),
(275,250,cs)
);
}
);
width = 550;
},
{
layerId = "D92A4C0B-EB2A-4209-AFE3-2959A8B274DD";
shapes = (
{
closed = 1;
nodes = (
(319,210,o),
(350,241,o),
(350,280,cs),
(350,319,o),
(319,350,o),
(280,350,cs),
(241,350,o),
(210,319,o),
(210,280,cs),
(210,241,o),
(241,210,o),
(280,210,cs)
);
}
);
width = 560;
}
);
metricRight = "=|";
unicode = 183;
}
{
color = 4;
glyphname = ordmasculine;
layers = (
{
layerId = "B26C53A4-97D1-457B-8232-65310EC64496";
shapes = (
{
closed = 1;
nodes = (
(112,696,o),
(25,612,o),
(25,479,cs),
(25,335,o),
(114,260,o),
(251,260,c),
(390,260,o),
(476,344,o),
(476,477,cs),
(476,621,o),
(387,696,o),
(250,696,c)
);
},
{
closed = 1;
nodes = (
(285,574,o),
(299,549,o),
(299,477,cs),
(299,410,o),
(285,382,o),
(251,382,c),
(216,382,o),
(202,407,o),
(202,479,cs),
(202,546,o),
(216,574,o),
(250,574,c)
);
},
{
pos = (-15,-257);
ref = minus;
}
);
width = 500;
},
{
layerId = "D42A05F0-DBDC-4569-915A-03C7188507B6";
shapes = (
{
closed = 1;
nodes = (
(154,680,o),
(90,608,o),
(90,479,cs),
(90,353,o),
(150,278,o),
(249,278,cs),
(348,278,o),
(410,352,o),
(410,482,cs),
(410,607,o),
(349,680,o),
(251,680,cs)
);
},
{
closed = 1;
nodes = (
(348,678,o),
(407,605,o),
(407,482,cs),
(407,353,o),
(347,280,o),
(249,280,cs),
(151,280,o),
(92,355,o),
(92,479,cs),
(92,607,o),
(155,678,o),
(251,678,cs)
);
},
{
pos = (11,-330);
ref = minus;
}
);
width = 500;
},
{
layerId = "B2FE45D6-EF48-417F-ACCD-B60D15D1CAF3";
shapes = (
{
closed = 1;
nodes = (
(145,682,o),
(77,607,o),
(77,479,cs),
(77,352,o),
(142,276,o),
(247,276,cs),
(351,276,o),
(419,351,o),
(419,481,cs),
(419,613,o),
(353,682,o),
(248,682,cs)
);
},
{
closed = 1;
nodes = (
(337,654,o),
(388,595,o),
(388,481,cs),
(388,364,o),
(334,304,o),
(248,304,cs),
(162,304,o),
(109,366,o),
(109,479,cs),
(109,596,o),
(164,654,o),
(249,654,cs)
);
},
{
pos = (4,-316);
ref = minus;
}
);
width = 500;
},
{
layerId = "D92A4C0B-EB2A-4209-AFE3-2959A8B274DD";
shapes = (
{
closed = 1;
nodes = (
(128,689,o),
(56,605,o),
(56,480,cs),
(56,351,o),
(127,271,o),
(250,271,cs),
(373,271,o),
(444,356,o),
(444,480,cs),
(444,609,o),
(374,689,o),
(251,689,cs)
);
},
{
closed = 1;
nodes = (
(315,620,o),
(349,577,o),
(349,480,cs),
(349,384,o),
(315,340,o),
(250,340,cs),
(186,340,o),
(151,384,o),
(151,480,cs),
(151,576,o),
(186,620,o),
(251,620,cs)
);
},
{
pos = (0,-294);
ref = minus;
}
);
width = 500;
}
);
unicode = 186;
}
{
color = 4;
glyphname = questiondown;
layers = (
{
background = {
shapes = (
{
closed = 1;
nodes = (
(193,228,l),
(167,-207,l),
(375,-207,l),
(349,228,l)
);
},
{
closed = 1;
nodes = (
(214,518,o),
(168,471,o),
(168,415,cs),
(168,359,o),
(214,312,o),
(271,312,cs),
(328,312,o),
(374,359,o),
(374,415,cs),
(374,471,o),
(328,518,o),
(271,518,cs)
);
}
);
};
layerId = "B26C53A4-97D1-457B-8232-65310EC64496";
shapes = (
{
closed = 1;
nodes = (
(356,-227,o),
(434,-181,o),
(490,-115,c),
(367,-19,l),
(334,-54,o),
(298,-73,o),
(263,-73,cs),
(230,-73,o),
(212,-59,o),
(212,-34,cs),
(212,32,o),
(360,24,o),
(360,200,cs),
(360,229,l),
(184,229,l),
(184,206,ls),
(184,105,o),
(5,111,o),
(5,-53,cs),
(5,-147,o),
(83,-227,o),
(241,-227,cs)
);
},
{
closed = 1;
nodes = (
(328,312,o),
(374,359,o),
(374,415,cs),
(374,471,o),
(328,518,o),
(271,518,cs),
(214,518,o),
(168,471,o),
(168,415,cs),
(168,359,o),
(214,312,o),
(271,312,cs)
);
}
);
width = 495;
},
{
layerId = "D42A05F0-DBDC-4569-915A-03C7188507B6";
shapes = (
{
closed = 1;
nodes = (
(281,-192,o),
(333,-165,o),
(378,-112,c),
(376,-110,l),
(332,-163,o),
(281,-190,o),
(213,-190,c),
(131,-190,o),
(72,-136,o),
(72,-68,c),
(72,76,o),
(257,54,o),
(257,217,c),
(257,255,l),
(255,255,l),
(255,217,l),
(255,56,o),
(70,76,o),
(70,-68,c),
(70,-137,o),
(131,-192,o),
(213,-192,c)
);
},
{
closed = 1;
nodes = (
(260,425,o),
(263,428,o),
(263,432,cs),
(263,436,o),
(260,439,o),
(256,439,cs),
(252,439,o),
(249,436,o),
(249,432,cs),
(249,428,o),
(252,425,o),
(256,425,cs)
);
}
);
width = 448;
},
{
background = {
shapes = (
{
closed = 1;
nodes = (
(233,251,l),
(233,-193,l),
(262,-193,l),
(262,251,l)
);
},
{
closed = 1;
nodes = (
(228,458,o),
(217,445,o),
(217,429,cs),
(217,412,o),
(228,399,o),
(247,399,cs),
(265,399,o),
(277,412,o),
(277,429,cs),
(277,445,o),
(265,458,o),
(247,458,cs)
);
}
);
};
layerId = "B2FE45D6-EF48-417F-ACCD-B60D15D1CAF3";
shapes = (
{
closed = 1;
nodes = (
(283,-199,o),
(336,-171,o),
(388,-112,c),
(366,-95,l),
(318,-147,o),
(276,-171,o),
(207,-171,cs),
(131,-171,o),
(82,-126,o),
(82,-69,cs),
(82,63,o),
(262,49,o),
(262,199,cs),
(262,251,l),
(233,251,l),
(233,202,ls),
(233,66,o),
(50,79,o),
(50,-69,cs),
(50,-136,o),
(109,-199,o),
(207,-199,cs)
);
},
{
closed = 1;
nodes = (
(264,399,o),
(276,412,o),
(276,429,cs),
(276,445,o),
(264,458,o),
(246,458,cs),
(227,458,o),
(216,445,o),
(216,429,cs),
(216,412,o),
(227,399,o),
(246,399,cs)
);
}
);
width = 438;
},
{
background = {
shapes = (
{
closed = 1;
nodes = (
(216,247,l),
(206,-202,l),
(308,-202,l),
(297,247,l)
);
},
{
closed = 1;
nodes = (
(216,495,o),
(186,464,o),
(186,425,cs),
(186,387,o),
(216,356,o),
(256,356,cs),
(295,356,o),
(325,387,o),
(325,425,cs),
(325,464,o),
(295,495,o),
(256,495,cs)
);
}
);
};
layerId = "D92A4C0B-EB2A-4209-AFE3-2959A8B274DD";
shapes = (
{
closed = 1;
nodes = (
(304,-215,o),
(372,-183,o),
(429,-116,c),
(366,-67,l),
(325,-117,o),
(277,-139,o),
(227,-139,cs),
(165,-139,o),
(126,-108,o),
(126,-53,cs),
(126,55,o),
(302,38,o),
(302,201,cs),
(302,247,l),
(211,247,l),
(211,206,ls),
(211,80,o),
(30,101,o),
(30,-59,cs),
(30,-139,o),
(95,-215,o),
(221,-215,cs)
);
},
{
closed = 1;
nodes = (
(293,356,o),
(323,387,o),
(323,425,cs),
(323,464,o),
(293,495,o),
(254,495,cs),
(214,495,o),
(184,464,o),
(184,425,cs),
(184,387,o),
(214,356,o),
(254,356,cs)
);
}
);
width = 459;
}
);
metricLeft = question;
metricRight = question;
unicode = 191;
}
{
color = 4;
glyphname = AE;
layers = (
{
anchors = (
{
name = bottom;
pos = (431.5,0);
},
{
name = top;
pos = (489,696);
}
);
layerId = "B26C53A4-97D1-457B-8232-65310EC64496";
shapes = (
{
closed = 1;
nodes = (
(241,696,l),
(-30,0,l),
(194,0,l),
(362,549,l),
(436,0,l),
(843,0,l),
(843,144,l),
(610,144,l),
(540,553,l),
(787,553,l),
(808,696,l)
);
},
{
closed = 1;
nodes = (
(263,279,l),
(219,135,l),
(434,135,l),
(414,279,l)
);
},
{
closed = 1;
nodes = (
(546,421,l),
(571,282,l),
(799,282,l),
(799,421,l)
);
}
);
width = 863;
},
{
anchors = (
{
name = bottom;
pos = (375,0);
},
{
name = top;
pos = (457,680);
}
);
layerId = "D42A05F0-DBDC-4569-915A-03C7188507B6";
shapes = (
{
closed = 1;
nodes = (
(284,680,l),
(21,0,l),
(23,0,l),
(285,678,l),
(463,0,l),
(700,0,l),
(700,2,l),
(465,2,l),
(287,678,l),
(645,678,l),
(645,680,l)
);
},
{
closed = 1;
nodes = (
(102,207,l),
(101,205,l),
(410,205,l),
(410,207,l)
);
},
{
closed = 1;
nodes = (
(369,362,l),
(369,360,l),
(635,360,l),
(635,362,l)
);
}
);
width = 750;
},
{
anchors = (
{
name = bottom;
pos = (378.5,0);
},
{
name = top;
pos = (442,682);
}
);
layerId = "B2FE45D6-EF48-417F-ACCD-B60D15D1CAF3";
shapes = (
{
closed = 1;
nodes = (
(272,682,l),
(9,0,l),
(40,0,l),
(291,657,l),
(464,0,l),
(717,0,l),
(717,29,l),
(487,29,l),
(323,653,l),
(660,653,l),
(664,682,l)
);
},
{
closed = 1;
nodes = (
(119,222,l),
(106,193,l),
(420,193,l),
(413,222,l)
);
},
{
closed = 1;
nodes = (
(388,373,l),
(396,345,l),
(657,345,l),
(657,373,l)
);
}
);
width = 757;
},
{
anchors = (
{
name = bottom;
pos = (408,0);
},
{
name = top;
pos = (474,689);
}
);
layerId = "D92A4C0B-EB2A-4209-AFE3-2959A8B274DD";
shapes = (
{
closed = 1;
nodes = (
(262,689,l),
(-12,0,l),
(85,0,l),
(316,613,l),
(458,0,l),
(762,0,l),
(762,76,l),
(535,76,l),
(401,613,l),
(710,613,l),
(721,689,l)
);
},
{
closed = 1;
nodes = (
(162,250,l),
(134,173,l),
(433,173,l),
(416,250,l)
);
},
{
closed = 1;
nodes = (
(441,387,l),
(461,311,l),
(712,311,l),
(712,387,l)
);
}
);
width = 816;
}
);
metricRight = E;
unicode = 198;
}
{
color = 4;
glyphname = Eth;
layers = (
{
background = {
shapes = (
{
closed = 1;
nodes = (
(651,637,o),
(472,696,o),
(281,696,cs),
(58,696,l),
(58,411,l),
(8,411,l),
(8,295,l),
(58,295,l),
(58,0,l),
(293,0,ls),
(487,0,o),
(651,73,o),
(651,351,cs)
);
},
{
closed = 1;
nodes = (
(439,193,o),
(398,145,o),
(305,145,cs),
(264,145,l),
(264,295,l),
(383,295,l),
(383,411,l),
(264,411,l),
(264,551,l),
(306,551,ls),
(394,551,o),
(439,509,o),
(439,351,cs)
);
}
);
};
layerId = "B26C53A4-97D1-457B-8232-65310EC64496";
shapes = (
{
closed = 1;
nodes = (
(59,411,l),
(10,411,l),
(10,295,l),
(385,295,l),
(385,411,l)
);
},
{
alignment = -1;
pos = (15,0);
ref = D;
}
);
width = 671;
},
{
layerId = "D42A05F0-DBDC-4569-915A-03C7188507B6";
shapes = (
{
closed = 1;
nodes = (
(124,354,l),
(30,354,l),
(30,352,l),
(322,352,l),
(322,354,l)
);
},
{
pos = (-6,0);
ref = D;
}
);
width = 607;
},
{
layerId = "B2FE45D6-EF48-417F-ACCD-B60D15D1CAF3";
shapes = (
{
closed = 1;
nodes = (
(119,367,l),
(25,367,l),
(25,337,l),
(340,337,l),
(340,367,l)
);
},
{
pos = (-1,0);
ref = D;
}
);
width = 621;
},
{
layerId = "D92A4C0B-EB2A-4209-AFE3-2959A8B274DD";
shapes = (
{
closed = 1;
nodes = (
(112,388,l),
(20,388,l),
(20,318,l),
(364,318,l),
(364,388,l)
);
},
{
alignment = -1;
pos = (12,0);
ref = D;
}
);
width = 656;
}
);
metricRight = D;
unicode = 208;
}
{
glyphname = multiply;
layers = (
{
layerId = "B26C53A4-97D1-457B-8232-65310EC64496";
shapes = (
{
closed = 1;
nodes = (
(510,404,l),
(404,510,l),
(50,156,l),
(156,50,l)
);
},
{
closed = 1;
nodes = (
(510,156,l),
(156,510,l),
(50,404,l),
(404,50,l)
);
}
);
width = 560;
},
{
layerId = "D42A05F0-DBDC-4569-915A-03C7188507B6";
shapes = (
{
closed = 1;
nodes = (
(420,428,l),
(418,429,l),
(120,132,l),
(122,131,l)
);
},
{
closed = 1;
nodes = (
(420,132,l),
(122,429,l),
(120,428,l),
(418,131,l)
);
}
);
width = 540;
},
{
layerId = "B2FE45D6-EF48-417F-ACCD-B60D15D1CAF3";
shapes = (
{
closed = 1;
nodes = (
(450,436,l),
(431,455,l),
(100,124,l),
(119,105,l)
);
},
{
closed = 1;
nodes = (
(450,124,l),
(119,455,l),
(100,436,l),
(431,105,l)
);
}
);
width = 550;
},
{
layerId = "D92A4C0B-EB2A-4209-AFE3-2959A8B274DD";
shapes = (
{
closed = 1;
nodes = (
(492,436,l),
(436,492,l),
(68,124,l),
(124,68,l)
);
},
{
closed = 1;
nodes = (
(492,124,l),
(124,492,l),
(68,436,l),
(436,68,l)
);
}
);
width = 560;
}
);
metricRight = "=|";
unicode = 215;
}
{
color = 4;
glyphname = Oslash;
layers = (
{
anchors = (
{
name = bottom;
pos = (345,0);
},
{
name = top;
pos = (345,741);
}
);
layerId = "B26C53A4-97D1-457B-8232-65310EC64496";
shapes = (
{
closed = 1;
nodes = (
(136,716,o),
(20,575,o),
(20,349,cs),
(20,118,o),
(136,-20,o),
(345,-20,cs),
(554,-20,o),
(670,123,o),
(670,349,cs),
(670,580,o),
(554,716,o),
(345,716,cs)
);
},
{
closed = 1;
nodes = (
(423,570,o),
(456,540,o),
(456,349,cs),
(456,188,o),
(425,126,o),
(345,126,cs),
(267,126,o),
(234,158,o),
(234,349,cs),
(234,510,o),
(267,570,o),
(345,570,cs)
);
},
{
closed = 1;
nodes = (
(382,709,l),
(363,570,l),
(246,180,l),
(160,33,l),
(119,-99,l),
(269,-139,l),
(308,-12,l),
(327,124,l),
(444,514,l),
(530,664,l),
(571,793,l),
(421,833,l)
);
}
);
width = 690;
},
{
anchors = (
{
name = bottom;
pos = (343.5,0);
},
{
name = top;
pos = (335,687);
}
);
layerId = "D42A05F0-DBDC-4569-915A-03C7188507B6";
shapes = (
{
closed = 1;
nodes = (
(188,690,o),
(85,557,o),
(85,338,cs),
(85,119,o),
(184,-9,o),
(343,-9,cs),
(510,-9,o),
(602,120,o),
(602,340,cs),
(602,563,o),
(504,690,o),
(343,690,cs)
);
},
{
closed = 1;
nodes = (
(504,688,o),
(600,561,o),
(600,340,cs),
(600,122,o),
(509,-7,o),
(343,-7,cs),
(184,-7,o),
(87,121,o),
(87,338,cs),
(87,555,o),
(189,688,o),
(343,688,cs)
);
},
{
closed = 1;
nodes = (
(439,672,l),
(439,671,l),
(247,11,l),
(247,10,l),
(213,-102,l),
(215,-103,l),
(249,9,l),
(249,10,l),
(441,670,l),
(441,671,l),
(475,786,l),
(473,787,l)
);
}
);
width = 687;
},
{
anchors = (
{
name = bottom;
pos = (345,0);
},
{
name = top;
pos = (337,692);
}
);
layerId = "B2FE45D6-EF48-417F-ACCD-B60D15D1CAF3";
shapes = (
{
closed = 1;
nodes = (
(186,692,o),
(75,565,o),
(75,339,cs),
(75,114,o),
(185,-10,o),
(345,-10,cs),
(511,-10,o),
(615,118,o),
(615,340,cs),
(615,571,o),
(506,692,o),
(345,692,cs)
);
},
{
closed = 1;
nodes = (
(488,663,o),
(583,556,o),
(583,340,cs),
(583,129,o),
(493,19,o),
(345,19,cs),
(205,19,o),
(107,129,o),
(107,339,cs),
(107,554,o),
(204,663,o),
(345,663,c)
);
},
{
closed = 1;
nodes = (
(429,680,l),
(424,656,l),
(241,34,l),
(233,14,l),
(196,-105,l),
(227,-114,l),
(258,3,l),
(264,27,l),
(447,649,l),
(454,669,l),
(493,794,l),
(462,803,l)
);
}
);
width = 690;
},
{
anchors = (
{
name = bottom;
pos = (346,0);
},
{
name = top;
pos = (341,704);
}
);
layerId = "D92A4C0B-EB2A-4209-AFE3-2959A8B274DD";
shapes = (
{
closed = 1;
nodes = (
(174,701,o),
(55,570,o),
(55,343,cs),
(55,112,o),
(174,-12,o),
(346,-12,cs),
(519,-12,o),
(637,116,o),
(637,344,cs),
(637,576,o),
(519,701,o),
(346,701,cs)
);
},
{
closed = 1;
nodes = (
(464,623,o),
(536,552,o),
(536,344,cs),
(536,144,o),
(462,66,o),
(346,66,cs),
(234,66,o),
(156,134,o),
(156,343,cs),
(156,542,o),
(231,623,o),
(346,623,cs)
);
},
{
closed = 1;
nodes = (
(410,689,l),
(398,626,l),
(235,86,l),
(208,32,l),
(165,-106,l),
(244,-127,l),
(281,0,l),
(293,63,l),
(456,606,l),
(483,657,l),
(528,798,l),
(449,819,l)
);
}
);
width = 692;
}
);
metricLeft = O;
metricRight = O;
unicode = 216;
}
{
color = 4;
glyphname = Thorn;
layers = (
{
anchors = (
{
name = bottom;
pos = (305.5,0);
},
{
name = top;
pos = (305.5,696);
}
);
layerId = "B26C53A4-97D1-457B-8232-65310EC64496";
shapes = (
{
closed = 1;
nodes = (
(243,593,l),
(249,450,l),
(291,450,ls),
(359,450,o),
(386,416,o),
(386,358,cs),
(386,283,o),
(355,251,o),
(297,251,cs),
(233,251,l),
(233,106,l),
(317,106,ls),
(482,106,o),
(596,188,o),
(596,358,cs),
(596,515,o),
(481,593,o),
(294,593,cs)
);
},
{
closed = 1;
nodes = (
(43,696,l),
(43,0,l),
(249,0,l),
(249,696,l)
);
}
);
width = 611;
},
{
anchors = (
{
name = bottom;
pos = (276,0);
},
{
name = top;
pos = (276,680);
}
);
layerId = "D42A05F0-DBDC-4569-915A-03C7188507B6";
shapes = (
{
closed = 1;
nodes = (
(130,550,l),
(132,548,l),
(252,548,ls),
(410,548,o),
(485,491,o),
(485,351,cs),
(485,210,o),
(394,156,o),
(249,156,cs),
(131,156,l),
(131,154,l),
(249,154,ls),
(396,154,o),
(487,209,o),
(487,351,cs),
(487,492,o),
(411,550,o),
(252,550,cs)
);
},
{
closed = 1;
nodes = (
(130,680,l),
(130,0,l),
(132,0,l),
(132,680,l)
);
}
);
width = 552;
},
{
anchors = (
{
name = bottom;
pos = (280.5,0);
},
{
name = top;
pos = (280.5,682);
}
);
layerId = "B2FE45D6-EF48-417F-ACCD-B60D15D1CAF3";
shapes = (
{
closed = 1;
nodes = (
(130,556,l),
(151,527,l),
(264,527,ls),
(399,527,o),
(474,483,o),
(474,356,cs),
(474,214,o),
(385,173,o),
(262,173,cs),
(144,173,l),
(144,144,l),
(259,144,ls),
(404,144,o),
(506,199,o),
(506,357,cs),
(506,497,o),
(418,556,o),
(264,556,cs)
);
},
{
closed = 1;
nodes = (
(120,682,l),
(120,0,l),
(151,0,l),
(151,682,l)
);
}
);
width = 561;
},
{
anchors = (
{
name = bottom;
pos = (290.5,0);
},
{
name = top;
pos = (290.5,689);
}
);
layerId = "D92A4C0B-EB2A-4209-AFE3-2959A8B274DD";
shapes = (
{
closed = 1;
nodes = (
(180,571,l),
(195,497,l),
(280,497,ls),
(382,497,o),
(448,460,o),
(448,353,cs),
(448,232,o),
(380,202,o),
(278,202,cs),
(179,202,l),
(179,127,l),
(282,127,ls),
(434,127,o),
(549,192,o),
(549,354,cs),
(549,503,o),
(447,571,o),
(281,571,cs)
);
},
{
closed = 1;
nodes = (
(100,689,l),
(100,0,l),
(195,0,l),
(195,689,l)
);
}
);
width = 581;
}
);
metricLeft = H;
metricRight = P;
unicode = 222;
}
